<svg width="1988" height="562" viewBox="0 0 1988 562" fill="none" xmlns="http://www.w3.org/2000/svg">
<mask id="mask0_96_1714" style="mask-type:luminance" maskUnits="userSpaceOnUse" x="0" y="0" width="1988" height="562">
<path d="M1988 0H0V562H1988V0Z" fill="white"/>
</mask>
<g mask="url(#mask0_96_1714)">
<path fill-rule="evenodd" clip-rule="evenodd" d="M215.96 304.751C216.937 310.615 217.328 316.479 217.132 322.344V362.808C217.132 370.236 216.546 377.469 215.373 384.701C210.292 411.482 187.035 430.834 160.26 430.639C121.172 430.639 95.7649 397.798 95.7649 345.606C95.7649 297.127 117.459 258.031 160.846 258.031C187.816 258.227 210.878 277.775 216.155 304.751H215.96ZM311.529 408.159V52.5836H217.132V218.936H215.96C202.279 198.215 173.745 184.336 135.83 184.336C63.3222 184.336 -0.586219 245.13 9.66198e-05 348.929C9.66198e-05 444.713 57.6544 507.071 129.771 507.071C168.859 507.071 205.992 489.478 224.754 455.464H226.513L230.227 500.229H314.07C312.897 479.313 311.529 442.954 311.529 408.159Z" fill="#0068D9"/>
<path fill-rule="evenodd" clip-rule="evenodd" d="M498.368 438.458C458.108 438.458 436.414 398.776 436.414 345.801C436.414 300.45 453.808 253.144 498.368 253.144C542.928 253.144 558.563 299.864 558.563 345.215C558.563 401.317 535.501 438.458 498.368 438.458ZM495.827 507.071C577.13 507.071 655.891 455.464 655.891 342.478C655.891 249.235 593.937 184.336 501.3 184.336C403.385 184.336 338.695 248.648 338.695 348.147C338.695 447.645 406.903 507.071 495.632 507.071H495.827Z" fill="#0068D9"/>
<path d="M912.893 492.019C896.086 500.229 864.425 506.484 828.464 506.484C730.549 506.484 667.813 445.299 667.813 348.929C667.813 258.813 728.595 184.922 841.754 184.922C866.184 184.922 890.418 188.832 913.48 196.847L898.626 268.001C881.819 261.159 864.034 258.031 845.858 258.618C796.217 258.618 763.969 294.586 764.556 345.019C764.556 401.121 801.689 431.421 847.617 431.421C866.184 431.811 884.555 428.488 901.558 421.256L912.698 491.823" fill="#0068D9"/>
<path fill-rule="evenodd" clip-rule="evenodd" d="M1057.32 248.453C1100.71 248.453 1110.68 287.549 1110.68 310.81H999.081C1001.62 285.594 1017.65 248.453 1057.32 248.453ZM1085.27 435.33C1041.1 435.33 1002.01 416.369 999.668 376.687L1195.11 376.491C1197.26 363.981 1198.23 351.274 1198.23 338.568C1198.23 262.332 1161.1 184.727 1062.99 184.727C957.453 184.727 909.766 271.128 909.766 349.32C909.766 445.69 968.789 506.289 1071.78 506.289C1112.63 506.289 1150.55 500.033 1181.62 486.741L1169.31 421.842C1142.34 431.225 1114 435.721 1085.47 435.33H1085.27Z" fill="#0068D9"/>
<path fill-rule="evenodd" clip-rule="evenodd" d="M1319.99 386.07C1318.62 380.596 1318.04 374.732 1318.23 369.063V323.712C1318.23 317.848 1318.82 311.788 1319.99 306.119C1325.46 279.338 1348.33 259.791 1375.3 258.813C1419.47 258.813 1440.38 296.541 1440.38 344.433C1440.38 399.949 1415.56 431.421 1375.3 431.421C1348.92 430.834 1326.05 412.264 1319.99 386.07ZM1318.04 52.5836H1223.64V407.963C1223.64 442.758 1222.47 479.899 1221.1 500.033H1301.03L1304.75 457.224H1306.12C1327.22 493.778 1362.01 507.071 1397.39 507.071C1466.96 507.071 1535.76 451.555 1535.76 340.719C1536.34 246.107 1483.57 184.922 1411.07 184.922C1368.85 184.922 1337.19 201.929 1319.21 228.514H1318.04V52.5836Z" fill="#0068D9"/>
<path fill-rule="evenodd" clip-rule="evenodd" d="M1707.94 438.458C1667.48 438.458 1645.79 398.776 1645.79 345.801C1645.79 300.45 1663.18 253.144 1707.94 253.144C1752.69 253.144 1768.13 299.864 1768.13 345.215C1768.13 401.317 1745.27 438.458 1707.94 438.458ZM1705.2 507.071C1786.5 507.071 1865.27 455.464 1865.27 342.478C1865.27 249.235 1803.31 184.336 1710.67 184.336C1612.56 184.336 1548.07 248.648 1548.07 348.147C1548.07 447.645 1616.28 507.071 1705.01 507.071H1705.2Z" fill="#0068D9"/>
<path fill-rule="evenodd" clip-rule="evenodd" d="M1939.92 235.747H1935.04V222.65C1936.99 222.259 1938.95 222.063 1940.9 222.063C1947.54 222.063 1950.48 224.214 1950.48 229.101C1950.48 233.987 1945.59 235.942 1939.92 235.942V235.747ZM1934.65 261.354H1924.09V215.613C1929.76 214.635 1935.62 214.244 1941.29 214.244C1946.57 213.658 1952.04 215.026 1956.73 217.763C1959.86 220.109 1961.62 223.627 1961.42 227.537C1961.03 232.815 1957.32 237.311 1952.04 238.288V238.874C1956.34 240.243 1958.68 243.957 1960.05 250.017C1960.64 253.926 1961.81 257.64 1963.38 261.159H1952.43C1950.67 257.64 1949.5 253.926 1948.91 250.017C1948.13 245.325 1945.39 242.979 1939.73 242.979H1934.84V261.159L1934.65 261.354ZM1906.89 237.897C1906.7 247.475 1910.22 256.663 1916.86 263.505C1923.51 270.346 1932.5 274.256 1942.07 274.256C1951.45 274.256 1960.25 270.346 1966.7 263.505C1973.15 256.663 1976.66 247.475 1976.27 238.093C1976.86 225.191 1970.22 213.071 1959.27 206.425C1948.33 199.779 1934.65 199.779 1923.7 206.425C1912.76 213.071 1906.31 225.191 1906.7 238.093L1906.89 237.897ZM1960.25 282.075C1977.45 274.451 1988.59 256.858 1988 237.702C1988 225.386 1982.92 213.658 1974.32 205.252C1965.72 196.651 1954.19 191.96 1942.07 191.96C1923.31 191.96 1906.11 203.297 1899.08 220.89C1891.84 238.483 1895.95 259.009 1909.43 272.301C1922.92 285.789 1943.05 289.503 1960.25 281.88V282.075Z" fill="#0068D9"/>
</g>
</svg>
