<?xml version="1.0" encoding="utf-8"?>
<!-- Generator: Adobe Illustrator 25.0.1, SVG Export Plug-In . SVG Version: 6.00 Build 0)  -->
<svg version="1.0" id="katman_1" xmlns="http://www.w3.org/2000/svg" xmlns:xlink="http://www.w3.org/1999/xlink" x="0px" y="0px"
	 viewBox="0 0 800 600" style="enable-background:new 0 0 800 600;" xml:space="preserve">
<style type="text/css">
	.st0{fill:#6D6E71;}
	.st1{fill:#D22128;}
	.st2{fill:url(#SVGID_1_);}
	.st3{fill:none;}
	.st4{fill:#BE202E;}
	.st5{opacity:0.35;fill:#BE202E;enable-background:new    ;}
	.st6{fill:url(#SVGID_2_);}
	.st7{fill:url(#SVGID_3_);}
	.st8{fill:url(#SVGID_4_);}
	.st9{fill:url(#SVGID_5_);}
	.st10{fill:url(#SVGID_6_);}
	.st11{fill:url(#SVGID_7_);}
	.st12{fill:url(#SVGID_8_);}
	.st13{fill:url(#SVGID_9_);}
	.st14{fill:url(#SVGID_10_);}
</style>
<path class="st0" d="M741.8,263c1.5,1.5,2.2,3.3,2.2,5.3c0,2.1-0.7,3.9-2.2,5.4c-1.5,1.5-3.3,2.2-5.4,2.2c-2.1,0-3.9-0.7-5.4-2.2
	c-1.5-1.5-2.2-3.3-2.2-5.3c0-2.1,0.7-3.9,2.2-5.4c1.5-1.5,3.3-2.2,5.4-2.2C738.5,260.8,740.3,261.5,741.8,263z M741.2,273
	c1.3-1.3,1.9-2.9,1.9-4.7c0-1.8-0.6-3.4-1.9-4.7c-1.3-1.3-2.8-1.9-4.7-1.9s-3.4,0.6-4.7,2c-1.3,1.3-1.9,2.9-1.9,4.7s0.6,3.4,1.9,4.7
	c1.3,1.3,2.8,1.9,4.7,1.9S739.9,274.4,741.2,273z M740.1,266.9c0,1.4-0.6,2.2-1.8,2.6l2.2,2.9h-1.8l-2-2.7H735v2.7h-1.4v-8.2h3.1
	c1.2,0,2.1,0.2,2.7,0.6C739.8,265.3,740.1,265.9,740.1,266.9z M738.3,268c0.3-0.2,0.4-0.6,0.4-1.2s-0.1-0.9-0.4-1.1
	s-0.8-0.3-1.5-0.3H735v2.9h1.7C737.4,268.4,738,268.3,738.3,268z"/>
<path class="st0" d="M229.7,229.4v15h-1.9v-15h-5.5v-1.9h12.9v1.9H229.7z"/>
<path class="st0" d="M256.6,244.4V237h-10.2v7.4h-1.9v-16.9h1.9v7.6h10.2v-7.6h1.9v16.9H256.6z"/>
<path class="st0" d="M272,229.4v5.5h8.5v1.9H272v5.8h9.8v1.8H270v-16.9h11.5v1.9L272,229.4L272,229.4z"/>
<path class="st1" d="M207.6,360l40.3-96.4h7.7l40.3,96.4h-10.2l-12.5-30.1h-43.3L217.6,360H207.6z M251.8,274.8L232,322.4h39.1
	L251.8,274.8z"/>
<path class="st1" d="M306.3,360v-96.4h39.9c16.6,0,28.5,15.3,28.5,30.3c0,15.7-11.1,30.5-27.7,30.5h-31.4V360L306.3,360L306.3,360z
	 M315.7,316.1h30.8c11.4,0,18.7-10.5,18.7-22.1c0-12.1-9-21.9-19.5-21.9h-30L315.7,316.1L315.7,316.1z"/>
<path class="st1" d="M369.5,360l40.3-96.4h7.7l40.3,96.4h-10.2l-12.5-30.1h-43.3L379.5,360H369.5z M413.7,274.8l-19.8,47.6H433
	L413.7,274.8z"/>
<path class="st1" d="M503.4,263.1c17.1,0,29.6,8.7,35.6,21l-7.6,4.6c-6.1-12.8-18.1-17.1-28.5-17.1c-23.1,0-35.7,20.6-35.7,40
	c0,21.3,15.6,40.6,36.1,40.6c10.9,0,23.6-5.4,29.7-17.9l7.9,4.1c-6.2,14.4-23.3,22.4-38.1,22.4c-26.5,0-45.1-25.2-45.1-49.7
	C457.7,288,474.4,263.1,503.4,263.1z"/>
<path class="st1" d="M630.2,263.7V360h-9.5V315h-57.1V360h-9.4v-96.4h9.4v42.9h57.1v-42.9H630.2L630.2,263.7z"/>
<path class="st1" d="M716.7,351.6v8.4h-64.7v-96.4h63.5v8.4h-54.2v34.7h47.2v8h-47.2v36.8L716.7,351.6L716.7,351.6z"/>
<path class="st0" d="M216.6,380.4c1.1,0.3,2.1,0.8,3,1.4l-1,2.2c-0.9-0.6-1.8-1-2.8-1.3c-1-0.3-1.9-0.4-2.8-0.4
	c-1.3,0-2.4,0.2-3.1,0.7c-0.8,0.5-1.2,1.1-1.2,2c0,0.7,0.2,1.4,0.7,1.8c0.4,0.5,1,0.9,1.6,1.1c0.7,0.3,1.6,0.6,2.7,0.9
	c1.4,0.4,2.5,0.9,3.4,1.2c0.9,0.4,1.6,1,2.2,1.7c0.6,0.8,0.9,1.8,0.9,3c0,1.1-0.3,2.1-0.9,3c-0.6,0.8-1.5,1.5-2.6,2
	c-1.1,0.5-2.4,0.7-3.9,0.7s-2.9-0.3-4.2-0.8c-1.4-0.6-2.6-1.3-3.5-2.3l1-2.1c0.9,0.9,2,1.6,3.2,2.1c1.2,0.5,2.4,0.8,3.6,0.8
	c1.5,0,2.6-0.3,3.5-0.9c0.9-0.6,1.3-1.3,1.3-2.3c0-0.8-0.2-1.4-0.7-1.9c-0.4-0.5-1-0.9-1.7-1.1c-0.7-0.3-1.6-0.6-2.7-0.9
	c-1.4-0.4-2.5-0.8-3.3-1.2c-0.9-0.4-1.6-0.9-2.2-1.7c-0.6-0.7-0.9-1.7-0.9-3c0-1.1,0.3-2,0.9-2.8c0.6-0.8,1.4-1.4,2.5-1.8
	c1.1-0.4,2.3-0.7,3.7-0.7C214.3,379.9,215.4,380.1,216.6,380.4z"/>
<path class="st0" d="M246.7,381.3c1.6,0.9,2.9,2.2,3.9,3.7c0.9,1.6,1.4,3.3,1.4,5.1c0,1.9-0.5,3.6-1.4,5.2c-0.9,1.6-2.2,2.8-3.9,3.7
	c-1.6,0.9-3.4,1.4-5.3,1.4c-2,0-3.7-0.5-5.4-1.4c-1.6-0.9-2.9-2.2-3.9-3.7c-0.9-1.6-1.4-3.3-1.4-5.2c0-1.9,0.5-3.6,1.4-5.2
	c0.9-1.6,2.2-2.8,3.9-3.7c1.6-0.9,3.4-1.4,5.4-1.4C243.3,380,245.1,380.4,246.7,381.3z M237.3,383.3c-1.3,0.7-2.3,1.7-3,2.9
	c-0.8,1.2-1.1,2.6-1.1,4c0,1.5,0.4,2.8,1.1,4.1c0.8,1.2,1.8,2.2,3,2.9s2.6,1.1,4.1,1.1c1.5,0,2.9-0.4,4.1-1.1c1.3-0.7,2.3-1.7,3-2.9
	c0.7-1.2,1.1-2.6,1.1-4.1c0-1.5-0.4-2.8-1.1-4c-0.7-1.2-1.7-2.2-3-2.9c-1.3-0.7-2.6-1.1-4.1-1.1
	C239.9,382.2,238.5,382.5,237.3,383.3z"/>
<path class="st0" d="M266.7,382.3v7.1h9.5v2.2h-9.5v8.7h-2.3V380h12.9v2.2L266.7,382.3L266.7,382.3z"/>
<path class="st0" d="M296.2,382.3v18.1h-2.3v-18.1h-6.6V380h15.6v2.2H296.2z"/>
<path class="st0" d="M332.9,400.4l-5.5-17.1l-5.6,17.1h-2.4l-6.8-20.3h2.5l5.6,17.6l5.5-17.6l2.3,0l5.6,17.6l5.5-17.6h2.4l-6.8,20.3
	H332.9z"/>
<path class="st0" d="M353.7,395.2l-2.3,5.1H349l9.1-20.3h2.4l9.1,20.3h-2.5l-2.3-5.1H353.7z M359.2,382.7l-4.5,10.3h9.1L359.2,382.7
	z"/>
<path class="st0" d="M389.8,393.9c-0.6,0-1,0.1-1.4,0.1H383v6.4h-2.3V380h7.7c2.5,0,4.5,0.6,5.9,1.8c1.4,1.2,2.1,2.9,2.1,5.1
	c0,1.7-0.4,3.1-1.2,4.2c-0.8,1.1-1.9,1.9-3.4,2.4l4.8,6.9H394L389.8,393.9z M392.7,390.5c1-0.8,1.5-2,1.5-3.6c0-1.5-0.5-2.7-1.5-3.5
	c-1-0.8-2.4-1.2-4.3-1.2H383v9.4h5.4C390.3,391.7,391.7,391.3,392.7,390.5z"/>
<path class="st0" d="M411.8,382.3v6.7H422v2.2h-10.3v7h11.9v2.2h-14.2V380h13.8v2.2L411.8,382.3L411.8,382.3z"/>
<path class="st0" d="M456.1,382.3v7.1h9.5v2.2h-9.5v8.7h-2.3V380h12.9v2.2L456.1,382.3L456.1,382.3z"/>
<path class="st0" d="M492.4,381.3c1.6,0.9,2.9,2.2,3.9,3.7c0.9,1.6,1.4,3.3,1.4,5.1c0,1.9-0.5,3.6-1.4,5.2c-0.9,1.6-2.2,2.8-3.9,3.7
	c-1.6,0.9-3.4,1.4-5.3,1.4c-2,0-3.7-0.5-5.4-1.4c-1.6-0.9-2.9-2.2-3.9-3.7c-0.9-1.6-1.4-3.3-1.4-5.2c0-1.9,0.5-3.6,1.4-5.2
	c0.9-1.6,2.2-2.8,3.9-3.7c1.6-0.9,3.4-1.4,5.4-1.4C489,380,490.8,380.4,492.4,381.3z M482.9,383.3c-1.3,0.7-2.3,1.7-3,2.9
	c-0.8,1.2-1.1,2.6-1.1,4c0,1.5,0.4,2.8,1.1,4.1c0.8,1.2,1.8,2.2,3,2.9s2.6,1.1,4.1,1.1s2.9-0.4,4.1-1.1c1.3-0.7,2.3-1.7,3-2.9
	c0.7-1.2,1.1-2.6,1.1-4.1c0-1.5-0.4-2.8-1.1-4c-0.7-1.2-1.7-2.2-3-2.9c-1.3-0.7-2.6-1.1-4.1-1.1
	C485.6,382.2,484.2,382.5,482.9,383.3z"/>
<path class="st0" d="M524.4,398.2c-1.5,1.5-3.6,2.3-6.3,2.3c-2.7,0-4.8-0.8-6.3-2.3c-1.5-1.5-2.3-3.6-2.3-6.2v-12h2.3v12
	c0,2,0.6,3.5,1.7,4.6c1.1,1.1,2.6,1.7,4.6,1.7c1.9,0,3.5-0.6,4.5-1.6c1.1-1.1,1.6-2.6,1.6-4.6v-12h2.3v12
	C526.7,394.7,525.9,396.7,524.4,398.2z"/>
<path class="st0" d="M554.8,400.4L542.6,384v16.3h-2.3V380h2.4l12.2,16.4V380h2.3v20.3H554.8z"/>
<path class="st0" d="M584.7,381.4c1.6,0.9,2.8,2.1,3.8,3.7c0.9,1.5,1.4,3.3,1.4,5.2c0,1.9-0.5,3.6-1.4,5.2c-0.9,1.6-2.2,2.8-3.8,3.7
	c-1.6,0.9-3.4,1.3-5.4,1.3h-8.1V380h8.2C581.3,380,583.1,380.5,584.7,381.4z M573.5,398.1h5.9c1.5,0,2.9-0.3,4.1-1
	c1.2-0.7,2.2-1.6,2.9-2.8c0.7-1.2,1.1-2.6,1.1-4.1c0-1.5-0.4-2.8-1.1-4c-0.7-1.2-1.7-2.2-3-2.9c-1.2-0.7-2.6-1.1-4.1-1.1h-5.8V398.1
	z"/>
<path class="st0" d="M603.1,395.2l-2.3,5.1h-2.5l9.1-20.3h2.4l9.1,20.3h-2.5l-2.3-5.1H603.1z M608.6,382.7l-4.5,10.3h9.1
	L608.6,382.7z"/>
<path class="st0" d="M634.2,382.3v18.1h-2.3v-18.1h-6.6V380h15.6v2.2H634.2z"/>
<path class="st0" d="M652.1,400.4V380h2.3v20.3H652.1z"/>
<path class="st0" d="M682.8,381.3c1.6,0.9,2.9,2.2,3.9,3.7c0.9,1.6,1.4,3.3,1.4,5.1c0,1.9-0.5,3.6-1.4,5.2c-0.9,1.6-2.2,2.8-3.9,3.7
	c-1.6,0.9-3.4,1.4-5.3,1.4c-2,0-3.7-0.5-5.4-1.4c-1.6-0.9-2.9-2.2-3.9-3.7c-0.9-1.6-1.4-3.3-1.4-5.2c0-1.9,0.5-3.6,1.4-5.2
	c0.9-1.6,2.2-2.8,3.9-3.7c1.6-0.9,3.4-1.4,5.4-1.4C679.4,380,681.1,380.4,682.8,381.3z M673.3,383.3c-1.3,0.7-2.3,1.7-3,2.9
	c-0.8,1.2-1.1,2.6-1.1,4c0,1.5,0.4,2.8,1.1,4.1c0.8,1.2,1.8,2.2,3,2.9s2.6,1.1,4.1,1.1c1.5,0,2.9-0.4,4.1-1.1c1.3-0.7,2.3-1.7,3-2.9
	c0.7-1.2,1.1-2.6,1.1-4.1c0-1.5-0.4-2.8-1.1-4c-0.7-1.2-1.7-2.2-3-2.9c-1.3-0.7-2.6-1.1-4.1-1.1
	C675.9,382.2,674.6,382.5,673.3,383.3z"/>
<path class="st0" d="M714.9,400.4L702.7,384v16.3h-2.3V380h2.4l12.2,16.4V380h2.3v20.3H714.9z"/>
<linearGradient id="SVGID_1_" gradientUnits="userSpaceOnUse" x1="-4878.2295" y1="3801.0491" x2="-4838.7959" y2="3754.9382" gradientTransform="matrix(0.4226 -0.9063 -0.9063 -0.4226 5667.1411 -2610.0454)">
	<stop  offset="0" style="stop-color:#F69923"/>
	<stop  offset="0.3123" style="stop-color:#F79A23"/>
	<stop  offset="0.8383" style="stop-color:#E97826"/>
</linearGradient>
<path class="st2" d="M174.3,182.4c-4.4,2.6-11.7,9.9-20.3,20.5l8,15.1c5.6-8,11.3-15.2,17-21.4c0.4-0.5,0.7-0.7,0.7-0.7
	c-0.2,0.2-0.4,0.5-0.7,0.7c-1.9,2-7.5,8.6-16,21.7c8.2-0.4,20.8-2.1,31-3.8c3.1-17.1-3-24.9-3-24.9S183.3,177.1,174.3,182.4z"/>
<path class="st3" d="M160.8,268.3c0.1,0,0.1,0,0.2,0l-1.1,0.1c-0.1,0-0.1,0.1-0.2,0.1C160,268.5,160.4,268.4,160.8,268.3z"/>
<path class="st3" d="M152.6,295.3c-0.6,0.1-1.3,0.3-2,0.4C151.3,295.6,152,295.5,152.6,295.3z"/>
<path class="st3" d="M97.3,355.8c0.1-0.2,0.2-0.5,0.3-0.7c1.8-4.6,3.5-9.1,5.2-13.5c1.9-4.9,3.8-9.7,5.7-14.3c2-4.9,4-9.6,5.9-14.1
	c2-4.8,4-9.4,6-13.8c1.6-3.6,3.2-7.1,4.7-10.5c0.5-1.1,1-2.2,1.5-3.3c1-2.2,2-4.3,3-6.4c0.9-1.9,1.8-3.8,2.7-5.7
	c0.3-0.6,0.6-1.2,0.9-1.8c0-0.1,0.1-0.2,0.1-0.3l-1,0.1l-0.8-1.5c-0.1,0.2-0.2,0.3-0.2,0.4c-1.4,2.8-2.8,5.6-4.2,8.4
	c-0.8,1.6-1.6,3.3-2.4,4.9c-2.2,4.6-4.3,9.2-6.4,13.8c-2.1,4.7-4.2,9.4-6.3,14.2c-2,4.6-4,9.3-5.9,13.9c-1.9,4.6-3.8,9.2-5.7,13.8
	c-1.9,4.8-3.8,9.5-5.6,14.2c-0.4,1.1-0.8,2.1-1.2,3.2c-1.4,3.8-2.9,7.5-4.3,11.2l1.2,2.4l1.1-0.1c0-0.1,0.1-0.2,0.1-0.3
	C93.8,365.2,95.5,360.4,97.3,355.8z"/>
<path class="st3" d="M150.1,295.7L150.1,295.7C150.1,295.7,150.1,295.7,150.1,295.7C150.1,295.7,150.1,295.7,150.1,295.7z"/>
<path class="st4" d="M147.5,308.9c-1,0.2-2.1,0.4-3.1,0.6c0,0,0,0,0,0c0.5-0.1,1.1-0.2,1.6-0.3C146.5,309.1,147,309,147.5,308.9z"/>
<path class="st5" d="M147.5,308.9c-1,0.2-2.1,0.4-3.1,0.6c0,0,0,0,0,0c0.5-0.1,1.1-0.2,1.6-0.3C146.5,309.1,147,309,147.5,308.9z"/>
<path class="st4" d="M150.2,295.7C150.1,295.7,150.1,295.7,150.2,295.7C150.1,295.7,150.1,295.7,150.2,295.7c0.2,0,0.3,0,0.5-0.1
	c0.7-0.1,1.3-0.2,2-0.4C151.8,295.5,151,295.6,150.2,295.7L150.2,295.7L150.2,295.7z"/>
<path class="st5" d="M150.2,295.7C150.1,295.7,150.1,295.7,150.2,295.7C150.1,295.7,150.1,295.7,150.2,295.7c0.2,0,0.3,0,0.5-0.1
	c0.7-0.1,1.3-0.2,2-0.4C151.8,295.5,151,295.6,150.2,295.7L150.2,295.7L150.2,295.7z"/>
<linearGradient id="SVGID_2_" gradientUnits="userSpaceOnUse" x1="-5170.0786" y1="3806.1436" x2="-4888.7407" y2="3806.1436" gradientTransform="matrix(0.4226 -0.9063 -0.9063 -0.4226 5667.1411 -2610.0454)">
	<stop  offset="0.3233" style="stop-color:#9E2064"/>
	<stop  offset="0.6302" style="stop-color:#C92037"/>
	<stop  offset="0.7514" style="stop-color:#CD2335"/>
	<stop  offset="1" style="stop-color:#E97826"/>
</linearGradient>
<path class="st6" d="M138.4,256.9c2.4-4.5,4.9-9,7.4-13.3c2.6-4.5,5.2-8.8,7.8-13c0.2-0.3,0.3-0.5,0.5-0.7c2.6-4.1,5.2-8.1,7.9-11.9
	l-8-15.1c-0.6,0.7-1.2,1.5-1.8,2.2c-2.3,2.9-4.7,6-7.1,9.2c-2.8,3.7-5.6,7.6-8.5,11.8c-2.7,3.8-5.4,7.8-8.1,11.9
	c-2.3,3.5-4.6,7.1-6.9,10.9c-0.1,0.1-0.2,0.3-0.3,0.4l10.4,20.5C133.9,265.5,136.1,261.1,138.4,256.9z"/>
<linearGradient id="SVGID_3_" gradientUnits="userSpaceOnUse" x1="-5136.1172" y1="3777.9529" x2="-4968.4673" y2="3777.9529" gradientTransform="matrix(0.4226 -0.9063 -0.9063 -0.4226 5667.1411 -2610.0454)">
	<stop  offset="0" style="stop-color:#282662"/>
	<stop  offset="9.548389e-02" style="stop-color:#662E8D"/>
	<stop  offset="0.7882" style="stop-color:#9F2064"/>
	<stop  offset="0.9487" style="stop-color:#CD2032"/>
</linearGradient>
<path class="st7" d="M91.1,372.5c-1.4,3.8-2.8,7.6-4.1,11.6c0,0.1,0,0.1-0.1,0.2c-0.2,0.6-0.4,1.1-0.6,1.7c-0.9,2.6-1.7,5-3.6,10.5
	c3.1,1.4,5.5,5.1,7.8,9.2c-0.3-4.3-2-8.4-5.4-11.5c15.1,0.7,28.1-3.1,34.8-14.2c0.6-1,1.1-2,1.6-3.1c-3.1,3.9-6.8,5.5-14,5.1
	c0,0,0,0,0,0c0,0,0,0,0,0c10.5-4.7,15.8-9.2,20.4-16.7c1.1-1.8,2.2-3.7,3.3-5.9c-9.2,9.4-19.8,12.1-31,10.1l-8.4,0.9
	C91.6,371,91.4,371.7,91.1,372.5z"/>
<linearGradient id="SVGID_4_" gradientUnits="userSpaceOnUse" x1="-5154.2769" y1="3808.769" x2="-4872.9395" y2="3808.769" gradientTransform="matrix(0.4226 -0.9063 -0.9063 -0.4226 5667.1411 -2610.0454)">
	<stop  offset="0.3233" style="stop-color:#9E2064"/>
	<stop  offset="0.6302" style="stop-color:#C92037"/>
	<stop  offset="0.7514" style="stop-color:#CD2335"/>
	<stop  offset="1" style="stop-color:#E97826"/>
</linearGradient>
<path class="st8" d="M95,353.7c1.8-4.7,3.7-9.4,5.6-14.2c1.8-4.6,3.7-9.2,5.7-13.8c1.9-4.6,3.9-9.3,5.9-13.9c2-4.7,4.1-9.4,6.3-14.2
	c2.1-4.6,4.3-9.3,6.4-13.8c0.8-1.7,1.6-3.3,2.4-4.9c1.4-2.8,2.8-5.6,4.2-8.4c0.1-0.2,0.2-0.3,0.2-0.4l-10.4-20.5
	c-0.2,0.3-0.3,0.6-0.5,0.8c-2.4,4-4.8,8-7.2,12.1c-2.4,4.2-4.7,8.4-7,12.7c-1.9,3.6-3.8,7.3-5.7,11c-0.4,0.8-0.7,1.5-1.1,2.2
	c-2.3,4.7-4.3,9.2-6.2,13.5c-2.1,4.9-3.9,9.6-5.6,14c-1.1,2.9-2,5.7-2.9,8.4c-0.7,2.3-1.4,4.6-2.1,6.9c-1.5,5.4-2.9,10.9-4,16.3
	L89.6,368c1.4-3.7,2.8-7.4,4.3-11.2C94.2,355.8,94.6,354.7,95,353.7z"/>
<linearGradient id="SVGID_5_" gradientUnits="userSpaceOnUse" x1="-5133.7588" y1="3804.9602" x2="-4985.9072" y2="3804.9602" gradientTransform="matrix(0.4226 -0.9063 -0.9063 -0.4226 5667.1411 -2610.0454)">
	<stop  offset="0" style="stop-color:#282662"/>
	<stop  offset="9.548389e-02" style="stop-color:#662E8D"/>
	<stop  offset="0.7882" style="stop-color:#9F2064"/>
	<stop  offset="0.9487" style="stop-color:#CD2032"/>
</linearGradient>
<path class="st9" d="M79,348.2c-1.3,6.6-2.2,13.2-2.7,19.7c0,0.2,0,0.5,0,0.7c-3.3-5.2-12-10.3-12-10.3c6.2,9.1,11,18,11.7,26.9
	c-3.3,0.7-7.9-0.3-13.2-2.3c5.5,5.1,9.7,6.5,11.3,6.8c-5.1,0.3-10.3,3.8-15.7,7.8c7.8-3.2,14.1-4.4,18.6-3.4
	c-7.1,20.2-14.3,42.5-21.4,66.2c2.2-0.6,3.5-2.1,4.2-4.1c1.3-4.3,9.7-32.4,23-69.4c0.4-1.1,0.8-2.1,1.1-3.2c0.1-0.3,0.2-0.6,0.3-0.9
	c1.4-3.9,2.8-7.8,4.4-11.9c0.3-0.9,0.7-1.8,1-2.8c0,0,0,0,0-0.1l-10.4-20.6C79.1,347.7,79,347.9,79,348.2z"/>
<linearGradient id="SVGID_6_" gradientUnits="userSpaceOnUse" x1="-5154.2769" y1="3779.6545" x2="-4872.9395" y2="3779.6545" gradientTransform="matrix(0.4226 -0.9063 -0.9063 -0.4226 5667.1411 -2610.0454)">
	<stop  offset="0.3233" style="stop-color:#9E2064"/>
	<stop  offset="0.6302" style="stop-color:#C92037"/>
	<stop  offset="0.7514" style="stop-color:#CD2335"/>
	<stop  offset="1" style="stop-color:#E97826"/>
</linearGradient>
<path class="st10" d="M133.3,271.6c-0.3,0.6-0.6,1.2-0.9,1.8c-0.9,1.9-1.8,3.7-2.7,5.7c-1,2.1-2,4.2-3,6.4c-0.5,1.1-1,2.2-1.5,3.3
	c-1.6,3.4-3.1,6.9-4.7,10.5c-2,4.4-4,9-6,13.8c-1.9,4.5-3.9,9.3-5.9,14.1c-1.9,4.6-3.8,9.4-5.7,14.3c-1.7,4.4-3.5,8.9-5.2,13.5
	c-0.1,0.2-0.2,0.5-0.3,0.7c-1.7,4.6-3.5,9.3-5.3,14.2c0,0.1-0.1,0.2-0.1,0.3l8.4-0.9c-0.2,0-0.3,0-0.5-0.1c10-1.3,23.4-8.8,32-18
	c4-4.3,7.6-9.3,10.9-15.2c2.5-4.4,4.8-9.3,7-14.6c1.9-4.7,3.8-9.8,5.6-15.3c-2.3,1.2-4.9,2.1-7.9,2.7c-0.5,0.1-1,0.2-1.6,0.3
	c-0.5,0.1-1.1,0.2-1.6,0.3l0,0l0,0c0,0,0,0,0,0c9.4-3.6,15.3-10.5,19.6-19.1c-2.5,1.7-6.5,3.9-11.3,4.9c-0.6,0.1-1.3,0.3-2,0.4
	c-0.2,0-0.3,0.1-0.5,0.1l0,0l0,0c0,0,0,0,0,0h0l0,0c3.2-1.4,6-2.9,8.4-4.7c0.5-0.4,1-0.8,1.5-1.2c0.7-0.6,1.4-1.3,2.1-2
	c0.4-0.4,0.8-0.9,1.2-1.4c0.9-1.1,1.8-2.3,2.6-3.6c0.3-0.4,0.5-0.8,0.7-1.2c0.3-0.6,0.6-1.2,0.9-1.8c1.3-2.6,2.4-5,3.2-7
	c0.4-1,0.8-2,1.1-2.9c0.1-0.4,0.2-0.7,0.4-1c0.3-1,0.6-1.9,0.8-2.6c0.3-1.2,0.5-2.1,0.6-2.7l0,0l0,0c-0.3,0.3-0.7,0.5-1.1,0.7
	c-2.8,1.7-7.7,3.2-11.6,3.9l7.7-0.9l-7.7,0.9c-0.1,0-0.1,0-0.2,0c-0.4,0.1-0.8,0.1-1.2,0.2c0.1,0,0.1-0.1,0.2-0.1l-26.4,2.9
	C133.4,271.4,133.3,271.5,133.3,271.6z"/>
<linearGradient id="SVGID_7_" gradientUnits="userSpaceOnUse" x1="-5171.7295" y1="3781.1067" x2="-4890.3916" y2="3781.1067" gradientTransform="matrix(0.4226 -0.9063 -0.9063 -0.4226 5667.1411 -2610.0454)">
	<stop  offset="0.3233" style="stop-color:#9E2064"/>
	<stop  offset="0.6302" style="stop-color:#C92037"/>
	<stop  offset="0.7514" style="stop-color:#CD2335"/>
	<stop  offset="1" style="stop-color:#E97826"/>
</linearGradient>
<path class="st11" d="M163,218.3c-2.3,3.6-4.9,7.7-7.7,12.3c-0.1,0.2-0.3,0.5-0.4,0.7c-2.4,4-4.9,8.4-7.6,13.2
	c-2.3,4.2-4.7,8.6-7.2,13.4c-2.2,4.2-4.4,8.6-6.7,13.3l26.4-2.9c7.7-3.5,11.1-6.7,14.5-11.4c0.9-1.3,1.8-2.6,2.7-4
	c2.7-4.2,5.4-8.9,7.7-13.5c2.3-4.5,4.3-8.9,5.9-12.9c1-2.5,1.8-4.9,2.3-7c0.5-1.8,0.9-3.6,1.1-5.2
	C183.7,216.2,171.1,217.9,163,218.3z"/>
<path class="st4" d="M145.9,309.2c-0.5,0.1-1.1,0.2-1.6,0.3l0,0C144.9,309.4,145.4,309.3,145.9,309.2z"/>
<path class="st5" d="M145.9,309.2c-0.5,0.1-1.1,0.2-1.6,0.3l0,0C144.9,309.4,145.4,309.3,145.9,309.2z"/>
<linearGradient id="SVGID_8_" gradientUnits="userSpaceOnUse" x1="-5154.2769" y1="3770.9924" x2="-4872.9395" y2="3770.9924" gradientTransform="matrix(0.4226 -0.9063 -0.9063 -0.4226 5667.1411 -2610.0454)">
	<stop  offset="0.3233" style="stop-color:#9E2064"/>
	<stop  offset="0.6302" style="stop-color:#C92037"/>
	<stop  offset="0.7514" style="stop-color:#CD2335"/>
	<stop  offset="1" style="stop-color:#E97826"/>
</linearGradient>
<path class="st12" d="M145.9,309.2c-0.5,0.1-1.1,0.2-1.6,0.3l0,0C144.9,309.4,145.4,309.3,145.9,309.2z"/>
<path class="st4" d="M150.1,295.7c0.2,0,0.3,0,0.5-0.1C150.5,295.7,150.3,295.7,150.1,295.7L150.1,295.7z"/>
<path class="st5" d="M150.1,295.7c0.2,0,0.3,0,0.5-0.1C150.5,295.7,150.3,295.7,150.1,295.7L150.1,295.7z"/>
<linearGradient id="SVGID_9_" gradientUnits="userSpaceOnUse" x1="-5154.2769" y1="3771.9858" x2="-4872.9395" y2="3771.9858" gradientTransform="matrix(0.4226 -0.9063 -0.9063 -0.4226 5667.1411 -2610.0454)">
	<stop  offset="0.3233" style="stop-color:#9E2064"/>
	<stop  offset="0.6302" style="stop-color:#C92037"/>
	<stop  offset="0.7514" style="stop-color:#CD2335"/>
	<stop  offset="1" style="stop-color:#E97826"/>
</linearGradient>
<path class="st13" d="M150.1,295.7c0.2,0,0.3,0,0.5-0.1C150.5,295.7,150.3,295.7,150.1,295.7L150.1,295.7z"/>
<path class="st4" d="M150.1,295.7L150.1,295.7L150.1,295.7L150.1,295.7L150.1,295.7L150.1,295.7z"/>
<path class="st5" d="M150.1,295.7L150.1,295.7L150.1,295.7L150.1,295.7L150.1,295.7L150.1,295.7z"/>
<linearGradient id="SVGID_10_" gradientUnits="userSpaceOnUse" x1="-4965.1333" y1="3772.1836" x2="-4965.1333" y2="3772.1836" gradientTransform="matrix(0.4226 -0.9063 -0.9063 -0.4226 5667.1411 -2610.0454)">
	<stop  offset="0.3233" style="stop-color:#9E2064"/>
	<stop  offset="0.6302" style="stop-color:#C92037"/>
	<stop  offset="0.7514" style="stop-color:#CD2335"/>
	<stop  offset="1" style="stop-color:#E97826"/>
</linearGradient>
<path class="st14" d="M150.1,295.7L150.1,295.7L150.1,295.7L150.1,295.7L150.1,295.7L150.1,295.7z"/>
<path class="st0" d="M217.2,438.3c-1.4,1.9-3.5,2.8-6.4,2.8c-1.2,0-2.2-0.2-3.1-0.7c-0.9-0.5-1.6-1.1-2.1-1.9
	c-0.5-0.8-0.7-1.7-0.7-2.7c0-1.5,0.6-2.7,1.7-3.6c1.1-0.9,2.8-1.4,4.8-1.4h5.7v-1c0-1.3-0.4-2.3-1.2-3s-2-1.1-3.5-1.1
	c-1.8,0-3.6,0.7-5.5,2l-1.1-1.9c1.2-0.8,2.4-1.4,3.4-1.8c1-0.4,2.3-0.6,3.7-0.6c2.1,0,3.8,0.5,5,1.6c1.2,1.1,1.7,2.5,1.8,4.4l0,11.5
	h-2.5L217.2,438.3L217.2,438.3z M215.1,437.8c1-0.7,1.7-1.7,2.1-2.9v-2.1h-5.4c-3,0-4.4,0.9-4.4,2.8c0,1,0.4,1.7,1.1,2.3
	s1.7,0.9,2.9,0.9C212.8,438.8,214.1,438.5,215.1,437.8z"/>
<path class="st0" d="M245.8,424.5c1.3,0.8,2.3,1.8,3,3.1c0.7,1.3,1.1,2.9,1.1,4.6c0,1.7-0.3,3.2-1,4.6c-0.7,1.3-1.7,2.4-2.9,3.1
	c-1.3,0.7-2.7,1.1-4.3,1.1c-1.5,0-2.9-0.3-4-1c-1.2-0.7-2.1-1.6-2.7-2.8v10.2h-2.6v-23.9h2.6v3.8c0.6-1.2,1.5-2.2,2.7-2.9
	c1.2-0.7,2.5-1,4-1C243,423.4,244.5,423.8,245.8,424.5z M244.1,437.9c0.9-0.6,1.7-1.3,2.2-2.3c0.5-1,0.8-2.1,0.8-3.3
	s-0.3-2.3-0.8-3.3s-1.3-1.7-2.2-2.3c-0.9-0.6-2-0.8-3.2-0.8c-1.2,0-2.3,0.3-3.2,0.8c-0.9,0.6-1.7,1.3-2.2,2.3
	c-0.5,1-0.8,2.1-0.8,3.3c0,1.3,0.3,2.4,0.8,3.4c0.5,1,1.3,1.7,2.2,2.3c0.9,0.6,2,0.8,3.2,0.8C242.1,438.7,243.2,438.4,244.1,437.9z"
	/>
<path class="st0" d="M271.6,438.3c-1.4,1.9-3.5,2.8-6.4,2.8c-1.2,0-2.2-0.2-3.1-0.7c-0.9-0.5-1.6-1.1-2.1-1.9
	c-0.5-0.8-0.7-1.7-0.7-2.7c0-1.5,0.6-2.7,1.7-3.6s2.8-1.4,4.8-1.4h5.7v-1c0-1.3-0.4-2.3-1.2-3c-0.8-0.7-2-1.1-3.5-1.1
	c-1.8,0-3.6,0.7-5.5,2l-1.1-1.9c1.2-0.8,2.4-1.4,3.4-1.8c1-0.4,2.3-0.6,3.7-0.6c2.1,0,3.8,0.5,5,1.6c1.2,1.1,1.7,2.5,1.8,4.4l0,11.5
	h-2.5V438.3L271.6,438.3z M269.5,437.8c1-0.7,1.7-1.7,2.1-2.9v-2.1h-5.4c-3,0-4.4,0.9-4.4,2.8c0,1,0.4,1.7,1.1,2.3s1.7,0.9,2.9,0.9
	C267.2,438.8,268.4,438.5,269.5,437.8z"/>
<path class="st0" d="M297,424.1c1.1,0.5,2.1,1.1,2.9,1.9l-1.4,1.8c-1.4-1.3-3.1-2-5.2-2c-1.2,0-2.3,0.3-3.2,0.8
	c-0.9,0.5-1.7,1.3-2.2,2.3c-0.5,1-0.8,2.1-0.8,3.3c0,1.3,0.3,2.4,0.8,3.3s1.3,1.7,2.2,2.3c0.9,0.6,2,0.8,3.2,0.8
	c1.1,0,2.2-0.2,3.1-0.6s1.7-0.9,2.3-1.7l1.5,1.6c-0.8,0.9-1.8,1.7-3,2.2c-1.2,0.5-2.5,0.8-4,0.8c-1.7,0-3.2-0.4-4.5-1.1
	c-1.3-0.7-2.3-1.8-3.1-3.1c-0.7-1.3-1.1-2.9-1.1-4.6c0-1.7,0.4-3.3,1.1-4.6c0.8-1.3,1.8-2.4,3.1-3.1c1.3-0.7,2.8-1.1,4.5-1.1
	C294.7,423.4,295.9,423.7,297,424.1z"/>
<path class="st0" d="M325.7,425.2c1.2,1.2,1.7,2.9,1.7,5v10.8h-2.6v-10.1c0-1.5-0.4-2.7-1.3-3.6c-0.9-0.9-2.1-1.3-3.6-1.3
	c-1.8,0-3.3,0.6-4.3,1.8c-1,1.2-1.6,2.7-1.6,4.6v8.6h-2.6v-24.6h2.6v11c1.1-2.6,3.4-4,6.8-4C322.9,423.4,324.6,424,325.7,425.2z"/>
<path class="st0" d="M352.8,426.1c1.4,1.7,2,4.1,1.9,7.2h-14.2c0.2,1.7,0.9,3.1,2,4.1c1.1,1,2.6,1.5,4.3,1.5c1.1,0,2.1-0.2,3-0.6
	s1.7-0.9,2.4-1.6l1.4,1.5c-0.8,0.9-1.9,1.6-3.1,2.2c-1.2,0.5-2.5,0.8-4,0.8c-1.7,0-3.2-0.4-4.5-1.1c-1.3-0.7-2.3-1.8-3.1-3.1
	c-0.7-1.3-1.1-2.9-1.1-4.6c0-1.7,0.4-3.3,1.1-4.6c0.7-1.3,1.8-2.4,3.1-3.1c1.3-0.7,2.8-1.1,4.5-1.1
	C349.4,423.4,351.4,424.3,352.8,426.1z M350.7,427.1c-1.1-1-2.4-1.5-4.1-1.5c-1.7,0-3,0.5-4.1,1.5c-1.1,1-1.7,2.3-2,4h11.9
	C352.3,429.4,351.7,428.1,350.7,427.1z"/>
<path class="st0" d="M366.9,438.3c0.3,0.3,0.5,0.7,0.5,1.2c0,0.5-0.2,0.9-0.5,1.2c-0.3,0.3-0.7,0.5-1.1,0.5c-0.5,0-0.9-0.2-1.2-0.5
	c-0.3-0.3-0.5-0.7-0.5-1.2c0-0.5,0.2-0.9,0.5-1.2c0.3-0.3,0.7-0.5,1.2-0.5C366.2,437.8,366.6,437.9,366.9,438.3z"/>
<path class="st0" d="M390.3,424.5c1.3,0.7,2.4,1.8,3.1,3.1c0.8,1.3,1.1,2.8,1.1,4.5c0,1.7-0.4,3.3-1.1,4.6c-0.8,1.3-1.8,2.4-3.1,3.1
	c-1.3,0.8-2.9,1.1-4.6,1.1c-1.7,0-3.2-0.4-4.6-1.1c-1.3-0.8-2.4-1.8-3.1-3.1c-0.8-1.3-1.1-2.9-1.1-4.6c0-1.7,0.4-3.2,1.1-4.5
	c0.8-1.3,1.8-2.4,3.1-3.1c1.3-0.7,2.9-1.1,4.6-1.1C387.4,423.4,389,423.8,390.3,424.5z M382.5,426.6c-1,0.6-1.7,1.3-2.2,2.3
	s-0.8,2.1-0.8,3.3c0,1.3,0.3,2.4,0.8,3.4c0.5,1,1.3,1.7,2.2,2.3c1,0.6,2,0.8,3.2,0.8c1.2,0,2.3-0.3,3.2-0.8c1-0.6,1.7-1.3,2.2-2.3
	s0.8-2.1,0.8-3.4s-0.3-2.4-0.8-3.3c-0.5-1-1.3-1.7-2.2-2.3c-1-0.6-2-0.8-3.2-0.8C384.5,425.8,383.5,426.1,382.5,426.6z"/>
<path class="st0" d="M410.6,424.4c1.1-0.7,2.3-1,3.8-1v2.6c-1.8,0-3.3,0.5-4.4,1.5c-1.1,1-1.7,2.4-1.9,4.2v9.3h-2.6v-17.4h2.6v3.9
	C408.7,426.1,409.5,425.1,410.6,424.4z"/>
<path class="st0" d="M439.5,439.1c0,1.7-0.4,3.1-1.1,4.4c-0.7,1.3-1.8,2.2-3.1,2.9s-2.8,1-4.6,1c-2.6,0-5-0.9-7.1-2.5l1.2-2
	c0.9,0.7,1.8,1.3,2.7,1.6c0.9,0.4,2,0.6,3.1,0.6c1.9,0,3.4-0.5,4.6-1.6c1.1-1.1,1.7-2.5,1.7-4.3v-2.6c-0.6,1.2-1.5,2.1-2.6,2.7
	c-1.1,0.6-2.4,0.9-3.8,0.9c-1.5,0-2.9-0.4-4.1-1.1c-1.2-0.7-2.1-1.7-2.8-3c-0.7-1.3-1-2.7-1-4.4c0-1.6,0.3-3.1,1-4.3s1.6-2.2,2.8-3
	c1.2-0.7,2.6-1.1,4.1-1.1c1.5,0,2.8,0.3,3.9,0.9c1.1,0.6,2,1.5,2.6,2.7v-3.5h2.6L439.5,439.1L439.5,439.1z M434,437.2
	c0.9-0.5,1.6-1.3,2.1-2.2c0.5-0.9,0.8-2,0.8-3.1c0-1.2-0.3-2.3-0.8-3.2c-0.5-0.9-1.2-1.7-2.1-2.2c-0.9-0.5-1.9-0.8-3.1-0.8
	c-1.1,0-2.2,0.3-3.1,0.8c-0.9,0.5-1.6,1.3-2.1,2.2c-0.5,0.9-0.8,2-0.8,3.2c0,1.2,0.3,2.2,0.8,3.2c0.5,0.9,1.2,1.7,2.1,2.2
	c0.9,0.5,1.9,0.8,3.1,0.8C432.1,438,433.1,437.7,434,437.2z"/>
</svg>
