<svg class="svg-icon" style="width: 1em;height: 1em;vertical-align: middle;fill: currentColor;overflow: hidden;" viewBox="0 0 1024 1024" version="1.1" xmlns="http://www.w3.org/2000/svg"><path d="M512.014 81.858c-237.562 0-430.14 192.594-430.14 430.15 0 237.556 192.578 430.134 430.14 430.134 237.55 0 430.128-192.58 430.128-430.134-0.002-237.556-192.58-430.15-430.128-430.15z" fill="#EDF3FC" /><path d="M512.014 2C230.792 2 2 230.788 2 512.006 2 793.218 230.792 1022 512.014 1022 793.22 1022 1022 793.218 1022 512.006 1022 230.788 793.22 2 512.014 2z m0 1003.66C239.8 1005.66 18.342 784.208 18.342 512.006 18.342 239.798 239.8 18.34 512.014 18.34c272.196 0 493.644 221.458 493.644 493.666 0 272.202-221.45 493.654-493.644 493.654z" fill="#EDF3FC" /><path d="M607.284 242.154a287.232 287.232 0 0 0-11.846-3.776 9.996 9.996 0 0 0-12.422 6.758 9.998 9.998 0 0 0 6.758 12.422c3.69 1.09 7.398 2.272 11.022 3.516a10 10 0 0 0 6.488-18.92zM694.188 289.914a10 10 0 0 0-12.484 15.626 273.94 273.94 0 0 1 16.19 14.01 9.958 9.958 0 0 0 6.834 2.702 9.998 9.998 0 0 0 6.836-17.298 293.264 293.264 0 0 0-17.376-15.04z m-31.426-21.878a290.472 290.472 0 0 0-20.146-11.08 10 10 0 0 0-8.934 17.896 270.436 270.436 0 0 1 18.756 10.312 9.994 9.994 0 0 0 13.726-3.4 10 10 0 0 0-3.402-13.728z m118.302 136.812a290.48 290.48 0 0 0-9.712-20.826 10 10 0 1 0-17.776 9.168c3.26 6.32 6.302 12.844 9.044 19.388a9.998 9.998 0 1 0 18.444-7.73z m-29.47-53.622a293.298 293.298 0 0 0-13.862-18.328 10 10 0 0 0-15.464 12.684 272.41 272.41 0 0 1 12.912 17.07 9.988 9.988 0 0 0 13.92 2.494 10 10 0 0 0 2.494-13.92zM796.482 453.214a287.44 287.44 0 0 0-2.98-12.074 10 10 0 0 0-19.308 5.22c0.998 3.688 1.93 7.466 2.774 11.228a10 10 0 0 0 11.944 7.572 10.002 10.002 0 0 0 7.57-11.946zM244.532 435.006a10.002 10.002 0 0 0-12.236 7.088c-1.06 3.974-2.048 8.04-2.94 12.084a10 10 0 1 0 19.532 4.304c0.83-3.762 1.748-7.544 2.732-11.238a10 10 0 0 0-7.088-12.238zM273.742 370.238a10 10 0 0 0-13.63 3.772 290.396 290.396 0 0 0-12.46 24.672 10 10 0 1 0 18.26 8.154 270.476 270.476 0 0 1 11.602-22.97 10 10 0 0 0-3.772-13.628z m30.396-55.108a294.112 294.112 0 0 0-18.24 20.752 10 10 0 0 0 15.628 12.48 273.678 273.678 0 0 1 16.994-19.334 10 10 0 0 0-14.382-13.898z m71.09-42.706a10 10 0 0 0-13.75-3.302 292.546 292.546 0 0 0-22.848 15.538 10 10 0 1 0 12.018 15.986 272.72 272.72 0 0 1 21.28-14.472 9.996 9.996 0 0 0 3.3-13.75zM426.962 249.766a10.002 10.002 0 0 0-12.804-6 287.28 287.28 0 0 0-11.596 4.482 10.002 10.002 0 0 0 3.808 19.25c1.268 0 2.556-0.242 3.8-0.756a268.74 268.74 0 0 1 10.79-4.17 9.996 9.996 0 0 0 6.002-12.806z" fill="#330D84" /><path d="M244.532 435.006a10.002 10.002 0 0 0-12.236 7.088c-1.06 3.974-2.048 8.04-2.94 12.084a10 10 0 1 0 19.532 4.304c0.83-3.762 1.748-7.544 2.732-11.238a10 10 0 0 0-7.088-12.238zM273.742 370.238a10 10 0 0 0-13.63 3.772 290.396 290.396 0 0 0-12.46 24.672 10 10 0 1 0 18.26 8.154 270.476 270.476 0 0 1 11.602-22.97 10 10 0 0 0-3.772-13.628z m30.396-55.108a294.112 294.112 0 0 0-18.24 20.752 10 10 0 0 0 15.628 12.48 273.678 273.678 0 0 1 16.994-19.334 10 10 0 0 0-14.382-13.898z m71.09-42.706a10 10 0 0 0-13.75-3.302 292.546 292.546 0 0 0-22.848 15.538 10 10 0 1 0 12.018 15.986 272.72 272.72 0 0 1 21.28-14.472 9.996 9.996 0 0 0 3.3-13.75zM426.962 249.766a10.002 10.002 0 0 0-12.804-6 287.28 287.28 0 0 0-11.596 4.482 10.002 10.002 0 0 0 3.808 19.25c1.268 0 2.556-0.242 3.8-0.756a268.74 268.74 0 0 1 10.79-4.17 9.996 9.996 0 0 0 6.002-12.806zM430.552 774.67a268.502 268.502 0 0 1-10.942-3.76 10.002 10.002 0 0 0-6.906 18.772 290.22 290.22 0 0 0 11.758 4.04 10.006 10.006 0 0 0 6.09-19.052zM282.8 659.04a10.002 10.002 0 0 0-17.016 10.512 292.652 292.652 0 0 0 13.542 20.002 9.988 9.988 0 0 0 8.048 4.054 10 10 0 0 0 8.034-15.946 271.58 271.58 0 0 1-12.608-18.622z m102.632 96.512a271.24 271.24 0 0 1-19.364-11.44 10.002 10.002 0 0 0-10.882 16.782 291.59 291.59 0 0 0 20.8 12.29 10 10 0 0 0 13.536-4.09 10.004 10.004 0 0 0-4.09-13.542z m-65.714-49.366a10 10 0 0 0-14.292 13.99 293.624 293.624 0 0 0 17.592 16.546 9.964 9.964 0 0 0 6.54 2.438 10 10 0 0 0 6.548-17.562 274.102 274.102 0 0 1-16.388-15.412zM265.344 625.858a269.594 269.594 0 0 1-4.432-10.69 10 10 0 0 0-18.638 7.26 295.028 295.028 0 0 0 4.76 11.48 10.002 10.002 0 0 0 18.31-8.05zM776.76 613.19a9.996 9.996 0 0 0-13.028 5.502 267.506 267.506 0 0 1-4.582 10.624 10.002 10.002 0 0 0 18.192 8.314 291.754 291.754 0 0 0 4.922-11.414 10 10 0 0 0-5.504-13.026zM650.022 750.264a271.21 271.21 0 0 1-20.862 11.08 10 10 0 0 0-4.726 13.328 9.996 9.996 0 0 0 13.328 4.728 291.876 291.876 0 0 0 22.404-11.9 10 10 0 0 0 3.546-13.69 9.996 9.996 0 0 0-13.69-3.546z m104.026-89.396a10 10 0 0 0-13.83 2.958 272.096 272.096 0 0 1-13.696 19.254 10 10 0 0 0 15.776 12.292 292.568 292.568 0 0 0 14.708-20.674 9.996 9.996 0 0 0-2.958-13.83z m-53.898 51.43a272.896 272.896 0 0 1-17.752 15.592 10 10 0 0 0 12.532 15.586 293.23 293.23 0 0 0 19.06-16.74 10 10 0 0 0-13.84-14.438zM604.96 782.248a10.006 10.006 0 0 0-12.494-6.628 268.03 268.03 0 0 1-11.13 3.154 10 10 0 1 0 5.036 19.356c4.002-1.042 8.026-2.18 11.964-3.39a9.998 9.998 0 0 0 6.624-12.492z" fill="#330D84" /><path d="M725.6 502.632h98.042v98.04H725.6z" fill="#FFE37B" /><path d="M847.07 475.44l-23.43 27.192v98.04l23.56-36.018V475.44z" fill="#EFAB11" /><path d="M749.022 475.44L725.6 502.632h98.04l23.43-27.192z" fill="#FFBE1B" /><path d="M404.026 453.214h167.514v167.512h-167.514z" fill="#8AC9F9" /><path d="M611.542 406.76l-40.002 46.454v167.514l40.238-61.544V406.76z" fill="#5D8EF9" /><path d="M444.03 406.76l-40.004 46.454h167.514l40.002-46.454z" fill="#6DC5F2" /><path d="M292.118 520.904h111.908v20h-111.908zM497.284 304.698h20v102.064h-20zM497.284 620.728h20v103.898h-20zM611.778 520.904H725.6v20h-113.822z" fill="#330D84" /><path d="M447.106 206.656h98.042v98.042h-98.042z" fill="#FFE37B" /><path d="M568.576 179.464l-23.43 27.192v98.042l23.56-36.02V179.464z" fill="#EFAB11" /><path d="M470.528 179.464l-23.422 27.192h98.04l23.43-27.192z" fill="#FFBE1B" /><path d="M447.106 751.816h98.042v98.042h-98.042z" fill="#FFE37B" /><path d="M568.576 724.626l-23.43 27.19v98.042l23.56-36.018v-89.214z" fill="#EFAB11" /><path d="M470.528 724.626l-23.422 27.19h98.04l23.43-27.19z" fill="#FFBE1B" /><path d="M170.518 502.632h98.04v98.04h-98.04z" fill="#FFE37B" /><path d="M291.988 475.44l-23.432 27.192v98.04l23.562-36.018V475.44z" fill="#EFAB11" /><path d="M193.94 475.44l-23.422 27.192h98.038l23.432-27.192z" fill="#FFBE1B" /><path d="M753.598 247.154a53.778 53.778 0 0 1-39.08-39.088l-0.83-3.292-0.814 3.292a53.798 53.798 0 0 1-39.096 39.088l-3.278 0.822 3.278 0.822a53.784 53.784 0 0 1 39.096 39.09l0.814 3.282 0.83-3.282a53.764 53.764 0 0 1 39.08-39.09l3.292-0.822-3.292-0.822zM818.082 308.772a34.15 34.15 0 0 1-24.816-24.8l-0.52-2.08-0.518 2.08a34.126 34.126 0 0 1-24.812 24.8l-2.072 0.518 2.072 0.534a34.102 34.102 0 0 1 24.812 24.8l0.518 2.08 0.52-2.08a34.13 34.13 0 0 1 24.816-24.8l2.07-0.534-2.07-0.518z" fill="#330D84" /><path d="M395.01 823.064a49.19 49.19 0 0 1-35.778-35.784l-0.768-3-0.756 3a49.174 49.174 0 0 1-35.79 35.784l-3.002 0.762 3.002 0.754a49.168 49.168 0 0 1 35.79 35.782l0.756 3.008 0.768-3.008a49.172 49.172 0 0 1 35.778-35.782l3.016-0.754-3.016-0.762z" fill="#FFBE1B" /><path d="M395.8 406.196a36.4 36.4 0 0 1-26.46-26.46l-0.548-2.216-0.566 2.216a36.372 36.372 0 0 1-26.458 26.46l-2.218 0.556 2.218 0.564a36.362 36.362 0 0 1 26.458 26.454l0.566 2.224 0.548-2.224a36.39 36.39 0 0 1 26.46-26.454l2.224-0.564-2.224-0.556zM445.856 361.77a23.406 23.406 0 0 1-17-17.002l-0.35-1.424-0.368 1.424a23.368 23.368 0 0 1-16.998 17.002l-1.424 0.358 1.424 0.366a23.368 23.368 0 0 1 16.998 16.992l0.368 1.432 0.35-1.432a23.402 23.402 0 0 1 17-16.992l1.434-0.366-1.434-0.358z" fill="#5D8EF9" /></svg>