<?xml version="1.0" encoding="utf-8"?>
<!-- Generator: Adobe Illustrator 25.0.0, SVG Export Plug-In . SVG Version: 6.00 Build 0)  -->
<svg version="1.0" id="Layer_1" xmlns="http://www.w3.org/2000/svg" xmlns:xlink="http://www.w3.org/1999/xlink" x="0px" y="0px"
	 viewBox="0 0 512 512" style="enable-background:new 0 0 512 512;" xml:space="preserve">
<g>
	<g>
		<path style="fill:#231F20;" d="M460,262.8c0,0.2-2,0.3-5.8,0.5c-3.8,0.1-9.5,0.2-16.7,0.3c-7.3,0.1-16.2,0.1-26.5,0.2
			c-2.6,0-5.2,0-8,0c-1.4,0-2.8,0-4.2,0c-0.7,0-1.4,0-2.1,0l-0.5,0l-0.4,0c-0.3,0-0.5,0.1-0.8,0.2c-1,0.4-1.9,1.2-2.3,2.3
			c-0.1,0.3-0.1,0.5-0.2,0.8l0,0.4l0,0.6c0,0.8,0,1.5,0,2.3c0,3.1,0,6.3,0,9.5c0,6.5,0,13.3,0,20.4l0,0.7l0,0.4c0,0.2,0,0.3,0,0.5
			c-0.1,0.7-0.3,1.3-0.7,1.8c-0.7,1.1-2.1,1.8-3.4,1.7c-1.8,0-3.6,0-5.5,0c-3.7,0-7.4,0-11.2,0c-7.6,0-15.5,0-23.7,0
			c-4.1,0-8.2,0-12.4,0c-1,0-2.1,0-3.1,0l-1.6,0l-0.8,0l-0.4,0l-0.3,0c-1.5,0.1-2.9,1.3-3.2,2.8c0,0.2-0.1,0.4-0.1,0.6
			c0,0.2,0,0.5,0,0.8l0,1.6c0,1.1,0,2.2,0,3.2c0,2.2,0,4.4,0,6.5c0,4.4,0,8.8,0,13.3c0,2.2,0,4.5,0,6.8c0,1.1,0,2.3,0,3.4l0,0.9
			c0,0.3,0,0.5,0,1c-0.1,0.9-0.4,1.7-1,2.3c-0.6,0.7-1.3,1.1-2.2,1.3c-0.2,0.1-0.4,0.1-0.6,0.1l-0.3,0l-0.2,0l-0.9,0
			c-1.2,0-2.3,0-3.5,0c-2.3,0-4.6,0-7,0c-9.3,0-18.8,0-28.5,0c-4.8,0-9.7,0-14.6,0c-2.4,0-4.9,0-7.3,0h-0.9c-0.3,0-0.5,0-0.7,0.1
			c-0.4,0.1-0.8,0.2-1.2,0.5c-0.7,0.5-1.3,1.2-1.5,2c-0.1,0.2-0.1,0.4-0.1,0.6l0,0.3v0.5v1.9c0,1.2,0,2.5,0,3.7c0,2.5,0,4.9,0,7.3
			c0,4.9,0,9.7,0,14.5c0,2.4,0,4.8,0,7.2l0,0.9c0,0.3,0,0.9-0.2,1.3c-0.3,0.9-0.8,1.6-1.5,2.2c-0.7,0.6-1.6,0.8-2.5,0.9l-1.8,0
			c-4.7,0-9.4,0-14.1,0c-18.6,0-36.6,0-53.7,0c-1.1,0-2.1,0-3.2,0l-1.6,0c-0.5,0-1.1,0-1.4,0c-1.5,0.1-2.8,1.4-3.1,2.8
			c0,0.2-0.1,0.4-0.1,0.6c0,0.2,0,0.5,0,0.7l0,1.6c0,1,0,2.1,0,3.1c0,2.1,0,4.1,0,6.1c0,4.1,0,8.1,0,12c0,1,0,2,0,2.9l0,1.5
			c0,0.7-0.2,1.5-0.6,2.1c-0.7,1.3-2.2,2-3.6,2c-1,0-1.9,0-2.9,0c-15.2,0-29.4-0.1-42.3-0.1c-25.9-0.1-46.8-0.2-61.3-0.4
			c-7.2-0.1-12.9-0.2-16.7-0.3c-3.8-0.1-5.8-0.3-5.8-0.5c0-0.2,2-0.3,5.9-0.5c3.8-0.1,9.5-0.3,16.8-0.4c14.6-0.2,35.6-0.4,61.7-0.5
			c13,0,27.3-0.1,42.5-0.1l1.4,0l0.7,0c0.1,0,0.3,0,0.4-0.1c0.5-0.1,0.9-0.5,1-1c0-0.1,0-0.3,0.1-0.4l0-0.7l0-1.5c0-1,0-2,0-2.9
			c0-3.9,0-8,0-12c0-2,0-4.1,0-6.1c0-1,0-2.1,0-3.1c0-0.5,0-1,0-1.6c0-0.7,0.2-1.3,0.4-2c0.5-1.3,1.3-2.4,2.5-3.1
			c0.6-0.4,1.2-0.6,1.8-0.8c0.3-0.1,0.7-0.1,1-0.2l0.5,0l0.4,0c2.1,0,4.3,0,6.4,0c17.2,0,35.2,0,53.9,0c4.7,0,9.4,0,14.1,0l0.4,0
			c0.2,0,0.3,0,0.4,0c0.1,0,0.3,0,0.4-0.1c0.3-0.1,0.5-0.3,0.7-0.6c0.1-0.1,0.1-0.3,0.2-0.4c0-0.2,0-0.2,0-0.6l0-1.8
			c0-2.4,0-4.8,0-7.2c0-4.8,0-9.7,0-14.6c0-2.4,0-4.9,0-7.4c0-1.2,0-2.5,0-3.7l0-0.9l0-0.5c0-0.2,0-0.4,0-0.6
			c0.1-0.8,0.3-1.6,0.7-2.3c0.7-1.4,2-2.5,3.6-3c0.4-0.1,0.8-0.2,1.2-0.3c0.2,0,0.4,0,0.6-0.1c0.2,0,0.4,0,0.5,0l1.8,0
			c2.5,0,4.9,0,7.3,0c4.9,0,9.7,0,14.5,0c9.6,0,19.1,0,28.4,0c2.3,0,4.6,0,7,0c1.2,0,2.3,0,3.5,0c0.6,0,1.1-0.4,1.3-0.9
			c0.1-0.1,0.1-0.3,0.1-0.4c0,0,0-0.2,0-0.4l0-0.4l0-1.7c0-1.1,0-2.3,0-3.4c0-2.3,0-4.5,0-6.8c0-4.5,0-8.9,0-13.3c0-2.2,0-4.4,0-6.5
			c0-1.1,0-2.2,0-3.2l0-0.8c0-0.3,0-0.5,0-0.9c0-0.7,0.2-1.4,0.4-2c0.5-1.3,1.4-2.4,2.6-3.1c0.6-0.3,1.2-0.6,1.9-0.8
			c0.6-0.1,1.4-0.2,1.9-0.1c2.1,0,4.2,0,6.3,0c4.2,0,8.3,0,12.3,0c8.1,0,16,0,23.6,0c3.8,0,7.5,0,11.2,0c0.9,0,1.8,0,2.7,0l1.4,0
			l0.7,0c0.2,0,0.3,0,0.4,0c0.5-0.1,0.9-0.5,1.1-0.9c0-0.1,0.1-0.2,0.1-0.4c0-0.1,0-0.2,0-0.5l0-1.3c0-7.1,0-13.8,0.1-20.3
			c0-3.2,0-6.4,0-9.5c0-0.8,0-1.5,0-2.3c0-0.9,0.2-1.8,0.6-2.7c0.8-1.7,2.3-2.9,4.1-3.3c0.4-0.1,0.9-0.2,1.3-0.2l1.1,0
			c0.7,0,1.4,0,2.1,0c1.4,0,2.8,0,4.2,0c2.7,0,5.4,0,8,0.1c10.3,0.1,19.1,0.2,26.3,0.3c7.2,0.1,12.8,0.2,16.6,0.4
			C458.1,262.4,460,262.6,460,262.8z"/>
	</g>
	<g>
		<g>
			<path style="fill:#FFFFFF;" d="M74,401.3c0,0-8.9,11.5-9.2,15.4c-0.3,3.9,0,5.1,2.1,5.1s28.6,7.4,28.6,7.4s3.5-0.5,3.2-2.9
				C98.3,424,84,412.3,84,412.3l3.6-8.9"/>
			<g>
				<path style="fill:#231F20;" d="M65.3,421.7c-0.3,0.1-0.8-0.2-1.2-1.2c-0.4-0.9-0.7-2.4-0.4-4.2c0.2-1.8,1-3.8,2.2-5.7
					c1.1-1.9,2.6-3.8,3.9-5.8c5.3-8,7.1-15.7,8.4-15.3c0.7,0.2,0.5,2.2-0.4,5.4c-1,3.1-2.9,7.3-5.6,11.5c-1.4,2.1-2.8,3.9-3.9,5.6
					c-1.1,1.7-1.8,3.3-2.1,4.7C65.4,419.6,66,421.4,65.3,421.7z"/>
			</g>
			<g>
				<path style="fill:#231F20;" d="M83.5,413c-1.3-0.4-0.5-3.2,0.7-6.8c1.2-3.6,2.3-6.3,3.6-5.8c1.3,0.5,0.3,3.4-0.9,6.8
					C85.8,410.6,84.9,413.4,83.5,413z"/>
			</g>
			<g>
				<path style="fill:#231F20;" d="M96,428.5c0.1-0.1,0.3-0.2,0.4-0.3c0.1-0.1,0.2-0.2,0.3-0.3c0.1-0.1,0.2-0.3,0.4-0.5
					c0.1-0.2,0.2-0.5,0.2-0.7c0-0.1,0-0.1,0-0.1c0-0.1,0-0.2-0.1-0.2c-0.1-0.2-0.1-0.3-0.3-0.5c-0.2-0.4-0.7-0.8-1.2-1.3
					c-1.1-1-2.4-2.1-3.7-3.3c-5.3-4.7-9.6-8.4-8.7-9.4c0.9-1,5.3,2.6,10.6,7.3c1.3,1.2,2.5,2.2,3.7,3.3c1.2,1.1,2.4,2.7,2,4.6
					c-0.2,0.9-0.7,1.5-1.2,1.9c-0.5,0.4-1.1,0.6-1.6,0.5c-0.5,0-0.8-0.3-1-0.5C95.9,428.8,95.9,428.6,96,428.5z"/>
			</g>
			<g>
				<path style="fill:#231F20;" d="M97.5,424.2c0.1-0.1,0.3-0.1,0.6,0.1c0.3,0.1,0.6,0.4,0.9,0.9c0.3,0.5,0.6,1.4,0.3,2.4
					c-0.2,0.5-0.4,1-0.8,1.4c-0.2,0.2-0.4,0.4-0.6,0.5c-0.1,0.1-0.2,0.2-0.3,0.2c-0.1,0.1-0.3,0.2-0.5,0.3c-0.2,0.1-0.4,0.2-0.6,0.2
					c-0.2,0-0.4,0-0.6-0.1c-0.3-0.1-0.6-0.1-0.8-0.2c-0.5-0.1-0.9-0.2-1.4-0.3c-1-0.2-2-0.5-3.1-0.7c-2.2-0.5-4.6-1.1-7.1-1.8
					c-10.1-2.5-18.3-4.4-18-5.8c0.3-1.4,8.6,0.5,18.7,3c2.5,0.6,4.9,1.2,7.1,1.8c1.1,0.3,2.1,0.6,3.1,0.8c0.5,0.1,0.9,0.3,1.4,0.4
					c0.6,0.2,0.4,0.2,0.6,0.2c0,0,0.2-0.1,0.3-0.1c0.1-0.1,0.2-0.1,0.3-0.2c0.2-0.2,0.3-0.3,0.4-0.5c0.2-0.3,0.2-0.7,0.2-1.1
					C97.4,425,97.2,424.4,97.5,424.2z"/>
			</g>
			<g>
				<path style="fill:#231F20;" d="M84.3,412.9c0.1,1.3-3.8,1.7-8.5,0.4c-1.2-0.3-2.3-0.8-3.3-1.3c-1-0.6-1.8-1.2-2.3-1.9
					c-1.1-1.4-1.1-2.7-0.4-2.9c0.7-0.1,1.2,0.4,2.2,1.2c1,0.8,2.5,1.6,4.5,2.2C80.6,411.7,84.2,411.4,84.3,412.9z"/>
			</g>
		</g>
		<g>
			<path style="fill:#FFFFFF;" d="M186.3,373.2c0,0-5.7,16-3.8,19.2c2,3.2,28.3,5.3,32.4,3.5c4.1-1.8,1.7-5.1,0.5-5.1
				s-16.2-6.8-16.2-6.8l1.8-10.1C201,373.8,188.9,368.2,186.3,373.2z"/>
			<g>
				<path style="fill:#FFFFFF;" d="M188.3,370.9c-4.3,6.2-5,11.4-5.7,18.9c-0.1,0.8-0.1,1.6,0.4,2.2c0.4,0.5,1.1,0.7,1.8,0.9
					c9.2,2.2,18.6,3.4,28,3.3c1.1,0,2.3-0.1,3.3-0.6c1-0.5,1.7-1.8,1.3-2.8c-0.3-0.8-1-1.2-1.7-1.7c-5.1-3.2-10.6-3.5-16.5-6.7
					c0.3-1.8,1-7.1,1.3-8.8"/>
				<g>
					<path style="fill:#231F20;" d="M200.6,375.6c0.3,0.1,0.4,1.3,0.3,3.6c-0.1,1.1-0.2,2.5-0.4,4.1l0,0.3c0,0,0,0,0,0
						c0,0,0,0.1,0,0.1c0.1,0.1,0.2,0.1,0.3,0.1c0.8,0.3,1.6,0.7,2.5,1c1.8,0.7,3.9,1.2,6.2,2c2.3,0.7,4.8,1.7,7.2,3.2
						c0.6,0.4,1.4,0.9,1.9,2.1c0.5,1.2,0.2,2.5-0.4,3.3c-0.5,0.9-1.5,1.5-2.4,1.8c-0.9,0.3-1.8,0.4-2.5,0.4c-3,0.1-6,0-9.1-0.2
						c-6.2-0.4-12-1.3-17.2-2.5c-0.7-0.1-1.3-0.3-1.9-0.4c-0.3-0.1-0.6-0.2-1-0.2c-0.3-0.1-0.7-0.2-1.2-0.4
						c-0.4-0.2-0.9-0.6-1.2-1.1c-0.3-0.5-0.5-1-0.5-1.4c-0.1-0.9,0-1.6,0.1-2.1c0.2-2.4,0.5-4.6,0.9-6.6c0.8-4.1,2.2-7.2,3.5-9.1
						c1.3-1.9,2.3-2.8,2.5-2.6c0.3,0.2-0.2,1.4-1.1,3.4c-0.9,2-2,5-2.5,8.8c-0.3,1.9-0.5,4.1-0.7,6.4c-0.1,0.6-0.1,1.1,0,1.4
						c0.1,0.3,0,0.2,0.4,0.4c0.3,0.1,1,0.3,1.6,0.4c0.6,0.1,1.3,0.3,1.9,0.4c5.1,1.1,10.8,2,16.9,2.4c3,0.2,6,0.3,8.8,0.2
						c0.7,0,1.2-0.1,1.7-0.3c0.1,0,0.2-0.1,0.3-0.1c0.1,0,0.2-0.1,0.2-0.1c0.1-0.1,0.3-0.3,0.4-0.4c0.2-0.3,0.2-0.5,0.1-0.6
						c-0.1-0.2-0.4-0.5-0.9-0.8c-2.1-1.4-4.3-2.2-6.5-3c-2.2-0.7-4.3-1.4-6.2-2.2c-0.5-0.2-0.9-0.4-1.4-0.6
						c-0.5-0.2-0.9-0.4-1.3-0.7c-0.3-0.2-0.6-0.3-1-0.5l-0.5-0.2c-0.1,0-0.2-0.1-0.2-0.1l0-0.3c0.1-0.7,0.3-1.6,0.3-1.9
						c0.3-1.6,0.6-2.9,0.8-4C199.8,376.7,200.2,375.5,200.6,375.6z"/>
				</g>
			</g>
			<g>
				<path style="fill:#231F20;" d="M199.4,384.8c0.1,1.3-3.7,1.7-8.4,1c-2.3-0.4-4.5-1.1-5.9-2.1c-1.4-1-1.9-2.2-1.3-2.6
					c0.6-0.3,1.3,0,2.5,0.5c1.2,0.5,3,1,5.1,1.4C195.7,383.6,199.3,383.3,199.4,384.8z"/>
			</g>
		</g>
		<g>
			<path style="fill:#231F20;" d="M218,380.6c0.1,0.2-0.3,0.4-1.1,0.9c-0.8,0.4-1.9,0.9-3.5,1.3c-1.6,0.4-3.6,0.8-6,0.7
				c-2.3,0-5-0.3-7.8-1.1c-2.8-0.7-5.8-1.8-8.9-3c-1.6-0.6-3.2-1.3-4.8-2c-1.6-0.7-3.3-1.4-5.1-2.2c-1.7-0.8-3.6-1.8-5.2-3.4
				c-0.8-0.8-1.5-1.8-2-2.8c-0.5-1.1-0.8-2.2-0.9-3.4c-0.2-2.3,0.3-4.6,1-6.7c0.7-2.1,1.5-4.1,2.4-6.1c3.6-8,7.9-15.1,10.9-21.8
				c1.4-3.3,2.3-6.7,2.9-9.8c0.6-3.2,1.1-6.2,1.3-9c0.6-5.6,0.6-10.1,0.4-13.2c-0.1-3.1-0.4-4.8,0-4.9c0.3-0.1,1.1,1.6,1.6,4.8
				c0.5,3.2,0.8,7.9,0.4,13.6c-0.2,2.9-0.6,6-1.2,9.3c-0.6,3.3-1.5,6.9-3.1,10.5c-3.1,7-7.4,14.1-10.8,21.8c-1.6,3.9-3.4,7.8-3,11.4
				c0.2,1.7,0.9,3.2,2.1,4.4c1.2,1.2,2.8,2.1,4.4,2.8c6.8,3,12.9,5.9,18.2,7.4c2.6,0.8,5.1,1.2,7.2,1.3c2.2,0.2,4,0,5.6-0.2
				c1.5-0.2,2.7-0.4,3.5-0.6C217.5,380.5,217.9,380.5,218,380.6z"/>
		</g>
		<g>
			<path style="fill:#231F20;" d="M104.3,398c-0.6-0.2,1.5-7,6-17.4c2.3-5.2,5.3-11.3,8.9-17.9c1.8-3.3,3.7-6.7,5.6-10.3
				c2-3.6,4-7.2,6.2-11c4.2-7.5,8.3-14.7,11.9-21.2c0.9-1.6,1.8-3.2,2.7-4.8c0.9-1.5,1.8-3,2.6-4.4c1.6-2.9,3-5.6,4.2-8.1
				c4.8-10.1,6.9-16.7,7.6-16.5c0.3,0.1,0.1,1.9-0.8,5c-0.9,3.1-2.3,7.5-4.7,12.7c-1.2,2.6-2.5,5.4-4.1,8.4c-0.8,1.5-1.7,3-2.6,4.5
				c-0.9,1.6-1.7,3.1-2.6,4.8c-3.6,6.5-7.7,13.7-11.9,21.2c-2.1,3.8-4.2,7.4-6.1,11c-2,3.6-3.9,7-5.7,10.2
				c-3.6,6.5-6.7,12.4-9.1,17.5C107.7,391.9,105,398.3,104.3,398z"/>
		</g>
		<g>
			<path style="fill:#231F20;" d="M217.8,381.1c-0.4,0-0.3-2.1-0.3-5.8c0.1-3.7,0.1-9,0.5-15.6c0.1-1.7,0.2-3.4,0.4-5.2
				c0.2-1.8,0.4-3.6,0.6-5.6c0.4-3.8,0.6-8,1.1-12.4c0.2-2.2,0.5-4.4,0.9-6.7c0.4-2.2,0.8-4.5,1.2-6.9c0.7-4.6,1.2-9.5,1-14.4
				c0-0.6,0-1.2,0-1.8c0-0.6-0.1-1.2-0.2-1.8c-0.1-1.2-0.2-2.4-0.4-3.6c-0.4-2.3-0.7-4.7-1.5-6.9c-0.2-0.6-0.3-1.1-0.5-1.7l-0.2-0.8
				l-0.3-0.8c-0.4-1.1-0.8-2.1-1.2-3.1l-0.3-0.8l-0.4-0.7c-0.2-0.5-0.5-1-0.7-1.5c-0.5-1-0.9-2-1.5-2.8c-4.3-7.3-10-12.7-15-16.7
				c-2.7-1.8-5-3.7-7.2-4.9c-2.2-1.3-4.1-2.6-5.7-3.4c-3.2-1.7-4.9-2.9-4.8-3.2c0.1-0.3,2.1,0.3,5.6,1.7c1.8,0.6,3.8,1.8,6.1,3
				c2.4,1.2,4.8,3,7.7,4.8c5.4,4,11.4,9.6,16,17.3c2.1,3.9,4.2,8.2,5.4,13c0.7,2.3,1,4.8,1.5,7.3c0.1,1.2,0.2,2.5,0.4,3.8
				c0.2,1.3,0.2,2.5,0.2,3.8c0.2,5.1-0.4,10.1-1.1,14.9c-0.4,2.3-0.8,4.6-1.2,6.9c-0.4,2.2-0.7,4.4-0.9,6.5
				c-0.5,4.3-0.8,8.4-1.2,12.3c-0.2,1.9-0.4,3.8-0.7,5.6c-0.2,1.7-0.4,3.4-0.5,5.1c-0.5,6.5-0.8,11.8-1.3,15.5
				C218.7,379.2,218.2,381.2,217.8,381.1z"/>
		</g>
		<g>
			<path style="fill:#231F20;" d="M104,395.1c0.2,0,0.4,0.6,0.5,1.9c0.1,1.2,0.3,3.1,0,5.5c-0.1,1.2-0.4,2.5-1,4
				c-0.6,1.4-1.5,2.9-2.9,4.1c-1.4,1.2-3.4,2-5.5,2.1c-2.1,0.1-4.2-0.3-6.2-1c-2.1-0.7-4.1-1.5-6.2-2.4c-2.1-0.9-4.2-2-6.4-3.3
				c-2.1-1.3-4.3-2.8-6.3-4.7c-1-0.9-1.9-1.9-2.8-3.1c-0.9-1.2-1.6-2.7-1.8-4.4c-0.1-1.7,0.2-3.2,0.6-4.6c0.4-1.4,0.7-2.8,1.2-4.2
				c0.2-0.7,0.5-1.4,0.7-2.1c0.3-0.7,0.5-1.4,0.8-2.1c0.5-1.4,1.1-2.8,1.7-4.1c2.4-5.5,5.3-11,8.5-16.5c6.4-10.9,13.1-20.9,19.1-30
				c6-9.1,11.2-17.4,15.1-24.6c4-7.1,6.7-13.2,8.3-17.4c1.6-4.2,2.4-6.7,2.7-6.6c0.3,0.1,0.1,2.7-1.2,7.2
				c-1.3,4.5-3.8,10.8-7.7,18.2c-3.9,7.4-9.1,15.8-15,25c-5.9,9.2-12.7,19.1-19,30c-3.1,5.4-6,10.8-8.3,16.2c-0.6,1.3-1.1,2.7-1.6,4
				c-0.5,1.3-1,2.7-1.4,4c-0.8,2.6-1.8,5.4-1.6,7.5c0.2,2.1,2.1,4,3.8,5.7c1.8,1.7,3.8,3.1,5.8,4.3c2,1.2,4.1,2.3,6.1,3.2
				c2,0.9,4,1.8,5.8,2.4c1.9,0.6,3.7,1,5.3,1c1.7,0,3.1-0.6,4.3-1.5c1.1-0.9,1.9-2,2.5-3.2c0.5-1.2,0.9-2.4,1.1-3.5
				c0.5-2.2,0.5-4,0.7-5.2C103.7,395.7,103.8,395.1,104,395.1z"/>
		</g>
		<path style="fill:#231F20;" d="M123.1,259.9c0,0-1.4,15,0.5,25l-6.8,15.7c0,0-11.9,22.7-17.8,31.3s-22.5,33.9-24.5,38.3
			s-9.2,20.7-7.4,24.5c1.8,3.8,8.2,9.1,11.6,11.2c3.5,2.1,13.5,6.5,17.4,5.1c3.9-1.4,4.8-1.5,6.5-5.6c1.7-4.1,2-8.2,2-8.2l13-27.5
			l24.2-44l14.7-27.5l3.8-11.2l30.9,7c0,0,0.9,0.9,1.2,4.4c0.3,3.5,1.7,20.1-4.7,34.9c0,0-14.1,26-13.5,33.4
			c0.6,7.4,18.8,11.8,18.8,11.8s7.3,3.3,12.4,3.8c5.1,0.5,10.6,0.2,12.6-1.8c0,0,1.8-34.8,3.8-40.2c2-5.4,3.6-30.7,3-37.7
			c-0.6-7-8.6-25.9-13.6-30.4c-5-4.5-19.7-15.7-26.8-17.5c-7.2-1.8-7-5.3-15.8-5.2C159.6,249.6,123.1,259.9,123.1,259.9z"/>
	</g>
	<g>
		<path style="fill:#FFDEBD;" d="M226.6,215.4c0,0,14.8-7.3,16.5-6.8c1.7,0.6,2.3,1.9,2.3,1.9s3.2-0.8,4.7,2.7c0,0,5.6,2.4,4.6,4.8
			c-1.1,2.3-2.8,6.8-4.7,5.1c-1.4-1.3-0.5-3.9,0-5c0.1-0.2-0.1-0.3-0.3-0.2c-1.5,0.8-6.2,3-8.4,3.2l-2.1,1.4c0,0,1.6,0.8,3.1,1.1
			c1.5,0.2,6.6-1.3,6.6,2c0,3.2-7.5,2.3-7.5,2.3s-11.8,3.2-16.7-1.4"/>
		<g>
			<path style="fill:#231F20;" d="M224.9,226.2c0.1-0.1,0.6,0,1.2,0.3c0.4,0.1,0.8,0.3,1.3,0.5c0.5,0.1,1.1,0.3,1.8,0.4
				c1.4,0.2,3.1,0.3,5.2,0.1c1-0.1,2.1-0.2,3.2-0.4c0.6-0.1,1.2-0.2,1.8-0.3c0.3-0.1,0.6-0.1,0.9-0.2l0.5-0.1l0.7-0.2l0.5,0.1l0.2,0
				l0.5,0c0.3,0,0.7,0,1,0c0.7,0,1.4,0,2-0.1c0.6-0.1,1.3-0.3,1.6-0.5c0.2-0.1,0.2-0.2,0.2-0.2c0,0,0-0.1,0-0.1c0-0.1,0-0.2,0-0.2
				c-0.1-0.1,0-0.1-0.1-0.2c-0.1-0.1-0.3-0.2-0.6-0.2c-0.6-0.1-1.4-0.1-2.2,0c-0.5,0-0.9,0.1-1.4,0.1c-0.3,0-0.5,0-0.9,0
				c-0.3,0-0.5-0.1-0.8-0.2c-1-0.3-1.9-0.6-2.9-1.1l-2.2-1.1l2-1.4c0.4-0.3,0.7-0.5,1.1-0.8l0.6-0.4l0.4-0.3
				c0.1-0.1,0.2-0.1,0.3-0.2l0.3,0c0.2,0,0.4,0,0.5-0.1l0.3-0.1c0.2,0,0.4-0.1,0.6-0.1c0.4-0.1,0.8-0.2,1.2-0.4
				c0.8-0.3,1.7-0.6,2.5-1l0.8-0.4l1.3-0.6l0.7-0.3l0.3-0.2c0.1,0,0.2,0,0.3,0c0.2,0,0.3,0,0.5,0l0.3,0.1c0.1,0,0.1,0.1,0.2,0.1
				c0.1,0,0.1,0.1,0.3,0.2c0.3,0.2,0.2,0.2,0.3,0.4c0.1,0.2,0.4,0.7,0.1,1.5c-0.2,0.5-0.3,0.9-0.5,1.3l-0.1,0.6c0,0.2,0,0.2,0,0.3
				c0,0.3,0,0.6,0,0.8c0.1,0.2,0.1,0.3,0.2,0.4c0,0,0,0,0,0l0,0l-0.1,0.1c0,0.1,0,0.1-0.1,0.1c-0.1,0.2,0,0.2-0.1,0
				c0-0.1-0.1-0.3-0.1-0.2c0,0,0,0,0.1,0c0.1,0,0.1-0.1,0.2-0.2c0.2-0.2,0.4-0.5,0.6-0.8c0.4-0.6,0.7-1.3,1-1.9
				c0.2-0.4,0.3-0.7,0.5-1l0.2-0.5c0,0,0-0.1,0.1-0.1l0,0c0,0,0,0,0,0c-0.1,0,0,0-0.1-0.2c-0.1-0.2-0.3-0.4-0.5-0.6
				c-0.4-0.4-1-0.8-1.5-1.1c-0.3-0.2-0.6-0.3-0.9-0.5l-0.4-0.2l-0.4-0.2l-0.5-0.2l-0.5-1c-0.1-0.1-0.2-0.3-0.3-0.4
				c-0.2-0.2-0.4-0.5-0.7-0.6c-0.2-0.2-0.5-0.3-0.8-0.3c-0.1,0-0.3-0.1-0.4-0.1c-0.1,0-0.1,0-0.2,0c-0.1,0-0.3,0-0.5,0
				c-0.3-0.1-0.5-0.2-0.8-0.4l-0.4-0.2l-0.2-0.1l-0.1-0.1l-0.1-0.1c-0.1-0.2-0.2-0.2-0.2-0.3c0,0-0.1-0.1-0.1-0.1
				c-0.2-0.2-0.4-0.3-0.6-0.5c-0.1-0.1-0.3-0.1-0.3-0.2c0,0,0,0,0,0c-0.1,0-0.5,0.1-0.8,0.2c-1.3,0.4-2.5,0.8-3.7,1.3
				c-2.4,0.9-4.4,1.8-6.1,2.5c-3.4,1.4-5.4,2-5.6,1.6c-0.2-0.4,1.5-1.6,4.8-3.3c1.6-0.9,3.6-1.9,6-3c1.2-0.5,2.4-1.1,3.9-1.5
				c0.4-0.1,0.7-0.2,1.3-0.3c0.3,0,0.7,0,1,0.1c0.3,0.1,0.5,0.2,0.7,0.3c0.4,0.2,0.8,0.5,1.2,0.8c0.1,0.1,0.2,0.2,0.3,0.3l0.2,0.2
				c0,0,0,0,0,0l0,0c0.1,0,0.1,0,0.2,0c0.1,0,0.3,0,0.4,0c0.3,0,0.6,0.1,0.8,0.1c0.6,0.1,1.1,0.4,1.6,0.7c0.5,0.3,1,0.7,1.3,1.2
				c0.2,0.2,0.3,0.5,0.5,0.7l0.1,0.2c0,0,0,0,0,0l0,0l0,0l0.1,0l0.5,0.3c0.3,0.2,0.7,0.4,1,0.6c0.7,0.4,1.4,0.9,2,1.5
				c0.3,0.3,0.7,0.7,0.9,1.2c0.3,0.5,0.5,1.2,0.4,2c0,0.2-0.1,0.4-0.1,0.6l-0.1,0.3l-0.1,0.1l-0.2,0.5c-0.2,0.4-0.3,0.7-0.5,1.1
				c-0.3,0.7-0.7,1.5-1.2,2.3c-0.2,0.4-0.5,0.8-0.9,1.2c-0.4,0.4-0.8,0.9-1.7,1.1c-0.4,0.1-1,0.1-1.4-0.1c-0.2-0.1-0.4-0.2-0.6-0.3
				c-0.2-0.1-0.3-0.2-0.4-0.4c-0.5-0.5-0.8-1.1-1-1.7c-0.2-0.6-0.2-1.2-0.1-1.7l0-0.3l0,0l0,0v0l0,0l-0.6,0.3
				c-0.9,0.4-1.8,0.7-2.7,1.1c-0.5,0.2-0.9,0.3-1.4,0.4c-0.3,0.1-0.5,0.1-0.8,0.2l-0.4,0.1l-0.1,0l0,0l-0.1,0.1l-0.6,0.4
				c-0.4,0.3-0.7,0.5-1.1,0.7l-0.2-2.4c0.7,0.3,1.5,0.7,2.2,0.8c0.2,0,0.4,0.1,0.5,0.1c0.1,0,0.3,0,0.4,0c0.4,0,0.8-0.1,1.3-0.1
				c0.9-0.1,1.8-0.1,2.9,0.1c0.5,0.1,1.1,0.3,1.7,0.7c0.6,0.4,1.1,1.1,1.2,1.8c0.1,0.3,0.1,0.6,0.1,1c0,0.4-0.1,0.7-0.2,1
				c-0.3,0.7-0.8,1.2-1.3,1.5c-1,0.6-1.9,0.8-2.8,0.9c-0.9,0.1-1.7,0.1-2.4,0.1c-0.4,0-0.8,0-1.2-0.1l-0.6,0l-0.3,0c0,0,0,0-0.1,0
				l0,0l-0.3,0.1l-0.5,0.1c-0.3,0.1-0.7,0.1-1,0.2c-0.6,0.1-1.3,0.2-1.9,0.3c-1.2,0.1-2.4,0.2-3.5,0.2c-2.2,0-4.1-0.2-5.7-0.7
				c-0.8-0.2-1.4-0.5-2-0.8c-0.5-0.3-1-0.6-1.3-0.9C225,226.7,224.8,226.4,224.9,226.2z"/>
		</g>
	</g>
	<g>
		<g>
			<path style="fill:#FFDEBD;" d="M85.2,241.6L73,247.7c0,0-17.8-0.5-16.2,2.8c1.5,3.3,11,2.7,11,2.7s-8.5,8.5-8.1,11.6
				c0.3,1.9,1.9,1.4,3.2,0.8c0.3-0.2,0.6,0.1,0.5,0.5c-0.3,0.7-0.3,1.6,0.5,2.4c1.8,1.6,7.2-1.6,15.2-6.8c0.7-0.4,1.6-0.1,1.8,0.7
				l0.5,2.1c0,0-2.1,3.7,1,6.2s3.3-4.3,3.3-4.3s4.5-9,4.6-12c0-3,3.4-7.6,3.4-7.6"/>
			<g>
				<path style="fill:#231F20;" d="M93.9,246.9c0.2,0.1,0,0.6-0.4,1.5c-0.4,0.9-1.1,2.2-1.6,3.8c-0.1,0.4-0.2,0.8-0.3,1.3
					c0,0.2-0.1,0.4-0.1,0.6c0,0.3,0,0.6,0,0.8c-0.1,1.3-0.5,2.5-0.9,3.8c-0.4,1.3-1,2.6-1.5,4c-0.3,0.7-0.6,1.4-0.9,2.1
					c-0.3,0.6-0.6,1.3-0.9,1.9l0,0l0,0.1l0,0.4c0,0.3-0.1,0.6-0.1,0.9c-0.1,0.6-0.2,1.2-0.4,1.8c-0.1,0.3-0.2,0.6-0.4,1
					c-0.1,0.2-0.3,0.4-0.4,0.6c-0.1,0.2-0.4,0.4-0.6,0.6c-0.4,0.3-1,0.5-1.5,0.4c-0.3,0-0.5-0.1-0.8-0.2c-0.1,0-0.3-0.1-0.4-0.1
					l-0.3-0.2c-0.2-0.1-0.4-0.2-0.6-0.4l-0.4-0.4c-0.3-0.2-0.5-0.6-0.8-0.9c-0.4-0.7-0.8-1.4-0.9-2.2c-0.2-0.8-0.1-1.6,0-2.3
					c0.1-0.4,0.2-0.7,0.3-1.1c0.1-0.2,0.1-0.4,0.2-0.5c0,0,0,0,0,0c-0.1-0.4-0.2-0.9-0.3-1.3c0,0,0,0,0,0c-1.3,0.9-2.7,1.7-4.1,2.6
					c-1.5,0.9-3,1.8-4.6,2.7c-0.8,0.4-1.6,0.8-2.5,1.2c-0.9,0.4-1.8,0.7-3.1,0.8c-0.4,0-0.7,0-1.1-0.1c-0.2-0.1-0.4-0.1-0.6-0.2
					c-0.2-0.1-0.4-0.2-0.6-0.4c-0.2-0.1-0.3-0.3-0.4-0.4c-0.1-0.1-0.2-0.3-0.3-0.4c-0.2-0.3-0.4-0.7-0.5-1.1l0-0.1c0,0,0-0.2,0-0.1
					c0,0,0,0,0,0l0,0l0,0l0,0l0,0l-0.1,0c-0.3,0.1-0.7,0.1-1,0c-0.7-0.1-1.5-0.5-1.9-1.1c-0.2-0.3-0.4-0.7-0.5-1
					c-0.1-0.3-0.1-0.6-0.1-1c0-0.6,0.2-1.1,0.3-1.6c0.7-1.7,1.6-2.9,2.5-4.2c0.9-1.2,1.9-2.4,2.8-3.4l0.6-0.6c0,0,0,0,0,0l0,0l0,0
					c0,0,0,0,0,0l-0.2,0l-0.4,0c-0.3,0-0.5,0-0.8-0.1c-0.5,0-1-0.1-1.5-0.2c-1-0.2-2-0.4-3-0.8l-0.8-0.3c-0.3-0.1-0.5-0.3-0.8-0.5
					c-0.1-0.1-0.2-0.2-0.4-0.3l-0.4-0.4c-0.3-0.3-0.5-0.7-0.8-1.1c-0.1-0.2-0.1-0.4-0.1-0.5c0-0.2-0.1-0.4-0.1-0.6
					c0-0.2,0-0.4,0.1-0.6l0.1-0.3l0.2-0.2l0.2-0.2l0.2-0.2c0.1-0.1,0.3-0.3,0.5-0.4l0.5-0.3c0.2-0.1,0.3-0.1,0.4-0.2
					c0.9-0.4,1.8-0.5,2.6-0.7c1.7-0.3,3.2-0.4,4.7-0.5c1.5-0.1,2.9-0.1,4.3-0.1c0.7,0,1.4,0,2,0c0.3,0,0.6,0,1,0l0.5,0l0.1,0l0,0
					l0,0c1.8-0.8,3.5-1.6,4.9-2.3c1.5-0.7,2.9-1.3,3.9-1.7c2.2-0.9,3.4-1.3,3.6-1c0.1,0.3-0.9,1.1-2.9,2.3c-1,0.6-2.3,1.3-3.7,2.2
					c-0.7,0.4-1.5,0.8-2.4,1.3c-0.9,0.5-1.9,1-2.9,1.6c-0.4,0-0.8,0-1.2,0c-0.3,0-0.6,0-0.9,0c-0.6,0-1.3,0-2,0.1
					c-1.3,0-2.7,0.1-4.2,0.2c-1.4,0.1-2.9,0.3-4.4,0.5c-0.7,0.1-1.5,0.3-2.1,0.6c-0.2,0.1-0.1,0.1-0.2,0.1c0,0,0,0,0,0
					c0,0,0,0.1,0,0.1c0,0,0,0,0,0c0,0,0.1,0,0.1,0.1c0,0,0.1,0.1,0.2,0.1c0.1,0.1,0.3,0.2,0.4,0.3l0.5,0.2c0.7,0.3,1.6,0.5,2.5,0.6
					c0.4,0.1,0.9,0.1,1.4,0.1c0.2,0,0.5,0,0.7,0.1l0.9,0l1.5,0c0.5,0,1.1,0,1.6-0.1c1.1-0.1,2.2-0.1,3.3-0.2c-1,1-2,2.1-3.1,3.1
					c-0.5,0.5-1,1-1.4,1.5l-0.9,1c-0.9,1.1-1.8,2.1-2.7,3.3c-0.8,1.1-1.6,2.3-2.1,3.4c-0.1,0.3-0.1,0.5-0.1,0.6c0,0,0,0,0,0.1
					c0,0,0,0.1,0,0.1c0,0,0,0,0,0l0,0c0,0,0,0,0.1,0l0,0c0,0,0.1,0,0.1,0c0.1,0,0.2-0.1,0.3-0.1c0.2-0.1,0.4-0.1,0.6-0.2
					c0.4-0.2,0.8-0.2,1.1-0.2c0.3,0.1,0.5,0.1,0.8,0.3c0.1,0.1,0.3,0.2,0.4,0.4c0.1,0.1,0.1,0.2,0.2,0.3c0.1,0.2,0.2,0.5,0.2,1.1
					c-0.1,0.3-0.2,0.5-0.2,0.8c0,0,0,0,0,0.1c0,0,0.1,0.1,0.1,0.2c0,0,0.1,0.1,0.1,0.1c0,0,0,0,0,0c0,0,0,0,0,0c0,0,0,0,0.1,0
					c0.1,0,0.2,0,0.3,0c0.6-0.1,1.4-0.3,2.1-0.6c0.7-0.3,1.5-0.7,2.2-1.1c1.5-0.8,2.9-1.7,4.4-2.5c1.5-0.9,2.9-1.8,4.3-2.7
					c0.7-0.4,1.4-0.5,2.1-0.3c0.7,0.2,1.3,0.7,1.6,1.4c0.1,0.2,0.1,0.3,0.2,0.5l0.1,0.4l0.1,0.6c0.1,0.5,0.3,1.1,0.4,1.6l-0.4,0.8
					c0,0.1-0.1,0.2-0.1,0.3c-0.1,0.2-0.1,0.5-0.2,0.7c-0.1,0.5-0.1,0.9,0,1.3c0.1,0.4,0.2,0.8,0.4,1.1c0.1,0.2,0.2,0.3,0.4,0.5
					l0.2,0.2l0.2,0.1c0.2,0.1,0.1,0.1,0.1,0.1c0,0,0.1,0,0.1,0c0,0,0,0,0.1-0.1c0.1-0.1,0.2-0.3,0.2-0.5c0.1-0.4,0.3-0.9,0.3-1.4
					c0-0.2,0.1-0.5,0.1-0.7l0-0.4l0-0.3l0-0.4c0.4-0.8,0.8-1.6,1.2-2.3c0.3-0.7,0.7-1.4,1-2c0.6-1.3,1.2-2.6,1.6-3.8
					c0.5-1.2,0.9-2.3,1-3.2l0.1-0.3c0-0.2,0-0.3,0.1-0.5c0-0.3,0.1-0.6,0.2-0.9c0.2-0.5,0.3-1,0.6-1.5c0.8-1.8,1.7-2.9,2.4-3.7
					C93.3,247.1,93.7,246.8,93.9,246.9z"/>
			</g>
		</g>
		<g>
			<path style="fill:#231F20;" d="M73.2,256.8c0.9,1.1-1.6,3.1-4.6,5.7c-3,2.6-5.4,4.7-6.3,3.7c-0.9-1.1,1.4-3.3,4.5-5.9
				C69.8,257.7,72.3,255.8,73.2,256.8z"/>
		</g>
	</g>
	<path style="fill:#FFFFFF;" d="M160.1,152.4c0,0-19.6,5.3-23.8,18.9L110.8,197c0,0-24,30.6-26.8,38.7l-1.5,3.4c0,0,6,9.4,15.3,11.1
		l0.8,0.4c0,0,6.6-13.6,15.3-19.6l6-4.7c0,0-5.1,21.9-3.2,30.2c0,0,0.6,2.5,5.1,2.8s15.5,1.7,22.9-1.3c7.4-3,18.1-9.6,38.4-3.6
		l0.9,0.2l1.5-31.7c0,0,18.7,11.9,40.8,9.4c0,0,2.6-11.3,0.9-19.6c0,0-33.8-9.3-43.6-22.5c0,0-3.8-27.8-4.9-30.2
		C177.5,157.5,160.1,152.4,160.1,152.4z"/>
	<g>
		<g>
			<path style="fill:#FFFFFF;" d="M335.3,83.7c-28.5-0.2-62.8-0.5-91.2,2.1c-0.8,0.1-1.7,0.2-2.3,0.7c-1.2,0.9-1.1,2.7-0.9,4.1
				c3.6,28.8,4.7,66,3.2,95c-0.1,1.6-0.1,3.4,1.1,4.4c0.9,0.7,2.1,0.8,3.3,0.8c29.1,0,58.2-1.7,87.2-5.3
				C336.3,154.2,336.2,115,335.3,83.7"/>
			<g>
				<path style="fill:#231F20;" d="M335.4,83.7c0.2,0,0.5,2.6,0.8,7.4c0.3,4.8,0.5,11.8,0.8,20.8c0.2,8.9,0.4,19.8,0.4,32.2
					c0,6.2,0,12.8,0,19.7c0,3.5-0.1,7-0.1,10.6c-0.1,4-0.1,8.2-0.2,12.4c-2.1,0.3-4.3,0.5-6.5,0.8c-1.8,0.2-3.5,0.4-5.3,0.6
					c-3.6,0.4-7.2,0.8-11,1.1c-7.4,0.7-15.1,1.3-22.9,1.7c-7.9,0.5-15.9,0.8-24.1,1c-4.1,0.1-8.3,0.2-12.4,0.2c-2.1,0-4.2,0-6.3,0
					c-0.5,0-1.1,0-1.8-0.1c-0.6-0.1-1.4-0.3-2.1-0.8c-0.7-0.5-1.2-1.1-1.5-1.8c-0.3-0.7-0.4-1.4-0.5-2c-0.1-1,0-1.9,0-2.7l0.1-2.5
					c0.1-1.7,0.1-3.3,0.2-5c0.1-3.3,0.2-6.6,0.2-9.9c0.1-6.5,0.1-13,0-19.3c-0.2-12.7-0.8-24.9-1.7-36.5c-0.4-5.8-1-11.5-1.6-16.9
					c-0.2-1.4-0.3-2.7-0.5-4.1c-0.1-0.7-0.1-1.5,0-2.4c0.1-0.8,0.5-1.9,1.3-2.6c0.9-0.7,1.9-0.9,2.6-1c0.7-0.1,1.4-0.1,2-0.2
					c1.3-0.1,2.6-0.2,3.9-0.3c10.4-0.8,20.1-1.1,28.9-1.3c17.7-0.4,31.9-0.2,41.8,0c9.9,0.2,15.3,0.5,15.3,0.9
					c0,0.3-5.5,0.6-15.4,0.7c-9.9,0.2-24.3,0.3-42,0.8c-8.8,0.3-18.5,0.7-28.9,1.6c-1.3,0.1-2.6,0.2-3.9,0.3
					c-0.7,0.1-1.4,0.1-1.8,0.2c-0.5,0.1-0.7,0.2-0.9,0.5c-0.2,0.2-0.3,0.7-0.3,1.2c0,0.5,0,1.1,0.1,1.8c0.2,1.4,0.3,2.7,0.5,4.1
					c0.6,5.5,1.2,11.2,1.6,17.1c0.9,11.7,1.5,24,1.7,36.8c0.1,6.4,0.1,12.9,0,19.5c-0.1,3.3-0.1,6.6-0.3,9.9c0,1.7-0.1,3.3-0.2,5
					l-0.1,2.5c0,0.8,0,1.6,0.1,2.2c0.2,0.8,0.4,1.1,1,1.3c0.6,0.2,1.5,0.2,2.6,0.2c2.1,0,4.2,0,6.2,0c4.1,0,8.2-0.1,12.3-0.2
					c8.1-0.2,16.1-0.6,23.9-1c7.8-0.5,15.3-1,22.7-1.7c3.7-0.3,7.3-0.7,10.8-1.1c3.2-0.4,6.3-0.7,9.3-1c0.1-3.4,0.1-6.7,0.2-10
					c0.1-3.6,0.1-7.2,0.2-10.6c0.1-6.9,0.1-13.5,0.2-19.7c0.1-12.4,0.1-23.2,0.1-32.1c0-8.9,0-16,0-20.8
					C335,86.3,335.2,83.7,335.4,83.7z"/>
			</g>
		</g>
		<g>
			<path style="fill:#231F20;" d="M343.6,184.7c-0.7-0.1-0.5-5.7-0.4-14.9c0.2-9.2,0.2-21.9,0-35.9c-0.2-14-0.7-26.7-0.8-35.8
				c-0.2-9.2,0-14.9,0.6-14.9c0.7,0,1.3,5.7,1.8,14.9c0.5,9.2,1,21.9,1.2,36c0.2,14,0.1,26.7-0.4,35.9
				C345.2,179.1,344.3,184.7,343.6,184.7z"/>
		</g>
		<g>
			<path style="fill:#231F20;" d="M260.4,151c0-1.4,13.3-1.7,29.8-2.7c16.4-1.1,29.7-2.5,29.8-1.1c0.1,1.4-13.3,2.9-29.8,4
				C273.8,152.2,260.4,152.4,260.4,151z"/>
		</g>
		<g>
			<path style="fill:#231F20;" d="M260,133.9c0-1.4,13.3-1.7,29.8-2.7c16.4-1.1,29.7-2.5,29.8-1.1c0.1,1.4-13.3,2.9-29.8,4
				C273.4,135.1,260,135.3,260,133.9z"/>
		</g>
		<g>
			<path style="fill:#231F20;" d="M257.7,170.2c0-1.4,13.6-1.7,30.3-2.1c16.7-0.4,30.2-0.9,30.3,0.5c0,1.4-13.6,1.9-30.3,2.3
				C271.2,171.4,257.7,171.6,257.7,170.2z"/>
		</g>
	</g>
	<g>
		<path style="fill:#231F20;" d="M116.7,257.9c-0.7,0.1-1.3-1.7-1.6-4.7c-0.3-3-0.1-7.1,0.5-11.5c0.6-4.4,1.3-8.4,2-11.3
			c0.7-2.8,1.5-4.5,2.1-4.3c1.4,0.3-0.2,7.3-1.3,16c-0.5,4.3-0.8,8.2-0.8,11.1C117.4,256,117.4,257.8,116.7,257.9z"/>
	</g>
	<g>
		<path style="fill:#231F20;" d="M183.8,254.4c-0.7-0.1-0.3-5.1,0.1-13.2c0.2-4,0.3-8.8,0.3-14.2c0-5.3-0.2-11.2-0.5-17.4
			c-1.4-24.7-5.8-44.2-4.3-44.5c1.3-0.3,5.8,19.6,7.2,44.5c0.3,6.2,0.5,12.1,0.4,17.5c-0.1,5.4-0.3,10.2-0.7,14.3
			C185.6,249.6,184.4,254.5,183.8,254.4z"/>
	</g>
	<g>
		<path style="fill:#231F20;" d="M184,254.8c-0.3,0.7-3.9-0.5-10-0.9c-3.1-0.2-6.8-0.2-10.9-0.1c-4,0-8,1.5-12.5,3.3
			c-2.2,0.9-4.5,1.8-6.8,2.4c-2.3,0.6-4.5,0.9-6.6,1.1c-4.2,0.5-8.1,0.5-11.3,0.1c-3.2-0.3-5.8-1.1-7.5-1.9
			c-0.8-0.4-1.4-0.8-1.8-1.2c-0.4-0.3-0.5-0.6-0.4-0.7c0.2-0.3,1.1,0,2.8,0.4c1.7,0.4,4.1,0.8,7.2,0.9c3.1,0.1,6.8,0,10.8-0.5
			c2-0.3,4.2-0.6,6.2-1.1c2.1-0.6,4.2-1.4,6.4-2.3c2.2-0.9,4.4-1.8,6.7-2.4c1.1-0.3,2.3-0.6,3.4-0.8c1.1-0.2,2.3-0.2,3.3-0.3
			c4.2-0.1,8,0,11.1,0.4c3.2,0.4,5.7,1,7.4,1.7C183.3,253.9,184.1,254.5,184,254.8z"/>
	</g>
	<g>
		<path style="fill:#231F20;" d="M82.4,238.5c-0.6-0.3,1.5-5.3,5.9-12.9c1.1-1.9,2.4-3.9,3.8-6.1c1.4-2.2,3-4.4,4.7-6.7
			c3.4-4.7,7.4-9.6,11.8-14.6c8.8-10,17.4-18.4,23.8-24.2c6.4-5.8,10.7-9.1,11.1-8.6c0.5,0.5-3.3,4.4-9.5,10.5
			c-6.2,6.1-14.7,14.5-23.4,24.4c-4.3,5-8.2,9.9-11.6,14.4c-1.7,2.3-3.3,4.5-4.7,6.6c-1.5,2.1-2.7,4-3.9,5.8
			C85.7,234.2,83.1,238.8,82.4,238.5z"/>
	</g>
	<g>
		<path style="fill:#231F20;" d="M98.3,251.5c-0.3-0.1-0.1-1.3,0.7-3.3c0.8-2,2.3-4.8,4.5-7.9c2.2-3.1,5.3-6.5,9-9.9
			c3.7-3.4,8-6.8,12.6-10.3c4.6-3.4,8.9-6.7,12.7-9.7c3.8-3.1,7-6,9.6-8.7c5.1-5.3,7.5-9.1,8.2-8.7c0.5,0.3-1.4,4.7-6.5,10.5
			c-2.5,2.9-5.8,6-9.7,9.2c-3.8,3.2-8.2,6.5-12.8,9.9c-4.5,3.4-8.8,6.8-12.4,10c-3.6,3.3-6.6,6.5-8.9,9.3
			C100.9,247.5,99.1,251.8,98.3,251.5z"/>
	</g>
	<g>
		<path style="fill:#231F20;" d="M98.5,250.9c-0.3,0.6-1.5,0.4-3.4-0.2c-0.9-0.3-2-0.7-3.3-1.1c-1.2-0.5-2.6-1-4.1-1.7
			c-1.5-0.7-2.9-1.8-3.8-3c-1-1.2-1.5-2.5-1.8-3.5c-0.1-0.5-0.2-1-0.3-1.4c-0.1-0.4-0.1-0.8,0-1.1c0-0.6,0.2-1,0.6-1
			c0.3-0.1,0.7,0.2,1,0.7c0.2,0.2,0.3,0.5,0.5,0.9c0.2,0.3,0.4,0.7,0.6,1.1c0.5,0.8,0.9,1.8,1.7,2.6c0.7,0.9,1.7,1.6,2.9,2.2
			c1.2,0.6,2.6,1.1,3.8,1.6c1.2,0.5,2.3,1,3.2,1.5C97.9,249.4,98.8,250.3,98.5,250.9z"/>
	</g>
	<g>
		<path style="fill:#231F20;" d="M227.8,212.3c-0.1,0.7-3,0.5-7.4-0.4c-4.5-1-10.5-2.9-16.9-5.9c-3.2-1.5-6.1-3.1-8.7-4.7
			c-2.5-1.7-4.8-3.3-6.5-4.8c-3.5-3-5.2-5.3-4.7-5.8c0.5-0.5,2.7,1.3,6.3,3.9c1.8,1.3,4,2.8,6.5,4.3c2.5,1.5,5.3,3.1,8.4,4.5
			c6.1,2.9,12,4.7,16.3,6C225.3,210.8,228,211.6,227.8,212.3z"/>
	</g>
	<g>
		<path style="fill:#231F20;" d="M226.3,232.6c0,0.7-2.4,1-6.3,1.1c-3.9,0-9.3-0.1-15.3-1.3c-5.9-1.2-11.1-3.3-14.5-5.2
			c-3.5-1.9-5.2-3.7-4.9-4.2c0.4-0.6,2.5,0.5,6,2c3.5,1.5,8.3,3.5,14,4.6c5.6,1.1,10.9,1.3,14.7,1.6
			C223.9,231.5,226.3,231.9,226.3,232.6z"/>
	</g>
	<g>
		<path style="fill:#231F20;" d="M226,232.9c-0.7-0.2-0.6-1.4-0.3-3.3c0.3-1.9,1-4.4,0.9-7c-0.1-1.4-0.3-2.8-0.4-4
			c-0.1-1.3-0.2-2.5-0.2-3.4c0-2,0.4-3.2,1.1-3.2c0.7,0,1.1,1.2,1.4,3.1c0.2,0.9,0.3,2.1,0.5,3.3c0.2,1.2,0.4,2.6,0.5,4.2
			c0.1,1.6-0.1,3.1-0.4,4.4c-0.3,1.3-0.6,2.4-1,3.4C227.4,232.1,226.6,233.1,226,232.9z"/>
	</g>
	<g>
		<path style="fill:#231F20;" d="M195.5,294.1c-0.3,1.4-14.5-2-32-6c-4.4-1-8.6-1.9-12.4-3.3c-3.8-1.4-7-3.5-9.1-5.8
			c-2.2-2.3-3.3-4.7-3.7-6.4c-0.4-1.7-0.2-2.7,0.1-2.8c0.4,0,0.7,0.8,1.4,2.2c0.7,1.4,1.9,3.4,3.9,5.2c2,1.9,4.9,3.7,8.4,4.9
			c3.5,1.3,7.7,2.2,12.1,3.2C181.8,289.4,195.9,292.7,195.5,294.1z"/>
	</g>
	<g>
		<path style="fill:#231F20;" d="M125.4,286.9c-0.6,0.3-1.6-1.1-2.4-3.7c-0.8-2.6-1.2-6.2-1.3-10.2c-0.2-8,0.9-14.3,2.2-14.1
			c1.4,0.2,0.5,6.4,0.7,14.1c0.1,3.8,0.5,7.2,0.9,9.7C125.8,285.1,126,286.7,125.4,286.9z"/>
	</g>
	<g>
		<path style="fill:#231F20;" d="M154.2,204.6c0.4,1.3-2.6,2.2-6.2,3.4c-3.6,1.2-6.6,2.2-7,0.9c-0.4-1.3,2.5-2.4,6.1-3.6
			C150.7,204.1,153.7,203.3,154.2,204.6z"/>
	</g>
	<g>
		<g>
			<g>
				<path style="fill:#FFFFFF;" d="M412.3,195.4c-4.1-10.7-12.4-17.4-18.5-15c-6.1,2.4-7.8,12.9-3.7,23.6
					c4.1,10.7,12.4,17.4,18.5,15C414.8,216.6,416.4,206,412.3,195.4z M407.3,215.4c-3.8,1.5-9.5-4.2-12.7-12.7
					c-3.3-8.5-2.8-16.5,0.9-17.9c3.8-1.5,9.5,4.2,12.7,12.7C411.5,205.9,411,213.9,407.3,215.4z"/>
			</g>
			<g>
				<path style="fill:none;" d="M412.3,195.4c-4.1-10.7-12.4-17.4-18.5-15c-6.1,2.4-7.8,12.9-3.7,23.6c4.1,10.7,12.4,17.4,18.5,15
					C414.8,216.6,416.4,206,412.3,195.4z M407.3,215.4c-3.8,1.5-9.5-4.2-12.7-12.7c-3.3-8.5-2.8-16.5,0.9-17.9
					c3.8-1.5,9.5,4.2,12.7,12.7C411.5,205.9,411,213.9,407.3,215.4z"/>
				<g>
					<path style="fill:#231F20;" d="M407.2,215.2c-0.1-0.2,0.1-0.4,0.4-0.7c0.3-0.4,0.7-0.8,0.9-1.7c0.6-1.6,0.9-4.3,0.3-7.6
						c-0.5-3.3-1.7-7.2-3.8-11.1c-1-2-2.3-3.9-3.9-5.6c-0.8-0.8-1.7-1.6-2.6-2.1c-1-0.5-1.9-0.7-2.6-0.4c-0.7,0.3-1.3,1.1-1.6,2.1
						c-0.4,1-0.5,2.2-0.5,3.3c-0.1,2.3,0.3,4.6,0.8,6.8c1.1,4.3,2.9,8,4.7,10.7c1.8,2.8,3.8,4.6,5.3,5.4c0.8,0.4,1.4,0.5,1.8,0.6
						C406.9,215,407.2,215.1,407.2,215.2c0.1,0.2-0.1,0.4-0.7,0.6c-0.5,0.2-1.5,0.3-2.5,0c-2.1-0.6-4.6-2.6-6.8-5.5
						c-2.2-3-4.1-6.9-5.4-11.5c-0.6-2.3-1-4.9-0.9-7.6c0.1-1.4,0.2-2.8,0.8-4.2c0.1-0.4,0.3-0.7,0.5-1.1c0.2-0.4,0.4-0.7,0.7-1
						c0.5-0.7,1.3-1.3,2.2-1.6c0.5-0.1,0.9-0.3,1.4-0.3c0.5,0,0.9,0,1.3,0.1c0.8,0.2,1.6,0.5,2.3,0.8c1.3,0.7,2.4,1.7,3.3,2.7
						c1.9,2,3.2,4.1,4.3,6.3c2.2,4.3,3.3,8.5,3.7,12.1c0.4,3.6-0.2,6.7-1.4,8.6c-0.6,0.9-1.3,1.4-1.9,1.7
						C407.6,215.4,407.3,215.4,407.2,215.2z"/>
				</g>
				<g>
					<path style="fill:#231F20;" d="M412.4,195.3c0.2-0.1,0.4,0.2,0.8,0.9c0.4,0.6,0.8,1.6,1.2,2.9c0.2,0.6,0.4,1.4,0.6,2.2
						c0.2,0.8,0.4,1.7,0.5,2.7c0.3,1.9,0.4,4.2,0,6.7c-0.2,1.2-0.5,2.6-1,3.9c-0.5,1.3-1.3,2.7-2.4,3.8c-1.1,1.2-2.7,2.1-4.4,2.4
						c-1.8,0.3-3.6,0.1-5.2-0.5c-3.3-1.2-6-3.6-8.3-6.3c-2.3-2.8-4-6-5.4-9.5c-1.3-3.5-2.2-7.1-2.3-10.7c-0.1-3.5,0.3-7.1,2-10.2
						c0.8-1.5,2-2.9,3.6-3.8c1.5-0.9,3.3-1.2,4.9-1.1c1.6,0.1,3.1,0.6,4.3,1.2c1.3,0.6,2.3,1.4,3.3,2.2c1.9,1.6,3.3,3.4,4.4,5
						c0.6,0.8,1,1.6,1.4,2.3c0.4,0.7,0.7,1.4,1,2c0.5,1.3,0.9,2.2,1,2.9C412.6,194.9,412.6,195.3,412.4,195.3
						c-0.4,0.1-1.1-1.2-2.4-3.4c-0.4-0.5-0.8-1.1-1.2-1.8c-0.5-0.6-0.9-1.3-1.5-2c-1.1-1.4-2.5-3-4.3-4.3c-0.9-0.6-1.9-1.3-2.9-1.8
						c-0.5-0.3-1.1-0.4-1.6-0.6c-0.6-0.1-1.1-0.3-1.7-0.2c-1.2,0-2.3,0.2-3.3,0.9c-1,0.6-1.9,1.7-2.5,2.9c-1.3,2.4-1.7,5.6-1.5,8.8
						c0.2,3.2,0.9,6.5,2.2,9.8c1.3,3.2,2.9,6.2,5,8.6c2,2.5,4.5,4.5,7,5.4c1.3,0.5,2.6,0.6,3.7,0.4c1.2-0.2,2.2-0.8,3-1.7
						c0.8-0.8,1.5-1.8,1.9-2.9c0.5-1.1,0.7-2.2,1-3.3c0.4-2.2,0.4-4.2,0.3-6c0-0.9-0.2-1.7-0.2-2.5c-0.1-0.8-0.2-1.5-0.3-2.1
						c-0.2-1.3-0.4-2.3-0.5-2.9C412.2,195.8,412.3,195.4,412.4,195.3z"/>
				</g>
			</g>
		</g>
		<g>
			<g>
				<path style="fill:#FFFFFF;" d="M465.8,180.3c-6.1-2.4-14.4,4.4-18.5,15c-4.1,10.7-2.5,21.2,3.7,23.6c6.1,2.4,14.4-4.4,18.5-15
					C473.6,193.2,472,182.7,465.8,180.3z M465.1,202.7c-3.3,8.5-8.9,14.1-12.7,12.7c-3.8-1.5-4.2-9.5-0.9-17.9
					c3.3-8.5,8.9-14.1,12.7-12.7S468.4,194.2,465.1,202.7z"/>
			</g>
			<g>
				<path style="fill:none;" d="M465.8,180.3c-6.1-2.4-14.4,4.4-18.5,15c-4.1,10.7-2.5,21.2,3.7,23.6c6.1,2.4,14.4-4.4,18.5-15
					C473.6,193.2,472,182.7,465.8,180.3z M465.1,202.7c-3.3,8.5-8.9,14.1-12.7,12.7c-3.8-1.5-4.2-9.5-0.9-17.9
					c3.3-8.5,8.9-14.1,12.7-12.7S468.4,194.2,465.1,202.7z"/>
				<g>
					<path style="fill:#231F20;" d="M465,202.6c-0.3-0.1-0.1-1.2,0.2-3.1c0.3-1.9,0.9-4.6,0.8-7.9c-0.1-1.6-0.4-3.4-1.2-4.7
						c-0.4-0.6-1-0.9-1.6-1c-0.7-0.1-1.5,0.2-2.3,0.7c-1.7,1-3.2,2.8-4.6,4.7c-1.3,2-2.5,4.2-3.4,6.6c-0.9,2.4-1.5,4.8-1.9,7.2
						c-0.3,2.3-0.3,4.7,0.3,6.6c0.3,0.9,0.8,1.7,1.3,2.1c0.5,0.4,1.2,0.5,1.9,0.3c1.5-0.4,2.9-1.6,4.1-2.7c2.3-2.3,3.7-4.8,4.7-6.4
						C464.1,203.4,464.6,202.5,465,202.6c0.3,0.1,0.2,1.3-0.5,3.2c-0.7,1.9-1.9,4.6-4.4,7.4c-1.3,1.4-2.8,2.9-5.3,3.6
						c-0.3,0.1-0.7,0.1-1,0.1c-0.4,0-0.7,0-1.1-0.1c-0.7-0.1-1.5-0.4-2.1-0.9c-1.2-0.9-1.9-2.2-2.3-3.5c-0.8-2.6-0.7-5.2-0.4-7.8
						c0.4-2.6,1.1-5.3,2.1-7.8c1-2.6,2.3-5,3.8-7.2c1.5-2.2,3.3-4.1,5.6-5.5c1.2-0.6,2.5-1.1,4.1-1c0.4,0.1,0.7,0.2,1.1,0.3
						c0.3,0.2,0.7,0.3,1,0.5c0.3,0.2,0.6,0.5,0.8,0.7c0.2,0.3,0.4,0.5,0.6,0.8c1.3,2.2,1.4,4.3,1.4,6.2c-0.1,3.7-1,6.5-1.7,8.3
						C466,201.9,465.3,202.7,465,202.6z"/>
				</g>
				<g>
					<path style="fill:#231F20;" d="M465.9,180.2c0.1-0.2,0.5-0.1,1.2,0.1c0.4,0.1,0.8,0.4,1.3,0.6c0.2,0.2,0.5,0.4,0.7,0.6
						c0.3,0.2,0.5,0.4,0.7,0.7c2,2.2,3.4,6.3,3.3,11.2c-0.1,4.9-1.6,10.7-4.8,16.4c-0.4,0.7-0.9,1.4-1.3,2.1c-0.5,0.7-1,1.4-1.5,2
						c-1.1,1.3-2.4,2.6-3.8,3.7c-1.4,1.1-3.1,2.1-5,2.7c-1.9,0.6-4.1,0.7-6.2-0.1c-2-0.8-3.6-2.4-4.6-4.1c-1-1.7-1.6-3.5-1.9-5.3
						c-0.6-3.6-0.3-7.1,0.4-10.2c1.4-6.3,4.2-11.6,7.4-15.3c3.2-3.7,7-5.9,9.9-6.1c0.4-0.1,0.7-0.1,1,0c0.3,0,0.6,0,0.9,0.1
						c0.6,0.1,1,0.2,1.4,0.4C465.6,179.8,465.9,180.1,465.9,180.2c-0.1,0.4-1.6-0.2-4,0.5c-2.4,0.6-5.5,2.6-8.3,6.2
						c-2.8,3.5-5.3,8.5-6.5,14.4c-0.6,2.9-0.8,6.1-0.2,9.2c0.3,1.5,0.8,3.1,1.6,4.3c0.8,1.3,1.9,2.3,3.2,2.8
						c1.3,0.5,2.9,0.4,4.3-0.1c1.4-0.5,2.8-1.3,4-2.3c2.4-2,4.4-4.5,5.9-7c3-5.2,4.4-10.5,4.7-15c0.3-4.5-0.7-8.1-2.1-10.1
						C467.2,181.2,465.7,180.6,465.9,180.2z"/>
				</g>
			</g>
		</g>
	</g>
	<g>
		<path style="fill:#FFFFFF;" d="M445.1,255.9h-4.3c-0.1-1.7-0.9-5.2-4.6-6.8c0,0-2.8-1.1-3.3-12.4v-15.4
			c15.5-2.2,27.6-21,27.6-43.9c0-1.8-0.1-3.6-0.2-5.3h-60.8c-0.1,1.8-0.2,3.5-0.2,5.3c0,22.9,12.1,41.7,27.6,43.9v15.4
			c-0.5,11.2-3.3,12.4-3.3,12.4c-3.7,1.6-4.5,5.1-4.6,6.8h-4.3c-3.2,0-5.9,2.6-5.9,5.9v0.4h42.2v-0.4
			C450.9,258.6,448.3,255.9,445.1,255.9z"/>
		<g>
			<path style="fill:#231F20;" d="M445.1,255.8c0-0.1,0.4-0.2,1.3-0.2c0.8,0.1,2.1,0.4,3.4,1.6c0.6,0.6,1.2,1.4,1.6,2.4
				c0.1,0.3,0.2,0.5,0.3,0.8c0.1,0.4,0.1,0.7,0.2,1.1c0,0.4,0,0.8,0,1.2c0,0.1,0,0.2,0,0.3l-0.3,0c-0.2,0-0.4,0-0.6,0
				c-2.4,0.1-5.1,0.1-8.2,0.2c-5.7,0.1-12.7,0.2-20.8,0.2c-2,0-4.1,0-6.2,0c-1.1,0-2.2,0-3.3,0c-0.6,0-1.1,0-1.7,0l-1.2,0
				c-0.6,0-1.1,0-1.6-0.1l-0.4,0c-0.1,0-0.1,0-0.2,0l0-0.2l0-0.8c0-0.5,0-1,0.1-1.6c0-0.3,0.1-0.6,0.1-0.8c0-0.2,0.1-0.3,0.1-0.5
				c0.1-0.3,0.2-0.7,0.4-1c0.6-1.3,1.7-2.4,2.9-3.1c0.6-0.4,1.3-0.6,2.1-0.8c0.7-0.1,1.5-0.2,2.1-0.2c1.1,0,3,0,2.5,0l0,0
				c0-0.2,0.2-0.7,0.3-1.1c0.2-0.8,0.6-1.5,1.1-2.3c0.9-1.4,2.3-2.6,3.8-3.3c-0.1,0,0.2-0.1,0.3-0.4c0.2-0.2,0.3-0.5,0.5-0.8
				c0.3-0.6,0.5-1.3,0.7-2.1c0.4-1.5,0.6-3.1,0.8-4.7c0.2-1.6,0.2-3.2,0.2-5c0-1.7,0-3.5,0-5.2c0-1.8,0-3.5,0-5.3c0-0.6,0-1.2,0-1.8
				c0,0,0,0,0,0l-1.4-0.3c-3.8-1-7.3-2.9-10.3-5.4c-3-2.5-5.6-5.6-7.8-9c-2.1-3.4-3.8-7.1-5.1-11c-1.3-3.9-2.1-7.9-2.6-12.1
				c-0.1-1-0.2-2.1-0.3-3.1c0-1-0.1-2.1-0.1-3.1c-0.1-1,0-2.1,0.1-3.2c0.1-1.4,0.1-2.8,0.2-4.3l0-0.4c0.1,0,0.3,0,0.4,0h0.8h1.6
				l1.6,0c1.1,0,2.1,0,3.2,0c2.1,0,4.2,0,6.3,0c4.2,0,8.3,0,12.3,0c8.1,0,16.1,0,23.8,0c4,0,8,0,11.8,0l1.4,0l0.3,0
				c0.1,0,0,0.2,0.1,0.3l0,0.7c0,0.7,0.1,1.5,0.1,2.2c0,0.9,0.1,1.9,0.1,2.8c0.1,0.9,0,1.9,0,2.8c0,0.9,0,1.8-0.1,2.8
				c-0.2,1.8-0.3,3.6-0.7,5.4c-0.2,0.9-0.3,1.8-0.5,2.6c-0.2,0.9-0.4,1.7-0.6,2.6c-0.2,0.9-0.4,1.7-0.7,2.5
				c-0.3,0.8-0.5,1.7-0.8,2.5c-0.3,0.8-0.6,1.6-0.9,2.4l-0.5,1.2l-0.5,1.1c-0.4,0.8-0.7,1.5-1.1,2.3c-0.4,0.7-0.8,1.4-1.2,2.1
				c-0.4,0.7-0.9,1.4-1.3,2.1c-0.5,0.7-0.9,1.3-1.4,2c-1,1.2-2,2.5-3.1,3.5c-0.6,0.5-1.1,1.1-1.7,1.6c-0.6,0.5-1.2,1-1.8,1.4
				c-0.6,0.5-1.3,0.8-1.9,1.3c-0.6,0.4-1.2,0.8-1.9,1.1c-0.7,0.3-1.3,0.6-2,1c-0.7,0.2-1.4,0.5-2,0.7c-0.3,0.1-0.7,0.2-1,0.3l-1,0.2
				c-1,0.2-0.7,0.1-0.8,0.2l0,0.1l0,0.9c0,0.6,0,1.3,0,1.9c0,2.5,0,4.9-0.1,7.2c0,2.3-0.1,4.5,0.1,6.4c0.1,2,0.4,3.9,0.8,5.6
				c0.2,0.8,0.4,1.6,0.7,2.3c0.2,0.3,0.3,0.7,0.5,0.9c0.2,0.3,0.4,0.5,0.5,0.5c1.7,0.8,3.1,2.2,3.8,3.6c0.4,0.7,0.6,1.4,0.8,2.1
				c0.2,0.8,0.2,0.9,0.2,1.3c0.3,0.1,0.7,0.1,1.3,0.1c0.5,0,1,0.1,1.4,0.1C444.7,255.6,445.1,255.7,445.1,255.8
				c0,0.1-0.4,0.2-1.1,0.3c-0.4,0-0.8,0.1-1.4,0.1c-0.3,0-0.6,0-0.9,0.1c-0.4,0-0.8,0.1-1.3,0c-0.2-1.5-0.5-2.5-1.2-3.7
				c-0.7-1.1-1.8-2.2-3.3-2.8c-0.6-0.3-0.9-0.7-1.1-1c-0.3-0.4-0.5-0.8-0.7-1.2c-0.4-0.8-0.7-1.7-0.9-2.6c-0.5-1.8-0.8-3.8-1-5.9
				c-0.2-2.1-0.2-4.3-0.2-6.6c0-2.3-0.1-4.7-0.1-7.2c0-1.6,0-3.1,0-4.8c0.9-0.2,1.9-0.4,2.8-0.6c0.3-0.1,0.6-0.1,0.9-0.2l0.9-0.3
				c2.5-0.8,4.8-2.2,7.1-3.9c0.5-0.4,1.1-0.9,1.6-1.4c0.5-0.5,1-1,1.5-1.5l0.8-0.8c0.2-0.3,0.5-0.6,0.7-0.8c0.5-0.6,0.9-1.1,1.4-1.7
				c0.4-0.6,0.9-1.2,1.3-1.9c0.2-0.3,0.4-0.6,0.6-1l0.6-1c0.4-0.7,0.8-1.3,1.2-2c0.3-0.7,0.7-1.4,1-2.2c0.4-0.7,0.6-1.5,0.9-2.2
				c0.3-0.8,0.6-1.5,0.9-2.3c0.5-1.6,1-3.1,1.4-4.8c0.2-0.8,0.4-1.6,0.6-2.5c0.1-0.8,0.3-1.7,0.4-2.5l0.2-1.3l0.1-1.3
				c0.1-0.9,0.2-1.7,0.3-2.6c0-0.9,0.1-1.8,0.1-2.7c0-0.9,0.1-1.8,0-2.7c0-0.9-0.1-1.8-0.1-2.7c0-0.2,0-0.1,0-0.1
				c-3.7,0-7.5,0-11.4,0c-14.7,0-30.4,0-46.6,0c0,0.8-0.1,1.7-0.1,2.5c0,0.5-0.1,1-0.1,1.5l0,1.5c0,1,0,2,0.1,3c0.1,1,0.2,2,0.3,3
				c0.5,3.9,1.3,7.7,2.6,11.4c1.3,3.6,2.9,7.1,4.9,10.2c2,3.1,4.4,5.9,7.2,8.2c2.8,2.2,5.9,3.9,9.2,4.7l1.5,0.3l1.3,0.3l0.3,0.1
				l0.1,0c0,0,0,0.1,0,0.1l0,0.2l0,0.7c0,1.1,0,2.2,0,3.4c0,1.8,0,3.6,0,5.3c-0.1,3.5,0.1,6.9-0.3,10.4c-0.2,1.7-0.4,3.4-0.9,5.1
				c-0.2,0.8-0.5,1.7-0.9,2.5c-0.2,0.4-0.4,0.8-0.7,1.3c-0.3,0.4-0.6,0.9-1.4,1.2c-1.2,0.5-2.1,1.3-2.7,2.3c-0.3,0.5-0.6,1-0.8,1.6
				c-0.1,0.3-0.2,0.5-0.2,1c-0.1,0.7-0.2,1.4-0.2,2c-1.6,0-3.2,0-4.8,0c-0.7,0-1.1,0-1.6,0.1c-0.5,0.1-0.9,0.3-1.3,0.5
				c-0.8,0.5-1.5,1.2-1.9,2c-0.1,0.2-0.2,0.4-0.3,0.6c0,0.1-0.1,0.2-0.1,0.3c0,0.1,0,0.1,0,0.1c0,0,0,0.1,0,0.1c0,0,0,0.1,0,0.1
				c4.2,0,8.1,0.1,11.8,0.1c8.1,0.1,15,0.2,20.8,0.3c1.4,0,2.8,0.1,4.1,0.1c0.6,0,1.3,0,1.9,0c0.3,0,0.6,0,0.8,0c0.2,0,0.3,0,0.5,0
				l0.2,0l0.1,0c0,0,0-0.1,0-0.1c0-0.1,0-0.3,0-0.4c0-0.1,0-0.3,0-0.4c0-0.2-0.1-0.4-0.2-0.6c-0.3-0.8-0.7-1.5-1.1-2
				c-1-1.1-2-1.5-2.7-1.8C445.5,256,445.1,255.9,445.1,255.8z"/>
		</g>
	</g>
	<g>
		<path style="fill:#231F20;" d="M422.8,211.4c-0.4,0.6-2-0.1-4.1-1.8c-2.1-1.7-4.6-4.4-6.9-7.9c-2.2-3.4-3.7-6.9-4.4-9.5
			c-0.7-2.6-0.6-4.3,0-4.4c1.4-0.3,2.6,6,6.8,12.3C418.5,206.7,423.7,210.2,422.8,211.4z"/>
	</g>
	<g>
		<path style="fill:#231F20;" d="M451.6,180.2c-0.1,1.4-2.6,1.2-5.8,1.1c-3.2-0.1-5.7-0.2-5.7-1.6c0.1-1.4,2.7-1.4,5.8-1.3
			C449.1,178.5,451.6,178.8,451.6,180.2z"/>
	</g>
	<g>
		<path style="fill:#231F20;" d="M425.4,160.2c-1.2,0.7-2.8-2.4-4.8-6.2c-2-3.7-3.7-6.7-2.5-7.4c1.2-0.7,3,2.3,5,6.1
			C425.1,156.5,426.6,159.6,425.4,160.2z"/>
	</g>
	<g>
		<path style="fill:#231F20;" d="M431,159.2c-1.3,0.4-2.1-2.7-2.7-6.6c-0.6-3.9-0.7-7,0.7-7c1.4,0,1.6,3,2.1,6.7
			C431.7,155.9,432.4,158.8,431,159.2z"/>
	</g>
	<g>
		<path style="fill:#231F20;" d="M434.2,159.6c-0.6-0.3-0.6-1.2-0.2-2.5c0.4-1.3,1.1-3.1,1.8-5c0.8-2,1.4-3.8,2.1-5
			c0.7-1.2,1.4-1.9,2-1.6c0.6,0.3,0.6,1.2,0.3,2.6c-0.3,1.3-1,3.1-1.7,5.1c-0.8,2-1.5,3.7-2.2,4.9
			C435.6,159.3,434.8,159.9,434.2,159.6z"/>
	</g>
	<g>
		<path style="fill:#231F20;" d="M309.2,99.7c0.8,1.2-8.7,7.4-20.3,15.1c-3.3,2.2-6.5,4.3-9.4,6.2c-0.9-1.4-1.8-2.7-2.6-3.9
			c-0.6-0.9-1.1-1.7-1.6-2.5c-1-1.6-1.9-3-2.5-4.1c-1.3-2.4-2-3.8-1.5-4.1c0.4-0.3,1.6,0.8,3.3,3c0.8,1.1,1.8,2.4,2.9,3.9
			c0.5,0.8,1.1,1.6,1.7,2.4c0.3,0.4,0.6,0.9,0.9,1.3l0.1,0.2c0,0,0,0,0,0l0,0l0,0l0,0c0,0,0,0,0,0l0.2-0.2l0.5-0.3
			c0.7-0.4,1.3-0.9,2-1.4c1.4-0.9,2.8-1.9,4.3-2.9C299,104.6,308.5,98.6,309.2,99.7z"/>
	</g>
	<g>
		<g>
			<g>
				<path style="fill:#FFDEBD;" d="M164.5,130.8c-1.3,5.2-2.6,10.4-4,15.6c-1,3.9-2,7.8-2.1,11.8c-0.1,4,0.7,8.1,3,11.4
					c1.3,1.8,3.1,3.3,5.3,3.6c3.4,0.5,6.5-2,8.7-4.7c3.9-4.8,6.4-10.6,7.2-16.7"/>
				<g>
					<path style="fill:#231F20;" d="M182.8,151.9c0.3,0,0.5,1.1,0.2,3.1c-0.2,2-0.9,4.8-2.5,8c-0.8,1.6-1.7,3.3-2.9,5
						c-1.2,1.7-2.7,3.5-4.7,4.9c-1,0.7-2.2,1.3-3.6,1.6c-1.4,0.3-3,0.2-4.4-0.4c-2.8-1.1-4.7-3.5-5.9-6c-1.3-2.6-1.8-5.3-1.9-7.9
						c-0.1-2.6,0.2-5.1,0.6-7.3c0.4-2.3,1-4.4,1.5-6.3c0.5-1.9,1-3.7,1.5-5.4c1.8-6.6,3.2-10.5,3.9-10.4s0,4.4-1.5,11.1
						c-0.4,1.7-0.8,3.5-1.3,5.4c-0.5,2-0.9,4-1.3,6.2c-0.4,2.2-0.6,4.4-0.5,6.7c0.1,2.3,0.6,4.6,1.7,6.8c1,2.1,2.6,3.9,4.4,4.6
						c1.8,0.7,3.7,0.1,5.4-1c1.7-1.1,3-2.7,4.1-4.2c1.2-1.5,2.1-3.1,2.9-4.5c1.6-2.9,2.5-5.4,3.1-7.2
						C182,152.8,182.4,151.8,182.8,151.9z"/>
				</g>
			</g>
			<g>
				<g>
					<path style="fill:#FFDEBD;" d="M204.1,125.6c0,0-1.5,22.8-12.1,33.6c-10.5,10.8-23.1,4.1-27.4-3.9c-4.2-8-3.5-19.3-3.5-19.3
						s-6.7,3.6-4.7-10.6c2-14.3,16.1-18,16.1-18s11.8,1.7,12.7,1.8c0.9,0.1,5.8,1.3,7.8,2S204.1,125.6,204.1,125.6z"/>
					<g>
						<path style="fill:#231F20;" d="M194.8,104.9c5-2.1,11.2-1.5,15.1,2.3c3.8,3.8,4.3,10.8,0.5,14.6c2-0.6,4.3,0.4,5.5,2
							c1.3,1.7,1.7,3.9,1.4,5.9c-0.4,2.6-1.9,5.2-4.2,6.6s-5.3,1.5-7.6,0.1c-2.6-1.6-3.8-4.8-5.3-7.5c-1.8-3.2-4.7-6.2-8.3-6.5
							c-2.5-0.2-5,0.8-7.5,0.5c-2.6-0.4-4.8-2.7-5.3-5.2c-0.1-0.4-0.6-0.5-0.8-0.1c-0.6,1.3-1.4,2.8-2.6,3.5
							c-1.9,1.1-4.2,2.3-4.6,4.6c-0.2,1.2,0.3,2.3,0.2,3.5c-0.2,2.4-3.3,4.1-5.5,3c1-2.8,0.7-6.2-1.5-8.1s-6.1-1-7.8,3.7
							c-4.1-3.9-0.5-11.9,1.7-16.6c1.7-3.6,4.4-6.9,8.1-8.3s8.5-0.2,10.4,3.3c0.3-3.8,4.5-6.4,8.4-6.1c3.8,0.3,7.1,2.7,9.9,5.3"/>
						<g>
							<path style="fill:#231F20;" d="M194.8,105.4c-0.1,0.1-0.6-0.2-1.4-0.7c-0.8-0.6-2-1.4-3.7-2.3c-0.8-0.4-1.8-0.8-2.9-1.1
								c-1.1-0.2-2.3-0.4-3.5-0.2c-1.2,0.2-2.5,0.7-3.5,1.6c-0.5,0.4-1,0.9-1.4,1.5l-0.1,0.2c-0.1,0.2-0.2,0.3-0.2,0.6
								c-0.1,0.5-0.2,0.9-0.3,1.4c-0.2,1-0.3,2.1-0.5,3.2c-0.4-0.6-0.8-1.3-1.2-1.9c-0.2-0.4-0.4-0.7-0.7-1.1l-0.7-0.9
								c-0.2-0.3-0.5-0.6-0.6-0.6c-0.1-0.1-0.2-0.2-0.4-0.3c-0.2-0.2-0.5-0.3-0.8-0.5c-1.1-0.6-2.4-0.8-3.8-0.8
								c-2.7,0-5.5,1.7-7.5,4.2c-1,1.3-1.9,2.7-2.6,4.3c-0.8,1.7-1.5,3.3-2.1,5.1c-0.6,1.7-1.1,3.6-1.1,5.3c0,0.4,0,0.9,0.1,1.3
								c0,0.2,0.1,0.4,0.1,0.6l0.1,0.3c0,0.1,0,0.1,0,0.1l0,0.1l0,0l0,0l0,0l0,0l0.2-0.2c0.5-0.7,1.2-1.4,2-1.9
								c0.8-0.5,1.7-0.9,2.8-1c1-0.1,2.1,0.1,3,0.6c1.9,1,2.9,2.8,3.3,4.7c0.2,0.9,0.2,1.8,0.2,2.8c0,0.4-0.1,1-0.2,1.3l0,0l0,0
								c0.5-0.1,1-0.3,1.4-0.6c0.4-0.3,0.7-0.7,0.8-1.1c0.1-0.4,0.1-0.9,0-1.7c-0.1-0.7-0.2-1.8,0.1-2.8c0.3-1.1,0.9-1.9,1.6-2.6
								c0.7-0.7,1.4-1.1,2.1-1.6c0.7-0.4,1.5-0.9,1.8-1.1c0.3-0.2,0.5-0.5,0.7-0.9c0,0,0.2-0.3,0.3-0.5c0.1-0.2,0.3-0.4,0.4-0.7
								c0.1-0.2,0.2-0.5,0.4-0.7c0.1-0.2,0.3-0.4,0.4-0.5c0.3-0.2,0.5-0.3,0.7-0.4c0.2-0.1,0.7-0.1,1,0c0.2,0.1,0.2,0.1,0.3,0.1
								l0.3,0.2c0.2,0.3,0.5,0.5,0.7,1.1c0.1,0.2,0.1,0.4,0.2,0.6l0.2,0.5c0.2,0.4,0.2,0.4,0.3,0.6c0.2,0.3,0.3,0.5,0.5,0.7
								c0.4,0.4,0.9,0.8,1.4,1.1c0.5,0.3,1,0.5,1.6,0.6c0.6,0.1,1.2,0.1,1.9,0c1.3-0.1,2.8-0.5,4.4-0.5c1.7-0.1,3.4,0.4,4.9,1.2
								c2.9,1.6,4.7,4.2,6.1,6.8c1.3,2.5,2.4,4.8,4.1,6c1.7,1.2,4.1,1.2,5.9,0.3c1.8-0.9,3.2-2.7,3.8-4.7c0.6-2,0.4-4.1-0.5-5.6
								c-0.5-0.8-1.1-1.3-1.8-1.7c-0.2-0.1-0.4-0.2-0.6-0.2c-0.1,0-0.2-0.1-0.3-0.1c-0.3-0.1-0.5-0.1-0.8-0.1
								c-0.6,0-1.4,0.2-2.3,0.4c-0.9,0.2-1.8,0.4-2.7,0.6l0.6-0.6l0.7-0.8c0.5-0.5,0.9-1,1.4-1.5c0.5-0.5,1-1.1,1.3-1.5l0.3-0.6
								c0.1-0.1,0.1-0.2,0.2-0.3c0.4-0.9,0.7-1.9,0.7-2.9c0.1-1,0-2-0.2-2.9c-0.2-0.9-0.5-1.8-0.9-2.6c-0.4-0.8-0.9-1.5-1.5-2.1
								c-0.6-0.6-1.2-1.1-1.9-1.5c-1.3-0.9-2.7-1.4-4-1.6c-2.6-0.6-4.7-0.3-6.1-0.1c-1.4,0.2-2.2,0.4-2.3,0.3
								c-0.1-0.1,0.6-0.7,2-1.2c1.4-0.5,3.7-1,6.7-0.6c1.5,0.2,3.1,0.7,4.7,1.6c0.8,0.4,1.6,1.1,2.3,1.7c0.7,0.7,1.4,1.6,1.9,2.5
								c0.5,1,1,2,1.2,3.1c0.3,1.1,0.4,2.3,0.3,3.6c-0.1,1.2-0.3,2.5-0.9,3.8c-0.1,0.2-0.1,0.3-0.2,0.5l-0.1,0.3
								c0,0.1,0,0.1-0.1,0.1c0,0-0.1,0.1-0.1,0.1l0,0.1c0,0,0.1,0,0.1,0c0.1,0,0.2,0,0.3,0c0,0,0.1,0,0,0c0.1,0,0.3,0.1,0.5,0.1
								c0.3,0.1,0.6,0.2,0.9,0.4c1.2,0.6,2.2,1.5,2.9,2.7c1.4,2.3,1.6,5.1,0.9,7.7c-0.7,2.6-2.5,5.1-5.2,6.4c-1.3,0.6-2.8,1-4.4,0.9
								c-1.5-0.1-3.1-0.5-4.4-1.5c-1.3-0.9-2.3-2.1-3-3.4c-0.8-1.2-1.4-2.5-2-3.7c-1.2-2.3-2.8-4.4-5-5.6c-1.1-0.6-2.2-0.9-3.4-0.9
								c-1.2,0-2.6,0.4-4.2,0.5c-0.8,0.1-1.7,0.1-2.6,0c-0.9-0.1-1.8-0.5-2.6-0.9c-0.8-0.5-1.5-1-2.1-1.7c-0.6-0.6-1.2-1.8-1-1.5
								l0,0l-0.3,0.4c-0.4,0.5-0.8,1-1.4,1.4c-0.1,0.1-0.2,0.1-0.3,0.2l-0.3,0.2l-0.5,0.3c-0.3,0.2-0.6,0.4-0.9,0.6
								c-0.6,0.4-1.1,0.8-1.5,1.2c-0.4,0.4-0.6,0.8-0.7,1.3c-0.1,0.4,0,1,0.1,1.8c0,0.4,0.1,0.8,0.1,1.3c0,0.5-0.1,1.1-0.3,1.6
								c-0.4,1-1,1.8-1.8,2.4c-0.8,0.6-1.7,1-2.7,1.1c-0.7,0.1-1.4,0-2.1-0.2l-1.8-0.8c0.2-0.8,0.6-1.6,0.7-2.4
								c0.1-0.4,0.1-0.7,0.1-1c0-0.7,0-1.3-0.1-1.9c-0.1-0.6-0.4-1.2-0.7-1.7c-0.3-0.5-0.7-0.9-1.2-1.1c-0.9-0.5-2-0.4-2.9,0.3
								c-0.5,0.3-0.9,0.7-1.2,1.2l-0.2,0.2c-0.1,0.2-0.2,0.3-0.3,0.5c-0.2,0.3-0.3,0.7-0.5,1.1c-0.3,0.8-0.6,1.5-0.9,2.2l-0.8-0.9
								c-0.3-0.3-0.6-0.7-0.9-1l-0.8-1c-0.2-0.4-0.4-0.8-0.6-1.2c-0.1-0.2-0.2-0.4-0.2-0.6l-0.1-0.4c-0.1-0.3-0.1-0.6-0.2-0.9
								c-0.1-0.6-0.1-1.2-0.1-1.7c0.1-2.2,0.6-4.2,1.3-6.1c0.7-1.9,1.4-3.6,2.2-5.3c0.8-1.7,1.8-3.4,3-4.9c1.2-1.5,2.6-2.7,4.2-3.6
								c1.6-0.9,3.5-1.4,5.2-1.4c1.8,0,3.5,0.4,5,1.2c0.4,0.2,0.7,0.4,1.1,0.7c0.3,0.2,0.8,0.6,0.7,0.6c0.1,0.1,0.2,0.3,0.3,0.4
								c0-0.1,0-0.2,0.1-0.3l0.1-0.1l0.2-0.4c0.5-0.8,1.2-1.5,1.9-2c1.4-1.1,3.1-1.6,4.6-1.8c3.2-0.3,5.6,0.9,7.3,1.9
								c1.7,1.1,2.8,2.2,3.5,2.9C194.6,104.9,194.9,105.3,194.8,105.4z"/>
						</g>
					</g>
					<g>
						<path style="fill:#231F20;" d="M157.2,127.1c0.3,0.1,0.1,1.2,0.1,3.2c0,1,0.1,2.1,0.6,3.3c0.3,0.6,0.5,1,1,1.4
							c0.2,0.2,0.4,0.3,0.6,0.3c0.1,0,0.2,0,0.3,0l0.1,0l0.1,0c0.1,0,0.1,0,0.2-0.1c0.2-0.1,0.4-0.2,0.7-0.4
							c0.7,0.2,1.1,0.3,1.3,0.3c0.1,0,0.1,0,0.1,0l0.3,0.1l0.3,0.1l0.5,0.2c0,0.5,0,1,0,1.5c0,0.5-0.1,0.9-0.1,1.4
							c0,0.6-0.1,1.1-0.1,1.6c0,0.5,0,1,0,1.6c0,0.6,0.1,1.2,0.1,1.8c0.2,2.4,0.5,4.9,1.2,7.4c0.8,2.4,2.1,4.8,4,6.8
							c0.9,1,2,2,3.1,2.9c1.2,0.9,2.3,1.6,3.7,2.2c2.7,1.2,5.8,1.5,8.4,0.8c0.3-0.1,0.6-0.2,0.9-0.3c0.3-0.1,0.7-0.3,1.1-0.4
							c0.8-0.3,1.2-0.4,1.8-0.8c1.2-0.7,2.2-1.5,3.1-2.4c0.9-0.9,1.6-2,2.4-3.1c0.7-1.1,1.4-2.1,1.9-3.2c1.1-2.1,2-4.3,2.8-6.2
							c3.2-7.8,4.6-12.9,5.3-12.7c0.7,0.1-0.1,5.5-3,13.7c-0.8,2-1.5,4.3-2.7,6.6c-0.6,1.2-1.3,2.3-2,3.5c-0.8,1.1-1.6,2.4-2.7,3.5
							c-1.1,1.1-2.4,2.1-3.8,2.9c-0.7,0.4-1.7,0.8-2.3,1c-0.6,0.2-1.5,0.6-2.3,0.8c-3.4,0.8-7,0.4-10.2-1c-1.6-0.7-3-1.6-4.3-2.6
							c-1.3-1-2.4-2.1-3.5-3.2c-2.1-2.3-3.7-5.1-4.5-7.9c-0.9-2.8-1.1-5.5-1.2-8c0-0.6-0.1-1.2-0.1-1.8c0-0.6,0-1.3,0-1.9
							c0-0.6,0.1-1.2,0.2-1.7l0-0.2l0-0.1l0-0.1l0-0.2l0-0.1c0,0,0,0,0,0c-0.1,0-0.1,0.1-0.2,0.1c-0.1,0-0.3,0-0.4,0.1
							c-0.3,0-0.7,0-1-0.1c-0.6-0.1-1.2-0.5-1.6-0.8c-0.8-0.7-1.3-1.7-1.5-2.4c-0.5-1.6-0.4-3-0.2-4.1
							C156.1,127.9,156.9,127,157.2,127.1z"/>
					</g>
					<g>
						<path style="fill:#231F20;" d="M194.3,134.7c0.1-1.4,1.7-1.2,3.4-0.4c1.7,0.8,2.9,1.8,1.9,2.8c-1,1-1.9,0.3-3.1-0.2
							C195.2,136.4,194.1,136.1,194.3,134.7z"/>
					</g>
					<g>
						<path style="fill:#231F20;" d="M180.7,133.9c-0.9-1,0.8-2.5,3.4-2.4c2.3,0.1,3.9,1,3.3,2.2c-0.6,1.3-1.9,0.7-3.5,0.7
							c-0.6-0.1-1.2,0.1-1.8,0.1C181.6,134.5,181.2,134.4,180.7,133.9z"/>
					</g>
					<g>
						<path style="fill:#231F20;" d="M190.7,146.5c0.3-0.2,0.5-0.3,0.7-0.4c0.1-0.2,0.2-0.2,0.4-0.3c0.2-0.1,0.6-0.2,0.9-0.4
							c0.3-0.2,0.6-0.4,0.7-0.6c0.1-0.2,0.1-0.4,0.1-0.5c0-0.1-0.2-0.4-0.5-0.7c-0.2-0.3-0.5-0.7-0.6-1c-0.1-0.3,0-0.6,0.3-0.8
							c0.3-0.2,0.6-0.3,0.8-0.3c0.3,0,0.6,0.1,1,0.3c0.4,0.2,1,0.6,1.4,1.5c0.5,0.9,0.3,2.1-0.2,3c-0.5,0.9-1.3,1.4-2,1.7
							c-0.7,0.3-1.3,0.3-1.9,0.3c-0.6-0.1-1.2-0.4-1.4-0.8C190.2,147,190.4,146.7,190.7,146.5z"/>
					</g>
					<path style="fill:#231F20;" d="M198.1,135.9c0,0,0.4,2.8-1.5,3.2s-1.5-2.5-0.4-3.5"/>
					<path style="fill:#231F20;" d="M185.1,132.9c0,0,0.9,3.1-1.1,3.8s-2.1-2.6-1.1-3.8"/>
					<g>
						<path style="fill:#231F20;" d="M178.9,145.7c1.4-0.3,1.5,1.4,2.7,2.7c0.6,0.6,1.3,1,1.8,1.3c0.5,0.3,0.8,0.7,0.7,1.4
							c0,0.7-0.7,1-1.6,0.9c-0.9-0.1-2.1-0.7-3.1-1.7c-1-1-1.5-2.2-1.5-3.1C177.9,146.4,178.3,145.8,178.9,145.7z"/>
					</g>
					<g>
						<path style="fill:#231F20;" d="M181.3,128.6c-0.3-0.6-0.1-1.1,0.5-1.4c0.6-0.3,1.5-0.4,2.4-0.4c1.8,0,3.3,0.4,2.9,1.8
							c-0.4,1.3-1.5,1.1-2.9,1.1C182.8,129.6,181.9,129.9,181.3,128.6z"/>
					</g>
					<g>
						<path style="fill:#231F20;" d="M195.3,131.2c-0.1-0.7,0.2-1.1,0.7-1.2c0.5-0.2,1.2-0.1,2,0.1c1.4,0.3,2.5,0.7,2,2
							c-0.5,1.3-1.5,1.1-2.6,0.9C196.2,132.6,195.6,132.6,195.3,131.2z"/>
					</g>
				</g>
				<g>
					<path style="fill:#231F20;" d="M179.2,143.7c-0.3,1.4-0.4,1.2-0.9,1.5c-0.5,0.3-0.8,0.7-1.8-0.1c-1.1-0.8-0.7-1.8,0.5-2.4
						c0.6-0.3,1.2-0.5,1.7-0.3C179.1,142.6,179.3,143,179.2,143.7z"/>
				</g>
			</g>
			<path style="fill:#231F20;" d="M161.7,144.1c0,0-3.6,18.8,10.2,28.1c0,0,3.3-2.6,5.8-7.1C177.7,165.1,163.9,163.1,161.7,144.1z"
				/>
		</g>
		<g>
			<path style="fill:#231F20;" d="M134.9,173c-0.6-0.2-0.3-2.2,1.3-4.8c0.7-1.3,1.8-2.8,3.1-4.4c1.3-1.5,2.9-3.1,4.6-4.6
				c1.8-1.5,3.5-2.8,5.2-3.9c1.7-1,3.3-1.9,4.7-2.5c2.8-1.1,4.8-1.2,4.9-0.6c0.2,0.7-1.5,1.5-3.9,2.9c-1.3,0.7-2.7,1.6-4.3,2.6
				c-1.6,1.1-3.2,2.3-4.9,3.7c-1.6,1.4-3.1,2.9-4.3,4.3c-1.2,1.4-2.3,2.7-3.1,3.9C136.5,171.8,135.6,173.3,134.9,173z"/>
		</g>
		<g>
			<path style="fill:#231F20;" d="M153.6,103.9c-0.7,1.2-3.6-0.7-7.3-2.7c-3.7-2-6.9-3.2-6.3-4.5c0.6-1.3,3.8,0,7.7,2
				C151.4,100.8,154.3,102.8,153.6,103.9z"/>
		</g>
		<g>
			<path style="fill:#231F20;" d="M158.5,99c-1,1-2.9-1.1-5.1-3.8c-2.2-2.7-3.9-5-2.7-5.8c1.2-0.8,2.8,1.4,5,4
				C157.7,96,159.5,98,158.5,99z"/>
		</g>
		<g>
			<path style="fill:#231F20;" d="M164.6,98.4c-1.3,0.4-2-2.3-2.9-5.6c-0.9-3.3-1.7-5.9-0.3-6.3c1.3-0.4,2.2,2.3,3.1,5.5
				C165.4,95.3,165.9,98,164.6,98.4z"/>
		</g>
	</g>
</g>
</svg>
