<svg id="logosandtypes_com" xmlns="http://www.w3.org/2000/svg" viewBox="0 0 150 150"><style>.st1{fill:#fff}.st2{fill:#00a466}</style><path d="M0 0h150v150H0V0z" fill="none" id="Layer_3"/><g id="logosandtypes_com"><path class="st1" d="M127.2 71.7c-2.3-11.5-15.8-23.2-37.1-23.2-18.8 0-32.4 10-36.8 20.2-.1.2-.5 1.1-.6 1.5H17.1v10.5h99.6c4.9-.1 8.4-.1 10-2 1.1-1.4 1.2-3.5.5-7m-15.7-2.3c-.3.7-1.5.8-2.6.8h-41c.3-.7.9-1.5.9-1.5C72.7 63 81.6 59 90.5 59c9.3 0 16.8 3.1 20.7 8.6.3.8.5 1.3.3 1.8M89.9 91.5c-8.4 0-16.4-3.4-20.5-8.5H53.5c4.2 10 16.8 19.7 36.6 19.7 20.3 0 28.4-7.1 33.7-14 .3-.3.4-.6.6-.9h-18.6c-3.7 2.9-10.7 3.7-15.9 3.7"/><path class="st2" d="M17.1 16.6v53.6h35.6c.1-.4.5-1.3.6-1.5 4.4-10.2 18.1-20.2 36.8-20.2 21.3 0 34.8 11.6 37.1 23.2.7 3.6.5 5.7-.5 7-1.5 1.8-5.1 2-10 2H17.1v53.9h118v-118h-118zm106.7 72.1c-5.3 6.9-13.5 14-33.7 14-19.7 0-32.4-9.7-36.6-19.7h15.8c4.1 5.1 12.2 8.5 20.5 8.5 5.2 0 12.2-.7 15.9-3.7h18.6c-.1.3-.2.5-.5.9"/><path class="st2" d="M111.5 69.4c.2-.4.1-1-.4-1.8-3.8-5.5-11.4-8.6-20.7-8.6-8.9 0-17.8 4-21.7 9.7 0 0-.5.7-.9 1.5h41c1.1-.1 2.3-.2 2.7-.8"/><path class="st2" d="M120.5 75.4c.8-.5 1.1-1.3 1-2.6-.2-5.5-9.7-20.3-31.4-20.3-20.8 0-28.5 12.1-30.3 15.8 0 0-.5.8-.8 1.7h2.4c.2-.5.4-.9.7-1.5 1.7-3.2 9.5-13.9 28-13.9 21.5 0 29.1 14.6 29.1 17.8 0 .5-.1.7-.3.9-.6.6-1.4.9-6.8.9h-95v2.1h95c6.9 0 7.7-.4 8.4-.9M117.2 87.6l-.2.4c-8.4 10.5-25.9 10.3-27.9 10.2-15-.3-25.3-7.9-28.9-15.2h2.4c3.4 6.1 12.2 12.7 26.5 13.1.7.1 16.5.7 25.2-8.4l2.9-.1z"/></g></svg>