<?xml version="1.0" encoding="utf-8"?>
<!-- Generator: Adobe Illustrator 25.0.0, SVG Export Plug-In . SVG Version: 6.00 Build 0)  -->
<svg version="1.0" id="Layer_1" xmlns="http://www.w3.org/2000/svg" xmlns:xlink="http://www.w3.org/1999/xlink" x="0px" y="0px"
	 viewBox="0 0 512 512" style="enable-background:new 0 0 512 512;" xml:space="preserve">
<g>
	<g>
		<path style="fill:#F15A29;" d="M159.3,202c0,0,1.6,29.1,51.7,30.7v15.8c0,0-46.2,6.8-56.6-20.7"/>
		<path style="fill:#231F20;" d="M198.5,250.4c-14.7,0-37.9-3.2-45-22.1c-0.2-0.5,0.1-1.1,0.6-1.3c0.5-0.2,1.1,0.1,1.3,0.6
			c9.2,24.4,48.4,20.9,54.7,20.2v-14c-25.6-1-38.3-9.4-44.4-16.3c-6.8-7.7-7.3-15.1-7.3-15.4c0-0.6,0.4-1,0.9-1.1
			c0.6,0,1,0.4,1.1,0.9l0,0c0,0.1,0.5,7.1,6.9,14.3c6,6.6,18.4,14.7,43.9,15.5c0.5,0,1,0.5,1,1v15.8c0,0.5-0.4,0.9-0.9,1
			C210.5,249.7,205.5,250.4,198.5,250.4z"/>
	</g>
	<g>
		<g>
			<g>
				<circle style="fill:#FFFFFF;" cx="270.4" cy="407.5" r="50.5"/>
				<path style="fill:#231F20;" d="M270.4,459c-28.4,0-51.5-23.1-51.5-51.5c0-28.4,23.1-51.5,51.5-51.5c28.4,0,51.5,23.1,51.5,51.5
					C321.9,435.9,298.8,459,270.4,459z M270.4,358.1c-27.3,0-49.5,22.2-49.5,49.5c0,27.3,22.2,49.5,49.5,49.5
					c27.3,0,49.5-22.2,49.5-49.5C319.9,380.3,297.7,358.1,270.4,358.1z"/>
			</g>
			<g>
				<path style="fill:#FFCA56;" d="M371.4,248.5c0-58.2-49.2-104.8-108.2-100.8c-48.4,3.3-88.3,41.6-93.3,90
					c-3,28.4,5.9,54.7,22.2,74.7c18.6,22.8,29.6,50.8,29.6,80.2v1.9h97.4v-1.9c0-29,10.2-57,28.8-79.2
					C362.6,295.8,371.4,273.2,371.4,248.5z"/>
				<path style="fill:#231F20;" d="M319.1,395.4h-97.4c-0.6,0-1-0.4-1-1v-1.9c0-28.2-10.4-56.4-29.3-79.5
					c-17.3-21.2-25.3-48-22.4-75.4c2.5-23.6,13.3-45.8,30.7-62.5c17.3-16.7,39.9-26.8,63.6-28.4c28.7-2,55.9,7.7,76.8,27.2
					c20.6,19.2,32.4,46.4,32.4,74.6c0,23.9-8.5,47.2-23.8,65.5c-18.4,21.9-28.5,49.8-28.5,78.5v1.9
					C320.1,395,319.6,395.4,319.1,395.4z M222.7,393.4h95.4v-0.9c0-29.2,10.3-57.5,29-79.8c15.1-17.9,23.3-40.8,23.3-64.2
					c0-27.6-11.6-54.3-31.8-73.1c-20.5-19.1-47.2-28.6-75.3-26.6c-47.7,3.3-87.4,41.6-92.4,89.1c-2.8,26.9,5,53.2,22,74
					c19.2,23.5,29.8,52.2,29.8,80.8V393.4z"/>
			</g>
			<g>
				<path style="fill:#231F20;" d="M319.7,381.6h-97.4c-0.6,0-1-0.4-1-1s0.4-1,1-1h97.4c0.6,0,1,0.4,1,1S320.3,381.6,319.7,381.6z"
					/>
			</g>
			<g>
				<path style="fill:#231F20;" d="M321.8,366H218.7c-0.6,0-1-0.4-1-1s0.4-1,1-1h103.1c0.6,0,1,0.4,1,1S322.3,366,321.8,366z"/>
			</g>
		</g>
		<g>
			<path style="fill:#231F20;" d="M271.9,111.3c-0.6,0-1-0.4-1-1V49.4c0-0.6,0.4-1,1-1s1,0.4,1,1v60.9
				C272.9,110.8,272.5,111.3,271.9,111.3z"/>
		</g>
		<g>
			<g>
				<path style="fill:#231F20;" d="M312.2,121.6c-0.1,0-0.3,0-0.4-0.1c-0.5-0.2-0.7-0.8-0.5-1.3l25.1-55.5c0.2-0.5,0.8-0.7,1.3-0.5
					c0.5,0.2,0.7,0.8,0.5,1.3L313.2,121C313,121.3,312.6,121.6,312.2,121.6z"/>
			</g>
			<g>
				<path style="fill:#231F20;" d="M351.3,145.3c-0.3,0-0.5-0.1-0.7-0.3c-0.4-0.4-0.3-1,0.1-1.4l44.9-41.1c0.4-0.4,1-0.3,1.4,0.1
					c0.4,0.4,0.3,1-0.1,1.4l-44.9,41.1C351.7,145.2,351.5,145.3,351.3,145.3z"/>
			</g>
		</g>
		<g>
			<g>
				<path style="fill:#231F20;" d="M233.3,121.6c-0.4,0-0.7-0.2-0.9-0.6l-25.1-55.5c-0.2-0.5,0-1.1,0.5-1.3c0.5-0.2,1.1,0,1.3,0.5
					l25.1,55.5c0.2,0.5,0,1.1-0.5,1.3C233.6,121.5,233.4,121.6,233.3,121.6z"/>
			</g>
			<g>
				<path style="fill:#231F20;" d="M194.3,145.3c-0.2,0-0.5-0.1-0.7-0.3l-44.9-41.1c-0.4-0.4-0.4-1-0.1-1.4c0.4-0.4,1-0.4,1.4-0.1
					l44.9,41.1c0.4,0.4,0.4,1,0.1,1.4C194.8,145.2,194.6,145.3,194.3,145.3z"/>
			</g>
		</g>
	</g>
	<g>
		<path style="fill:#FFD4A6;" d="M318.1,193.9c0,0-1.1-9.4-2.8-16.4c-1.8-7-8.2-14.5-10.4-12.9c-2.2,1.6,2,9.3,2,9.3l0.3,3.7
			c0,0-5-9.7-10-11.4c-2.2-0.7-3.3,1.9,0.1,6c0,0-5.5-5.1-6.4-2.4c-0.9,2.6,4.4,8.4,4.4,8.4s-9.3-3.6-7.4-0.3
			c1.9,3.3,7.2,6.1,7.2,6.1s5.6,19.6,15.8,14.5"/>
		<path style="fill:#231F20;" d="M307.5,200.3c-1,0-2.1-0.2-3.1-0.7c-6.1-2.7-9.6-12.8-10.2-15c-1.3-0.7-5.5-3.2-7.2-6.2
			c-0.7-1.2-0.3-1.9,0-2.2c0.7-0.8,2.5-0.8,5.3,0c-1.5-2.1-3-4.8-2.4-6.6c0.2-0.7,0.8-1.2,1.4-1.4c0.8-0.2,1.9,0.1,2.9,0.7
			c-0.3-1.1-0.2-2,0.3-2.7c0.6-0.9,1.7-1.2,2.9-0.8c2.6,0.9,5.2,3.7,7.2,6.4c-1.2-2.8-2.2-6.5-0.4-7.8c0.4-0.3,1.2-0.6,2.3-0.2
			c3,1.1,8,7.5,9.6,13.7c1.8,7,2.8,16.4,2.8,16.5c0.1,0.5-0.3,1-0.9,1.1c-0.6,0.1-1-0.3-1.1-0.9c0-0.1-1.1-9.4-2.8-16.2
			c-1.5-5.8-6.1-11.5-8.3-12.3c-0.3-0.1-0.4-0.1-0.5-0.1c-0.8,0.5,0.3,4.4,2.3,8c0.1,0.1,0.1,0.3,0.1,0.4l0.3,3.7
			c0,0.5-0.3,0.9-0.7,1c-0.5,0.1-0.9-0.1-1.2-0.5c-1.3-2.6-5.6-9.6-9.4-10.9c-0.1,0-0.5-0.2-0.7,0c-0.3,0.4-0.2,2,1.8,4.4
			c0.3,0.4,0.3,1-0.1,1.4c-0.4,0.4-1,0.4-1.4,0c-2.1-1.9-4.3-3.1-4.8-2.9c-0.5,1.5,2.2,5.3,4.2,7.4c0.3,0.3,0.4,0.9,0.1,1.2
			c-0.3,0.4-0.8,0.5-1.2,0.4c-2.4-0.9-5-1.6-6.1-1.6c1.8,3,6.7,5.6,6.8,5.6c0.2,0.1,0.4,0.3,0.5,0.6c0,0.1,3.4,11.6,9.3,14.1
			c1.7,0.7,3.4,0.7,5.1-0.2c0.5-0.2,1.1,0,1.3,0.5c0.2,0.5,0,1.1-0.5,1.3C310,200,308.8,200.3,307.5,200.3z"/>
	</g>
	<g>
		<path style="fill:#231F20;" d="M309.1,195.5c-0.3,0-0.6-0.1-0.8-0.4c-3.1-3.6-2.1-6.5-1.2-8c-1.4-0.9-3.7-2.8-4.2-5.1
			c-0.3-1.2,0-2.4,0.8-3.5c0.6-0.8,1.4-1.2,2.4-1.2c0,0,0,0,0.1,0c4.1,0,10.4,7.8,11.1,8.7c0.3,0.4,0.3,1.1-0.2,1.4
			c-0.4,0.3-1.1,0.3-1.4-0.2c-2.5-3.1-7.2-8-9.6-7.9c-0.3,0-0.6,0.1-0.8,0.4c-0.4,0.6-0.6,1.2-0.4,1.9c0.4,1.9,3.2,3.8,4.2,4.4
			c0.3,0.2,0.5,0.4,0.5,0.8c0,0.3-0.1,0.6-0.3,0.9c-0.3,0.2-2.6,2.6,0.5,6.2c0.4,0.4,0.3,1.1-0.1,1.4
			C309.6,195.4,309.3,195.5,309.1,195.5z"/>
	</g>
	<path style="fill:#7AAEEC;" d="M167.4,433.7l-10.8-158.6l-45,1.6c-6,6.1-6.6,29.2-6.2,75.6l-43.9,43.9c0,0-15.1,3.8-20,20l48,46.1
		c0,0,17.4-7.9,4.5-36.7c0,0,18.2-18.7,32.3-36.4l-3.2,44.4c0,0-5.2,14.7-1.2,28.7h72.1C194.1,462.4,197.9,439.5,167.4,433.7z"/>
	<path style="fill:#FFFFFF;" d="M177.8,436.8c-2.9-1.3-6.3-2.3-10.4-3.1l-44.2-0.3l0,0.3c0,0-5.2,14.7-1.2,28.7h72.1
		C195,448,185.3,440.5,177.8,436.8z"/>
	<path style="fill:#FFFFFF;" d="M95.1,428.1c-0.2-0.6-0.5-1.2-0.8-1.8l-31.8-29.4l-0.8-0.9l-0.2,0.2c0,0-15.1,3.8-20,20l48,46.1
		C103.3,453.9,97.3,434.1,95.1,428.1z"/>
	<g>
		<path style="fill:#231F20;" d="M89.5,463.4c-0.3,0-0.5-0.1-0.7-0.3l-48-46.1c-0.3-0.3-0.4-0.7-0.3-1c4.7-15.6,18.3-20,20.5-20.6
			l43.4-43.4c-1.3-48.4,0.5-69.7,6.5-75.9c0.2-0.2,0.4-0.3,0.7-0.3l45-1.6c0.6-0.1,1,0.4,1,0.9l10.8,157.8
			c30.7,6.3,26.8,29.5,26.7,29.7c-0.1,0.5-0.5,0.8-1,0.8h-72.1c-0.4,0-0.8-0.3-1-0.7c-3.9-13.6,0.6-27.6,1.2-29.2l2.9-41.1
			C112.8,407.6,98,423,95.2,425.9c12.6,28.8-5.1,37.3-5.3,37.4C89.8,463.3,89.6,463.4,89.5,463.4z M194.1,462.4L194.1,462.4
			L194.1,462.4z M122.7,461.4h70.5c0.4-4.1,0.6-21.6-26-26.7c-0.4-0.1-0.8-0.5-0.8-0.9l-10.7-157.6l-43.6,1.5
			c-5.3,6.1-7,27.9-5.7,74.6c0,0.3-0.1,0.5-0.3,0.7l-43.9,43.9c-0.1,0.1-0.3,0.2-0.5,0.3c-0.1,0-14.3,3.8-19.1,18.8l47.1,45.2
			c2.9-1.7,14.5-10.3,3.5-35.1c-0.2-0.4-0.1-0.8,0.2-1.1c0.2-0.2,18.4-18.9,32.2-36.3c0.3-0.3,0.7-0.5,1.1-0.3s0.7,0.6,0.6,1
			l-3.2,44.4c0,0.1,0,0.2-0.1,0.3C124,434.2,119.2,448.1,122.7,461.4z"/>
	</g>
	<g>
		<path style="fill:#231F20;" d="M126.3,390.3c-0.2,0-0.5-0.1-0.7-0.3c-0.4-0.4-0.4-1-0.1-1.4c0.1-0.1,13-14.2,15.7-36.7
			c1.8-15.3,1.6-35.6,1.2-42.6c0-0.6,0.4-1,0.9-1.1c0.6,0,1,0.4,1.1,0.9c0.4,7,0.7,27.5-1.2,42.9c-2.8,23.2-15.7,37.3-16.2,37.9
			C126.8,390.2,126.6,390.3,126.3,390.3z"/>
	</g>
	<g>
		<line style="fill:#F15A29;" x1="167.4" y1="433.7" x2="123.1" y2="433.7"/>
		<path style="fill:#231F20;" d="M167.4,434.7h-44.2c-0.6,0-1-0.4-1-1s0.4-1,1-1h44.2c0.6,0,1,0.4,1,1S167.9,434.7,167.4,434.7z"/>
	</g>
	<g>
		<path style="fill:#231F20;" d="M94,426.7c-0.2,0-0.5-0.1-0.7-0.3l-32.5-29.5c-0.4-0.4-0.4-1-0.1-1.4s1-0.4,1.4-0.1l32.5,29.5
			c0.4,0.4,0.4,1,0.1,1.4C94.6,426.6,94.3,426.7,94,426.7z"/>
	</g>
	<g>
		<path style="fill:#231F20;" d="M193.9,457.5h-73.1c-0.6,0-1-0.4-1-1s0.4-1,1-1h73.1c0.6,0,1,0.4,1,1S194.4,457.5,193.9,457.5z"/>
	</g>
	<g>
		<path style="fill:#231F20;" d="M94.9,459.1c-0.2,0-0.5-0.1-0.7-0.3l-50.5-48.7c-0.4-0.4-0.4-1,0-1.4c0.4-0.4,1-0.4,1.4,0
			l50.5,48.7c0.4,0.4,0.4,1,0,1.4C95.4,459,95.2,459.1,94.9,459.1z"/>
	</g>
	<g>
		<path style="fill:#F15A29;" d="M133.6,188.8c-8.7,0.7-19,5.5-23.3,13.6c-0.7,1.4-1.4,2.9-1.9,4.5c-3.5,11.1-13.4,89.8-13.4,89.8
			s42.9,8.3,75.8,0c0,0-4.8-89.2-13.9-99.9C151.5,190.3,141.8,188.2,133.6,188.8z"/>
		<path style="fill:#231F20;" d="M136.7,301.4c-22.4,0-41.5-3.6-41.8-3.7c-0.5-0.1-0.9-0.6-0.8-1.1c0.4-3.2,10-78.9,13.4-90
			c0.5-1.6,1.1-3.1,1.9-4.6c4.7-8.9,15.5-13.5,24.1-14.2l0,0c7.8-0.6,18.2,1.3,24.3,8.4c9.2,10.8,13.9,96.8,14.1,100.5
			c0,0.5-0.3,0.9-0.8,1C160.1,300.5,148,301.4,136.7,301.4z M96.2,295.9c6.3,1.1,44.1,7.3,73.7,0c-0.5-9-5.3-88.7-13.6-98.4
			c-5.6-6.5-15.3-8.3-22.6-7.7l0,0c-7.8,0.6-18.2,4.9-22.5,13.1c-0.7,1.4-1.3,2.8-1.8,4.3C106.2,217.4,97.3,287,96.2,295.9z"/>
	</g>
	<g>
		<path style="fill:#FFD4A6;" d="M134.7,179.6l-2.7,11.4c-1.1,4.5,1.7,9,6.3,10h0c4.3,1,8.7-1.7,9.8-6l3-11.1"/>
		<path style="fill:#231F20;" d="M140,202.1c-0.7,0-1.3-0.1-2-0.2c-2.4-0.5-4.5-2-5.9-4.1c-1.3-2.1-1.7-4.6-1.1-7.1l2.7-11.4
			c0.1-0.5,0.7-0.9,1.2-0.7c0.5,0.1,0.9,0.7,0.7,1.2l-2.7,11.4c-0.5,1.9-0.1,3.9,0.9,5.5s2.7,2.8,4.6,3.2c3.8,0.8,7.6-1.5,8.6-5.3
			l3-11.1c0.1-0.5,0.7-0.9,1.2-0.7c0.5,0.1,0.9,0.7,0.7,1.2l-3,11.1C147.9,199.3,144.2,202.1,140,202.1z"/>
	</g>
	<g>
		<g>
			<path style="fill:#231F20;" d="M152.3,145.2c0,0,4.5-5.9,1.4-9.1c-3.1-3.2-5.8-3.2-5.8-3.2s0.1-6.8-9-5.3c-9,1.5-9.8,7.4-9.8,7.4
				s-12.7,3.6-16.8,9.5c-4,5.9-1.9,19.3,2.1,24.6c4,5.3,7.4,7.8,12.2,6.2s12.1-4.8,10.9-9.9c-1.2-5.1-4.3-12.7-1-14.4
				C139.7,149.3,152.3,145.2,152.3,145.2z"/>
			<path style="fill:#231F20;" d="M123.8,176.2c-3.8,0-6.7-2.8-9.8-6.9c-4.3-5.8-6.2-19.3-2.1-25.2c3.8-5.5,14.8-9,16.7-9.6
				c0.3-1.3,2-6.2,10.2-7.5c3.3-0.5,5.8-0.1,7.5,1.4c1.6,1.4,2,3.2,2.1,4c1,0.1,3.2,0.7,5.7,3.3c3.3,3.5-1.2,9.5-1.4,9.7
				c-0.1,0.1-0.1,0.1-0.2,0.2c-0.1,0-12.5,4.1-15.7,5.7c-2.2,1.1-0.9,6,0.4,10.4c0.3,1.2,0.7,2.4,0.9,3.5c0.9,4.1-2.9,7.6-11.3,10.5
				C125.7,176,124.7,176.2,123.8,176.2z M141.3,127.8c-0.7,0-1.5,0.1-2.3,0.2c-8.5,1.4-9.4,6.8-9.4,7c0,0.2-0.2,0.4-0.4,0.4
				c-0.1,0-12.6,3.6-16.5,9.3c-3.8,5.5-2,18.6,2.1,24c4.4,5.8,7.5,7.4,11.6,6c7.8-2.7,11.4-5.8,10.6-9.3c-0.2-1-0.6-2.2-0.9-3.4
				c-1.3-4.7-2.8-10,0.1-11.5c3.1-1.6,14.2-5.2,15.7-5.7c0.6-0.8,3.9-5.7,1.3-8.3c-2.9-3-5.4-3-5.5-3c-0.3,0-0.5-0.2-0.5-0.5
				c0,0,0-2.3-1.7-3.7C144.5,128.3,143.1,127.8,141.3,127.8z M152.3,145.2L152.3,145.2L152.3,145.2z"/>
		</g>
		<g>
			<path style="fill:#FFD4A6;" d="M150.4,141.1c0,0,14.7,29.6,8,39.8c-6.6,10.2-29.9,9.9-32.3,0.2l-0.9-3.4c0,0,0.8,4.5-4.2,4.9
				s-10.7-10.5-7.2-12.8c3.5-2.3,6.9,2.1,6.9,2.1l4.1-1.5c0,0-5.9-6.2-1.6-13.2c0,0-7.5-10.3-2.8-13c4.6-2.7,15.2-1.6,19.6-4.7
				C146.1,135,149.6,139.2,150.4,141.1z"/>
			<path style="fill:#231F20;" d="M140.8,189.4c-1.6,0-3.3-0.1-4.8-0.4c-5.8-1-9.6-3.7-10.7-7.4c-0.9,1.1-2.3,1.8-4.1,1.9
				c-3.6,0.3-7.3-3.9-8.8-8.1c-1.1-3-0.7-5.4,0.9-6.5c3-2,6.1,0,7.7,1.7l2.1-0.8c-1.5-2.2-4.2-7.2-1.1-12.7c-1.3-1.8-4.8-7.5-4-11.2
				c0.2-1.2,0.9-2.1,1.9-2.7c2.4-1.4,6-1.9,9.8-2.3c3.7-0.4,7.6-0.9,9.7-2.4c2.6-1.9,5.1-2.5,7.4-1.9c2.3,0.6,3.9,2.5,4.6,4
				c0.7,1.4,14.8,30.2,8,40.7C155.7,186.9,147.9,189.4,140.8,189.4z M125.4,176.5c0.4,0,0.9,0.3,1,0.8l0.9,3.4
				c0.7,3.1,4.1,5.4,9.2,6.2c7.5,1.3,17.5-0.9,21.3-6.7c6.3-9.6-8-38.5-8.1-38.8c0,0,0,0,0,0c-0.4-0.8-1.5-2.4-3.3-2.9
				c-1.7-0.5-3.6,0.1-5.7,1.6c-2.5,1.7-6.6,2.2-10.6,2.7c-3.4,0.4-7,0.8-9,2c-0.5,0.3-0.8,0.7-1,1.4c-0.6,2.9,2.7,8.3,4.1,10.2
				c0.2,0.3,0.3,0.8,0,1.1c-3.9,6.2,1.2,11.7,1.5,12c0.2,0.2,0.3,0.6,0.3,0.9c-0.1,0.3-0.3,0.6-0.6,0.7l-4.1,1.5
				c-0.4,0.2-0.9,0-1.1-0.3c-0.1-0.1-2.9-3.6-5.5-1.9c-0.8,0.5-0.8,2.2-0.1,4.2c1.2,3.4,4.2,7,6.7,6.8c1.3-0.1,2.2-0.5,2.8-1.2
				c0.8-1.1,0.6-2.5,0.6-2.5c-0.1-0.5,0.3-1,0.8-1.1C125.2,176.5,125.3,176.5,125.4,176.5z"/>
		</g>
		
			<ellipse transform="matrix(0.9367 -0.3501 0.3501 0.9367 -47.5862 58.1475)" style="fill:#231F20;" cx="137.1" cy="160.7" rx="1.1" ry="1.8"/>
		
			<ellipse transform="matrix(0.9367 -0.3501 0.3501 0.9367 -45.4911 62.5214)" style="fill:#231F20;" cx="150.2" cy="157.1" rx="1.1" ry="1.8"/>
		<g>
			<path style="fill:#231F20;" d="M132.1,158.6c-0.2,0-0.5-0.1-0.7-0.3c-0.4-0.4-0.4-1-0.1-1.4c2.3-2.6,4.1-3.3,4.2-3.3
				c0.5-0.2,1.1,0.1,1.3,0.6c0.2,0.5-0.1,1.1-0.6,1.3c0,0-1.5,0.6-3.4,2.7C132.7,158.5,132.4,158.6,132.1,158.6z"/>
		</g>
		<g>
			<path style="fill:#231F20;" d="M150.5,153.2c-0.1,0-0.3,0-0.4-0.1c0,0-1.3-0.5-3.3-0.4c-0.5,0-1-0.4-1.1-0.9c0-0.6,0.4-1,0.9-1.1
				c2.6-0.2,4.2,0.5,4.3,0.6c0.5,0.2,0.7,0.8,0.5,1.3C151.3,153,150.9,153.2,150.5,153.2z"/>
		</g>
		<g>
			<path style="fill:#231F20;" d="M149.6,168.8c0,0-7.7,3.9-15.1,1.6c0,0,1.5,6,6.1,6C147.5,176.2,149.3,173.7,149.6,168.8z"/>
			<path style="fill:#231F20;" d="M140.6,177.3c-5.3,0-7-6.4-7.1-6.7c-0.1-0.4,0-0.7,0.3-1c0.3-0.2,0.6-0.3,1-0.2
				c6.9,2.2,14.2-1.5,14.3-1.5c0.3-0.2,0.7-0.1,1,0.1s0.5,0.5,0.4,0.9C150.3,173.9,148.5,177.2,140.6,177.3
				C140.7,177.3,140.7,177.3,140.6,177.3z M136.2,171.8c0.7,1.5,2.2,3.5,4.5,3.5c0,0,0,0,0,0c5.5-0.1,7.2-1.7,7.7-4.9
				C146,171.3,141.2,172.7,136.2,171.8z"/>
		</g>
		<g>
			<path style="fill:#231F20;" d="M140.7,176.8c-4.9,0-6.5-6.1-6.6-6.3c0-0.2,0-0.4,0.1-0.5c0.1-0.1,0.3-0.2,0.5-0.1
				c7.1,2.2,14.6-1.5,14.7-1.5c0.2-0.1,0.4-0.1,0.5,0s0.2,0.3,0.2,0.5C149.8,173.7,148.1,176.7,140.7,176.8
				C140.7,176.8,140.7,176.8,140.7,176.8z M135.3,171.1c0.6,1.6,2.2,4.7,5.3,4.7c0,0,0,0,0,0c6.3-0.1,7.9-2.2,8.4-6.2
				C147,170.5,141.2,172.5,135.3,171.1z"/>
		</g>
		<path style="fill:#FFFFFF;" d="M147.8,170c-0.2,1-0.6,2-1.2,2.6c-1.2,1-6.2,1.9-8.4,1.2c-1.1-0.3-2.3-1.7-3.1-3
			C140,172.2,145.1,170.9,147.8,170z"/>
		<g>
			<path style="fill:#231F20;" d="M144.9,165.8c-0.4,0-0.7-0.3-0.7-0.7c0-0.4,0.3-0.8,0.7-0.8c0.3,0,1.4-0.2,1.9-0.7
				c0.2-0.2,0.2-0.4,0.2-0.7c0-0.3-0.1-0.5-0.3-0.6c-0.6-0.5-1.8-0.4-2.2-0.4c-0.4,0.1-0.8-0.2-0.8-0.6c-0.1-0.4,0.2-0.8,0.6-0.8
				c0.2,0,2.1-0.3,3.3,0.7c0.5,0.4,0.8,1,0.9,1.7c0.1,0.7-0.1,1.3-0.6,1.8C146.9,165.7,145.1,165.8,144.9,165.8
				C144.9,165.8,144.9,165.8,144.9,165.8z"/>
		</g>
	</g>
	<g>
		<g>
			<path style="fill:#FFD4A6;" d="M189.3,253.7c6,3.5,15.1-7.8,15.1-7.8l2.4,0.2c0,0,6.3,3,8.3-0.2c1.2-1.8-10-3.9-10-3.9l2.8-0.2
				c0,0,10.6,3,9.9-0.3c-0.4-1.6-8-2.8-8-2.8s8.4,0.8,8.1-1c-0.6-3.7-11.8-4.4-11.8-4.4l-0.4-0.1c0,0,10.4-0.3,10.7-2.3
				c0.5-3.9-12-2.2-13.9-1.5c-6.1,2.4-17.2,14.1-17.2,14.1L189.3,253.7z"/>
			<path style="fill:#231F20;" d="M191.9,255.3c-1,0-2.1-0.2-3-0.8c-0.2-0.1-0.3-0.3-0.4-0.5l-4.1-10.3c-0.1-0.4-0.1-0.8,0.2-1.1
				c0.5-0.5,11.3-11.9,17.6-14.3c1.4-0.6,11.3-2.2,14.3,0.2c0.8,0.6,1.1,1.4,1,2.4c-0.1,1.1-1.5,1.9-4.1,2.4c2.7,0.8,5.2,2,5.5,4.1
				c0.1,0.5-0.1,0.9-0.4,1.3c-0.3,0.3-0.8,0.6-1.5,0.7c1,0.5,1.6,1,1.8,1.7c0.2,0.8,0,1.5-0.6,2c-0.6,0.6-1.9,0.8-3.2,0.8
				c0.5,0.3,0.9,0.7,1.1,1.1c0.2,0.5,0.1,1-0.1,1.4c-2.3,3.6-8.3,1.1-9.4,0.6l-1.7-0.1C203.4,248.7,197.4,255.3,191.9,255.3z
				 M190.1,252.9c4.4,2,11.2-4.8,13.5-7.7c0.2-0.3,0.5-0.4,0.9-0.4l2.4,0.2c0.1,0,0.2,0,0.4,0.1c0.1,0,5,2.3,6.8,0.5
				c-1.1-0.8-5.4-2-9.1-2.7c-0.5-0.1-0.8-0.5-0.8-1s0.4-0.9,0.9-0.9l2.8-0.2c0.1,0,0.2,0,0.4,0c3.9,1.1,8,1.6,8.6,0.9c0,0,0,0,0,0
				c-0.5-0.6-3.8-1.6-7.2-2.1c-0.5-0.1-0.9-0.6-0.8-1.1c0.1-0.5,0.5-0.9,1.1-0.9c3,0.3,6,0.2,7-0.2c-0.9-1.8-6.8-3-10.8-3.3
				c-0.1,0-0.1,0-0.2,0l-0.4-0.1c-0.5-0.1-0.8-0.6-0.8-1.1c0.1-0.5,0.5-0.9,1-0.9c4.6-0.1,9-0.8,9.8-1.5c0-0.1-0.1-0.3-0.2-0.4
				c-2-1.6-10.5-0.6-12.4,0.1c-5.2,2-14.3,11.2-16.4,13.4L190.1,252.9z"/>
		</g>
		<g>
			<path style="fill:#231F20;" d="M214.1,239.9C214.1,239.9,214.1,239.9,214.1,239.9c-0.1,0-5-0.2-8.8-0.3c-0.6,0-1-0.5-1-1
				c0-0.6,0.5-1,1-1c3.9,0.1,8.8,0.3,8.8,0.3c0.6,0,1,0.5,1,1C215.1,239.5,214.6,239.9,214.1,239.9z"/>
		</g>
		<g>
			<path style="fill:#231F20;" d="M203.6,234.3c-0.5,0-0.9-0.4-1-0.9c-0.1-0.5,0.3-1.1,0.9-1.1l2.6-0.3c0.5-0.1,1.1,0.3,1.1,0.9
				s-0.3,1.1-0.9,1.1l-2.6,0.3C203.7,234.3,203.6,234.3,203.6,234.3z"/>
		</g>
	</g>
	<g>
		<g>
			<path style="fill:#231F20;" d="M257.5,365.3c-0.5,0-0.9-0.3-1-0.8L235,257c-0.1-0.5,0.2-1.1,0.8-1.2c0.5-0.1,1.1,0.2,1.2,0.8
				l21.5,107.4c0.1,0.5-0.2,1.1-0.8,1.2C257.6,365.3,257.5,365.3,257.5,365.3z"/>
		</g>
		<g>
			<path style="fill:#231F20;" d="M283.3,365.3c-0.1,0-0.1,0-0.2,0c-0.5-0.1-0.9-0.6-0.8-1.2l21.5-107.4c0.1-0.5,0.6-0.9,1.2-0.8
				c0.5,0.1,0.9,0.6,0.8,1.2l-21.5,107.4C284.2,365,283.8,365.3,283.3,365.3z"/>
		</g>
	</g>
	<g>
		<path style="fill:#231F20;" d="M271.4,278c-0.8,0-1.6-0.1-2.5-0.2c-5.4-1-9.4-4.3-12.1-8.5c-0.7,0-1.5,0-2.3-0.1
			c-20.9-1.5-22.9-23.6-22.9-23.8c0-0.5,0.4-1,0.9-1.1c0.6,0,1,0.4,1.1,0.9c0.1,0.8,1.9,20.6,21.1,22c0.4,0,0.7,0,1,0
			c-2.3-4.4-3.3-9.3-3.2-13.1c0.2-5.7,2.6-9.4,6.5-9.8c3-0.3,5.9,1.3,7.9,4.4c2.4,3.7,3.7,10,0.7,14.9c-1.3,2.2-3.8,4.7-8.5,5.4
			c2.4,3.4,5.8,6,10.1,6.8c4.3,0.8,8.1-0.8,11-3.6c-1.5-1.2-2.7-2.8-3.7-4.9c-3.1-6.2-3-15.2,0.1-18.9c1.3-1.5,3.1-2.1,5-1.5
			c5.7,1.8,8.1,7.9,6.3,15.6c-0.8,3.3-2.4,6.6-4.6,9.2c1.3,0.6,2.8,0.9,4.5,0.8c14.5-0.8,19-25.2,19.1-25.5c0.1-0.5,0.6-0.9,1.2-0.8
			c0.5,0.1,0.9,0.6,0.8,1.2c-0.2,1.1-4.9,26.2-20.9,27.1c-2.2,0.1-4.2-0.3-6-1.3C279.1,276.1,275.5,278,271.4,278z M280.2,248.7
			c-0.7,0-1.4,0.3-2,1c-2.4,2.8-2.8,10.7,0.1,16.7c0.7,1.5,1.8,3.1,3.3,4.3c2.1-2.5,3.6-5.5,4.3-8.6c1.2-5,0.7-11.5-4.9-13.2
			C280.8,248.8,280.5,248.7,280.2,248.7z M259.7,246.3c-0.2,0-0.4,0-0.5,0c-2.8,0.3-4.6,3.3-4.8,7.9c-0.1,3.9,1,8.8,3.5,13
			c3.7-0.4,6.4-1.9,8-4.5c2.4-4,1.4-9.5-0.7-12.8C263.7,247.5,261.7,246.3,259.7,246.3z"/>
	</g>
	<g>
		<path style="fill:#F15A29;" d="M109.8,220.1c0,0,1.5,53.8,63.9,40.1l18.3-4.6l-4-16.4c0,0-26.8,2.8-37.6,0.3
			c-16.6-3.9-19.9-28.8-19.9-28.8"/>
		<path style="fill:#231F20;" d="M154.8,263.4c-11.8,0-21.5-3-29.2-9c-16.1-12.5-16.8-33.5-16.8-34.3c0-0.6,0.4-1,1-1
			c0.6,0,1,0.4,1,1c0,0.2,0.8,20.9,16.1,32.8c11,8.6,26.7,10.7,46.6,6.3l17.3-4.4l-3.6-14.6c-4.8,0.5-27.2,2.5-37.1,0.2
			c-17-4-20.6-28.6-20.7-29.6c-0.1-0.5,0.3-1.1,0.9-1.1c0.5-0.1,1.1,0.3,1.1,0.9c0,0.2,3.5,24.2,19.2,27.9c10.5,2.5,37-0.3,37.3-0.3
			c0.5,0,1,0.3,1.1,0.8l4,16.4c0.1,0.5-0.2,1.1-0.7,1.2l-18.3,4.6C167.1,262.7,160.7,263.4,154.8,263.4z"/>
	</g>
	<g>
		<path style="fill:#FFFFFF;" d="M337.5,429.6c2.8-1.2,8.1-3,13.4-3.6l39,0.3l0,0.3c0,0,5,14.1,1.1,27.5h-69.1
			C321,440.4,330.3,433.2,337.5,429.6z"/>
		<path style="fill:#231F20;" d="M391,455.2h-69.1c-0.5,0-1-0.4-1-0.9c-0.9-14.1,8.3-21.6,16.2-25.5c0,0,0,0,0,0
			c3.3-1.4,8.6-3.1,13.7-3.6c0,0,0.1,0,0.1,0l39,0.3c0.5,0,1,0.4,1,0.9l0,0.2c0.5,1.6,4.8,15,1.1,28
			C391.9,454.9,391.5,455.2,391,455.2z M322.9,453.2h67.4c3-11.5-0.5-23.6-1.2-25.8l-38.1-0.3c-4.8,0.5-10,2.2-13,3.5
			C330.8,434.1,322.5,440.8,322.9,453.2z"/>
	</g>
	<g>
		<path style="fill:#7AAEEC;" d="M440.9,425.9c-4.2-59.1-33.3-171.3-33.3-171.3l-20.6,3l0-0.4l-32.7-0.5l-3.2,169.8l38.7,0.2l-1-78
			c6.4,33.5,12.9,77.3,12.9,77.3H440.9z"/>
		<path style="fill:#231F20;" d="M389.8,427.6C389.8,427.6,389.8,427.6,389.8,427.6l-38.7-0.2c-0.3,0-0.5-0.1-0.7-0.3
			c-0.2-0.2-0.3-0.5-0.3-0.7l3.2-169.8c0-0.5,0.5-1,1-1c0,0,0,0,0,0l32.7,0.5c0.3,0,0.5,0.1,0.7,0.3l19.8-2.9c0.5-0.1,1,0.2,1.1,0.7
			c0.3,1.1,29.1,113,33.3,171.5c0,0.3-0.1,0.5-0.3,0.8c-0.2,0.2-0.5,0.3-0.7,0.3h-39.1c-0.5,0-0.9-0.4-1-0.9
			c-0.1-0.4-5.2-34.8-10.8-65.7l0.8,66.2c0,0.3-0.1,0.5-0.3,0.7C390.4,427.5,390.1,427.6,389.8,427.6z M352.1,425.4l36.7,0.2l-1-77
			c0-0.5,0.4-1,0.9-1c0.5,0,1,0.3,1.1,0.8c5.8,30.6,11.9,70.2,12.8,76.5h37.1c-4.2-55.9-30.2-158.7-32.9-169.2l-19.7,2.9
			c-0.3,0-0.6,0-0.8-0.2c-0.1,0-0.1-0.1-0.2-0.2l-31-0.5L352.1,425.4z"/>
	</g>
	<g>
		<path style="fill:#231F20;" d="M388.9,349.6c-0.5,0-0.9-0.3-1-0.8l-10.8-44.1l-5.3-7.1c-0.3-0.4-0.2-1.1,0.2-1.4s1.1-0.2,1.4,0.2
			l5.4,7.3c0.1,0.1,0.1,0.2,0.2,0.4l10.8,44.3c0.1,0.5-0.2,1.1-0.7,1.2C389,349.6,388.9,349.6,388.9,349.6z"/>
	</g>
	<g>
		<path style="fill:#F15A29;" d="M378.2,186.7c0,0,1.2,33.8-39.7,56.9c-5.5,3.1-12.4,1.8-16.3-3.1c-5.1-6.4-12.8-16.9-17.5-41.8
			l14.9-6.7l14.4,25.3l23.5-21.2"/>
		<path style="fill:#231F20;" d="M332.1,246.3c-4.1,0-8-1.8-10.7-5.2c-4.5-5.6-12.8-16.1-17.7-42.2c-0.1-0.5,0.2-0.9,0.6-1.1
			l14.9-6.7c0.5-0.2,1,0,1.3,0.4l13.7,24.2l22.6-20.3c0.4-0.4,1-0.3,1.4,0.1c0.4,0.4,0.3,1-0.1,1.4L334.6,218
			c-0.2,0.2-0.5,0.3-0.8,0.2c-0.3,0-0.6-0.2-0.7-0.5l-13.9-24.5l-13.4,6c4.9,25.1,12.9,35.2,17.2,40.6c3.6,4.6,9.9,5.8,15,2.9
			c39.9-22.6,39.2-55.6,39.2-56c0-0.6,0.4-1,1-1c0.5,0,1,0.4,1,1c0,0.3,0.7,34.6-40.2,57.8C336.8,245.7,334.4,246.3,332.1,246.3z"/>
	</g>
	<g>
		<path style="fill:#F15A29;" d="M367.6,183.6c0,0-14.1,7.9-15.6,17.7c-1.5,9.8-3.6,88.3-3.6,88.3s35.4,4.8,69.4-4.4
			c0,0-10.2-92.3-13.1-95.9s-20.6-10-26.5-9.1C372.3,181.1,367.6,183.6,367.6,183.6z"/>
		<path style="fill:#231F20;" d="M371.1,291.9c-13.5,0-22.7-1.2-22.9-1.2c-0.5-0.1-0.9-0.5-0.9-1c0.1-3.2,2.1-78.7,3.6-88.4
			c1.6-10.2,15.5-18.1,16.1-18.5c0,0,0,0,0,0c0.2-0.1,4.9-2.5,10.9-3.5c6.3-1,24.4,5.7,27.4,9.5c3,3.6,11.6,81,13.3,96.4
			c0.1,0.5-0.3,0.9-0.7,1.1C401.4,290.7,384.3,291.9,371.1,291.9z M349.4,288.8c5.6,0.6,37.1,3.7,67.3-4.3
			c-4-36.6-10.7-91.5-12.8-94.5c-2.7-3.3-19.9-9.6-25.6-8.8c-5.5,0.9-10,3.1-10.3,3.3c-0.5,0.3-13.7,7.9-15.1,17
			C351.6,210.6,349.7,280,349.4,288.8z"/>
	</g>
	<g>
		<path style="fill:#FFD4A6;" d="M382.6,178.8l-0.1,11c0,4.3-3.9,7.7-8.6,7.4l0,0c-4.5-0.3-8.1-3.8-8.1-8l-0.1-6.7"/>
		<path style="fill:#231F20;" d="M374.6,198.2c-0.2,0-0.4,0-0.6,0c-5-0.3-9-4.3-9.1-9l-0.1-6.7c0-0.6,0.4-1,1-1c0,0,0,0,0,0
			c0.5,0,1,0.4,1,1l0.1,6.7c0,3.7,3.2,6.8,7.2,7c2.1,0.1,4.1-0.6,5.5-1.9c1.3-1.2,2-2.8,2-4.5l0.1-11c0-0.5,0.5-1,1-1c0,0,0,0,0,0
			c0.6,0,1,0.5,1,1l-0.1,11c0,2.3-0.9,4.4-2.6,6C379.3,197.3,377,198.2,374.6,198.2z"/>
	</g>
	<g>
		<path style="fill:#231F20;" d="M359.7,145.3c0,0-2.2-11.7,0.8-14.7c3-3,6.2-1.4,6.2-1.4s5-3.8,13.6-2.2c8.5,1.6,14.4,4.7,14.4,4.7
			s6.1,2.5,9.8,8.2c3.7,5.7-2.9,19.6-6.9,24.5c-4,4.9-7.2,7.2-11.7,5.6c-4.5-1.7-11.4-4.9-10.1-9.7c1.2-4.8,4.4-12,1.4-13.7
			C374,145,359.7,145.3,359.7,145.3z"/>
		<g>
			<path style="fill:#FFD4A6;" d="M363.5,139c0,0-14.4,26.3-8.4,36.2c5.6,9.2,27.2,14.3,30.9,0.3l0.9-3.3c0,0-0.9,4.2,3.9,4.8
				s10.5-9.7,7.2-12c-3.2-2.3-6.6,1.8-6.6,1.8l-2.9-1.2c0,0,4.8-6.1,0.9-12.9c0,0,2.6-5.6-1.7-8.3s-8.3-1.3-13.2-2.4
				C368.8,140.7,364.3,137.2,363.5,139z"/>
			<path style="fill:#231F20;" d="M373.4,185.1c-7.5,0-15.8-3.9-19.2-9.4c-6.2-10.2,7.6-35.8,8.4-37.2c0.9-1.8,3.1-0.9,5.9,0.3
				c1.8,0.8,3.9,1.7,6.3,2.3c1.8,0.4,3.5,0.5,5.2,0.5c2.7,0.1,5.5,0.2,8.4,2c3.7,2.4,3.2,6.7,2.3,9.1c2.9,5.4,0.7,10.3-0.5,12.5
				l1.1,0.4c1.6-1.6,4.6-3.4,7.4-1.4c1.6,1.1,1.8,3.4,0.7,6.2c-1.5,4-5.2,7.9-8.6,7.5c-1.7-0.2-3-0.8-3.8-1.9
				c-1.5,4.9-5.2,8-10.6,8.8C375.3,185,374.4,185.1,373.4,185.1z M364.4,139.5c-0.6,1.1-14,26.1-8.4,35.1c3.4,5.5,12.7,9.4,20,8.3
				c3.3-0.5,7.6-2.2,9.1-7.7l0.9-3.3c0.1-0.5,0.7-0.8,1.2-0.7c0.5,0.1,0.9,0.6,0.7,1.2c0,0-0.3,1.4,0.5,2.4c0.5,0.7,1.4,1.1,2.6,1.2
				c2.3,0.3,5.3-3.1,6.5-6.3c0.7-1.9,0.7-3.4,0-3.9c-2.4-1.7-5.1,1.5-5.2,1.6c-0.3,0.3-0.7,0.5-1.1,0.3l-2.9-1.2
				c-0.3-0.1-0.5-0.4-0.6-0.7c-0.1-0.3,0-0.6,0.2-0.9c0.2-0.2,4.4-5.7,0.8-11.7c-0.2-0.3-0.2-0.6,0-0.9c0.1-0.2,2.2-4.8-1.3-7
				c-2.4-1.5-4.7-1.6-7.4-1.7c-1.7-0.1-3.5-0.1-5.5-0.6c-2.6-0.6-4.8-1.6-6.7-2.4C366.4,140.1,364.9,139.5,364.4,139.5z M363.5,139
				L363.5,139L363.5,139z"/>
		</g>
		
			<ellipse transform="matrix(0.3759 -0.9266 0.9266 0.3759 88.7306 446.1238)" style="fill:#231F20;" cx="375.6" cy="157.2" rx="1.7" ry="1"/>
		
			<ellipse transform="matrix(0.3759 -0.9266 0.9266 0.3759 85.0291 432.8845)" style="fill:#231F20;" cx="363.9" cy="153.3" rx="1.7" ry="1"/>
		<g>
			<path style="fill:#231F20;" d="M381,154.1c-0.3,0-0.6-0.1-0.8-0.4c-1.8-2.1-3.1-2.7-3.2-2.7c-0.5-0.2-0.7-0.8-0.5-1.3
				c0.2-0.5,0.8-0.7,1.3-0.5c0.2,0.1,1.8,0.8,3.9,3.2c0.4,0.4,0.3,1.1-0.1,1.4C381.5,154,381.3,154.1,381,154.1z"/>
		</g>
		<g>
			<path style="fill:#231F20;" d="M363.7,148.5c-0.4,0-0.8-0.2-0.9-0.6c-0.2-0.5,0-1.1,0.5-1.3c0.2-0.1,1.7-0.7,4.1-0.4
				c0.5,0.1,1,0.5,0.9,1.1c-0.1,0.6-0.5,1-1.1,0.9c-2-0.2-3.1,0.3-3.1,0.3C364,148.5,363.8,148.5,363.7,148.5z"/>
		</g>
		<g>
			<path style="fill:#231F20;" d="M368.7,160.8C368.7,160.8,368.7,160.8,368.7,160.8c-0.3,0-2.1-0.2-3-1.3c-0.5-0.5-0.6-1.2-0.5-2
				c0.1-0.7,0.4-1.3,1-1.7c1.3-0.9,3.2-0.6,3.4-0.6c0.5,0.1,0.9,0.6,0.8,1.2c-0.1,0.5-0.6,0.9-1.2,0.8l0,0c-0.4-0.1-1.4-0.1-1.9,0.2
				c-0.1,0.1-0.2,0.2-0.2,0.4c0,0.2,0,0.4,0.1,0.4c0.3,0.4,1.2,0.6,1.6,0.6c0.5,0,1,0.5,0.9,1.1
				C369.7,160.4,369.2,160.8,368.7,160.8z"/>
		</g>
		<path style="fill:#231F20;" d="M358.5,164.7c0,0,0.9-3.4,4.1-3.6c3.2-0.2,9.7,1.5,11,4c1.3,2.5-0.6,5.5,2.7,6
			c3.2,0.6,8.9-3.6,13-8.2l2.9,4.1c0,0-4.2,5.6-5.6,7.9c-3.1,5.1-4.2,8.8-14.7,8.9c-13,0.1-19-8.2-18.1-15.4l0.4-3.5
			C354.1,165,356.7,171,358.5,164.7z"/>
		<path style="fill:#FFFFFF;" d="M361.4,164.9l10.2,2.3c0,0-2.1,4.8-5.2,5.1C363.3,172.5,360.8,169.6,361.4,164.9z"/>
	</g>
	<g>
		<path style="fill:#231F20;" d="M302.5,180.6c-0.4,0-0.7-0.2-0.9-0.5c-2.1-4.2-6.1-8.4-6.1-8.4c-0.4-0.4-0.4-1,0-1.4
			c0.4-0.4,1-0.4,1.4,0c0.2,0.2,4.2,4.4,6.5,8.9c0.2,0.5,0.1,1.1-0.4,1.3C302.8,180.5,302.7,180.6,302.5,180.6z"/>
	</g>
	<g>
		<path style="fill:#231F20;" d="M298.8,182.5c-0.2,0-0.5-0.1-0.6-0.2l-5-4.2c-0.4-0.4-0.5-1-0.1-1.4c0.4-0.4,1-0.5,1.4-0.1l5,4.2
			c0.4,0.4,0.5,1,0.1,1.4C299.3,182.4,299,182.5,298.8,182.5z"/>
	</g>
	<g>
		<g>
			<path style="fill:#FFD4A6;" d="M384.3,243.1c0,0-9.4-7-11.4-8c-2-1-14.1-2.8-16.8-0.3c-2.7,2.5,4.2,3.1,6,2.6l5.4,1.9
				c0,0-5.2,2.1-8,4.6c-2.9,2.5-5.7,5-4.4,6.5s3.6,0.4,3.6,0.4s-2.6,2.2-0.5,3.7c2.1,1.6,8.5-3.6,8.5-3.6l3.6-1.5
				c0,0-4.6,3.7-5.2,6.4c-0.6,2.7,3.3,0.9,4.7-0.4c1.4-1.2,3-1.6,3-1.6s7.7,1.9,10.5-0.1S388.5,245.3,384.3,243.1z"/>
			<path style="fill:#231F20;" d="M365.9,258.2c-0.4,0-0.8-0.1-1.1-0.3c-0.4-0.2-1.1-0.9-0.8-2.3c0.2-0.7,0.5-1.5,1.1-2.3
				c-2.4,1.6-5.8,3.4-7.6,2c-1-0.7-1.2-1.6-1.2-2.2c0-0.3,0.1-0.7,0.2-1c-0.8-0.1-1.6-0.4-2.2-1.1c-0.4-0.5-0.6-1.1-0.6-1.7
				c0.1-1.9,2.4-3.9,5.1-6.2c1.7-1.5,4.2-2.8,6-3.7l-2.8-1c-1.7,0.3-6.2,0.2-7.3-1.7c-0.2-0.4-0.6-1.5,0.7-2.7
				c3.2-3,16.1-0.7,17.9,0.2c2,1,10.3,7.1,11.6,8c1.6,0.9,2.6,2.4,2.7,4.4c0.2,3.2-1.8,6.6-3.7,8c-2.9,2-9.5,0.6-11,0.3
				c-0.4,0.1-1.5,0.5-2.4,1.3C369.8,256.6,367.7,258.2,365.9,258.2z M370.3,248.4c0.3,0,0.7,0.2,0.9,0.5c0.3,0.4,0.2,1-0.2,1.3
				c-1.2,1-4.4,3.9-4.9,5.8c0,0.1,0,0.1,0,0.2c0.6,0,2.2-0.7,3.1-1.6c1.6-1.4,3.4-1.8,3.5-1.8c0.1,0,0.3,0,0.5,0
				c2.8,0.7,7.9,1.3,9.6,0.1c1.5-1,3-3.8,2.9-6.2c-0.1-1.3-0.7-2.2-1.7-2.8c0,0-0.1-0.1-0.1-0.1c-2.6-1.9-9.7-7.1-11.3-7.9
				c-2.2-1.1-13.6-2.5-15.7-0.5c-0.1,0.1-0.2,0.2-0.3,0.3c0.7,0.6,4,1,5.2,0.6c0.2-0.1,0.4-0.1,0.6,0l5.4,1.9
				c0.4,0.1,0.7,0.5,0.7,0.9c0,0.4-0.2,0.8-0.6,0.9c0,0-5,2-7.7,4.4c-1.8,1.6-4.3,3.8-4.4,4.8c0,0.1,0,0.2,0.1,0.3
				c0.8,0.9,2.4,0.2,2.4,0.2c0.5-0.2,1-0.1,1.3,0.4c0.3,0.4,0.2,1-0.2,1.3c-0.3,0.3-1,1-1,1.6c0,0.1,0,0.3,0.4,0.6
				c0.8,0.6,4.2-1.1,7.3-3.6c0.1-0.1,0.1-0.1,0.2-0.1l3.6-1.5C370,248.4,370.1,248.4,370.3,248.4z"/>
		</g>
		<g>
			<path style="fill:#231F20;" d="M358.2,252.1c-0.3,0-0.5-0.1-0.7-0.3c-0.4-0.4-0.4-1,0-1.4c0.3-0.2,6.4-6.1,12.2-6.6
				c0.5,0,1,0.4,1.1,0.9c0,0.6-0.4,1-0.9,1.1c-5.1,0.4-10.9,6-11,6C358.7,252,358.5,252.1,358.2,252.1z"/>
		</g>
	</g>
	<g>
		<path style="fill:#F15A29;" d="M394.7,184.1c0,0,32.9,7.7,44.4,53.3c1.5,6.1-1.5,12.4-7.3,14.9c-7.5,3.2-21.3,5.7-46.6,3.7
			l-0.9-14l28.2-7.2l-14.2-28.3"/>
		<path style="fill:#231F20;" d="M402,257.7c-5.2,0-10.8-0.2-16.9-0.7c-0.5,0-0.9-0.4-0.9-0.9l-0.9-14c0-0.5,0.3-0.9,0.8-1l27-6.9
			L397.4,207c-0.2-0.5,0-1.1,0.4-1.3c0.5-0.2,1.1,0,1.3,0.4l14.2,28.3c0.1,0.3,0.1,0.6,0,0.9c-0.1,0.3-0.4,0.5-0.7,0.6l-27.4,7
			l0.8,12.3c25.6,1.9,38.8-0.9,45.3-3.7c5.3-2.3,8.2-8.1,6.7-13.7c-11.2-44.4-43.4-52.5-43.7-52.6c-0.5-0.1-0.9-0.7-0.7-1.2
			c0.1-0.5,0.7-0.9,1.2-0.7c0.3,0.1,33.6,8.4,45.2,54c1.7,6.6-1.6,13.4-7.9,16C425.1,256.2,415,257.7,402,257.7z"/>
	</g>
	<g>
		<g>
			<path style="fill:#FFFFFF;" d="M454.7,428.3c-2.8-1.2-6.1-2.2-9.9-3l-42.4-0.3l0,0.3c0,0-5,14.1-1.1,27.5h69.1
				C471.3,439.1,462,431.9,454.7,428.3z"/>
			<path style="fill:#231F20;" d="M470.4,453.8h-69.1c-0.4,0-0.8-0.3-1-0.7c-3.7-13,0.6-26.4,1.1-28l0-0.2c0-0.5,0.5-0.9,1-0.9
				c0,0,0,0,0,0l42.4,0.3c0.1,0,0.1,0,0.2,0c3.7,0.7,7.1,1.7,10.1,3c0,0,0,0,0,0c7.9,3.9,17.1,11.4,16.2,25.5
				C471.3,453.4,470.9,453.8,470.4,453.8z M402,451.8h67.4c0.4-12.3-7.9-19.1-15.1-22.6c-2.8-1.2-6.1-2.2-9.6-2.9l-41.5-0.3
				C402.5,428.3,399,440.4,402,451.8z"/>
		</g>
		<g>
			<path style="fill:#231F20;" d="M469.5,446.3h-69c-0.6,0-1-0.4-1-1s0.4-1,1-1h69c0.6,0,1,0.4,1,1S470.1,446.3,469.5,446.3z"/>
		</g>
	</g>
	<g>
		<path style="fill:#231F20;" d="M391.9,447.3h-69c-0.6,0-1-0.4-1-1s0.4-1,1-1h69c0.6,0,1,0.4,1,1S392.5,447.3,391.9,447.3z"/>
	</g>
</g>
</svg>
