<svg xmlns="http://www.w3.org/2000/svg" width="280" height="87" viewBox="0 0 280 87" fill="none"><path d="M0.896367 0.641304C0.612673 0.858429 0.399902 14.0306 0.399902 29.8806V58.6856L2.88223 63.4623C7.27949 72.2196 13.3789 77.9372 23.7337 83.2205C32.9538 87.9248 35.7908 87.9248 45.3654 83.1481C54.6564 78.5162 62.2452 71.0616 66.0042 63.028L68.4865 57.6L68.3447 29.0844L68.1319 0.496552L34.7269 0.279427C16.3577 0.207054 1.10914 0.351807 0.896367 0.641304ZM44.798 13.0897L37.8475 20.2548L40.188 20.7614C43.025 21.4128 46.3584 23.005 48.1314 24.5972C49.3371 25.6828 49.2662 25.8276 47.1385 28.0712L44.869 30.4596L42.7413 28.9397C39.8334 26.8408 34.656 26.4066 31.3935 27.9988C23.5919 31.7623 23.5919 45.2239 31.3935 48.9874C34.7269 50.652 40.1171 50.1454 43.0959 47.9018L45.2236 46.3095L47.3513 48.4084L49.479 50.4349L46.9257 52.6785C40.0462 58.7579 27.6345 57.3105 22.0316 49.7835C21.0387 48.4808 19.762 45.8753 19.1237 43.9936L17.9889 40.592L16.074 42.2566C15.0811 43.1251 12.386 45.6582 10.1164 47.8294L6.07379 51.81V28.8673V5.92464H28.9112H51.8195L44.798 13.0897Z" fill="white"></path><path d="M104.185 23.5866C98.7277 23.5866 94.5189 19.7851 94.5189 14.2187C94.5189 8.62515 98.7277 4.85085 104.185 4.85085C108.15 4.85085 110.458 6.99596 111.734 9.27683L108.421 10.906C107.661 9.43975 106.032 8.27216 104.185 8.27216C100.873 8.27216 98.4833 10.7974 98.4833 14.2187C98.4833 17.64 100.873 20.1653 104.185 20.1653C106.032 20.1653 107.661 18.9977 108.421 17.5314L111.734 19.1335C110.458 21.3872 108.15 23.5866 104.185 23.5866ZM128.272 23.2607H115.455V5.14954H128.272V8.54369H119.311V12.3451H128.082V15.7393H119.311V19.8666H128.272V23.2607ZM147.402 23.2607H142.949L139.392 16.8254H136.568V23.2607H132.712V5.14954H141.184C144.958 5.14954 147.294 7.62048 147.294 10.9875C147.294 14.1644 145.257 15.9022 143.302 16.3638L147.402 23.2607ZM140.641 13.4313C142.162 13.4313 143.329 12.5081 143.329 10.9603C143.329 9.4669 142.162 8.54369 140.641 8.54369H136.568V13.4313H140.641ZM159.651 23.2607H155.768V8.54369H150.473V5.14954H164.919V8.54369H159.651V23.2607ZM172.673 23.2607H168.817V5.14954H172.673V23.2607ZM181.55 23.2607H177.694V5.14954H190.511V8.54369H181.55V12.3451H190.321V15.7393H181.55V23.2607ZM198.489 23.2607H194.633V5.14954H198.489V23.2607ZM216.327 23.2607H203.51V5.14954H216.327V8.54369H207.366V12.3451H216.137V15.7393H207.366V19.8666H216.327V23.2607ZM227.936 23.2607H220.767V5.14954H227.909C233.584 5.14954 237.521 8.76092 237.521 14.1916C237.521 19.6765 233.584 23.2607 227.936 23.2607ZM227.909 19.8666C231.493 19.8666 233.584 17.287 233.584 14.1916C233.584 11.0146 231.629 8.54369 227.936 8.54369H224.623V19.8666H227.909Z" fill="white"></path><path d="M100.469 48.5522H94.9992V36.5509H100.343C102.43 36.5509 103.708 37.8104 103.708 39.6097C103.708 41.1211 102.7 42.1287 101.603 42.3626C102.88 42.5606 103.942 43.8741 103.942 45.3135C103.942 47.2388 102.664 48.5522 100.469 48.5522ZM100.091 41.7509C101.441 41.7509 102.16 40.9232 102.16 39.8256C102.16 38.746 101.441 37.8824 100.091 37.8824H96.4926V41.7509H100.091ZM100.181 47.2208C101.567 47.2208 102.394 46.4291 102.394 45.1516C102.394 44.054 101.639 43.0824 100.181 43.0824H96.4926V47.2208H100.181ZM107.339 38.6201C106.836 38.6201 106.422 38.2242 106.422 37.7204C106.422 37.2166 106.836 36.8028 107.339 36.8028C107.843 36.8028 108.239 37.2166 108.239 37.7204C108.239 38.2242 107.843 38.6201 107.339 38.6201ZM108.005 48.5522H106.656V39.8616H108.005V48.5522ZM114.582 52.0789C113.125 52.0789 112.117 51.791 111.074 50.7654L111.757 49.7938C112.477 50.6394 113.341 50.9633 114.582 50.9633C116.022 50.9633 117.389 50.2616 117.389 48.4263V47.1128C116.742 47.9945 115.68 48.6602 114.456 48.6602C112.189 48.6602 110.588 46.9689 110.588 44.1619C110.588 41.373 112.171 39.6457 114.456 39.6457C115.626 39.6457 116.688 40.2215 117.389 41.1751V39.8616H118.739V48.4263C118.739 51.1792 116.706 52.0789 114.582 52.0789ZM114.798 47.4547C115.86 47.4547 116.903 46.8069 117.389 46.0512V42.2367C116.903 41.499 115.86 40.8512 114.798 40.8512C113.035 40.8512 111.991 42.2367 111.991 44.1619C111.991 46.0692 113.035 47.4547 114.798 47.4547ZM127.576 48.7682C124.121 48.7682 121.404 46.2491 121.404 42.5606C121.404 38.872 124.121 36.353 127.576 36.353C129.699 36.353 131.174 37.3606 132.128 38.728L130.886 39.4298C130.203 38.4042 128.943 37.6844 127.576 37.6844C124.949 37.6844 122.951 39.6817 122.951 42.5606C122.951 45.4035 124.949 47.4367 127.576 47.4367C128.943 47.4367 130.203 46.699 130.886 45.6914L132.146 46.3751C131.138 47.7606 129.699 48.7682 127.576 48.7682ZM138.186 48.7682C135.541 48.7682 133.886 46.717 133.886 44.1979C133.886 41.6789 135.541 39.6457 138.186 39.6457C140.831 39.6457 142.487 41.6789 142.487 44.1979C142.487 46.717 140.831 48.7682 138.186 48.7682ZM138.186 47.5626C140.04 47.5626 141.065 45.9792 141.065 44.1979C141.065 42.4346 140.04 40.8512 138.186 40.8512C136.333 40.8512 135.307 42.4346 135.307 44.1979C135.307 45.9792 136.333 47.5626 138.186 47.5626ZM156.921 48.5522H155.571V42.6505C155.571 41.5529 155.103 40.8512 153.97 40.8512C153.07 40.8512 152.116 41.481 151.667 42.1827V48.5522H150.317V42.6505C150.317 41.5529 149.867 40.8512 148.716 40.8512C147.834 40.8512 146.898 41.499 146.431 42.2007V48.5522H145.081V39.8616H146.431V41.1211C146.808 40.5633 147.96 39.6457 149.256 39.6457C150.569 39.6457 151.325 40.3654 151.577 41.2651C152.062 40.4734 153.232 39.6457 154.492 39.6457C156.075 39.6457 156.921 40.5273 156.921 42.2727V48.5522ZM171.847 48.5522H170.497V42.6505C170.497 41.5529 170.029 40.8512 168.896 40.8512C167.996 40.8512 167.043 41.481 166.593 42.1827V48.5522H165.243V42.6505C165.243 41.5529 164.793 40.8512 163.642 40.8512C162.76 40.8512 161.825 41.499 161.357 42.2007V48.5522H160.007V39.8616H161.357V41.1211C161.735 40.5633 162.886 39.6457 164.182 39.6457C165.495 39.6457 166.251 40.3654 166.503 41.2651C166.989 40.4734 168.158 39.6457 169.418 39.6457C171.001 39.6457 171.847 40.5273 171.847 42.2727V48.5522ZM178.874 48.7682C176.283 48.7682 174.429 46.9149 174.429 44.1979C174.429 41.6789 176.229 39.6457 178.712 39.6457C181.339 39.6457 182.886 41.6969 182.886 44.3059V44.6478H175.869C175.977 46.2851 177.11 47.6526 178.982 47.6526C179.989 47.6526 180.979 47.2567 181.681 46.537L182.328 47.4187C181.447 48.2824 180.277 48.7682 178.874 48.7682ZM181.555 43.6401C181.537 42.3626 180.673 40.7613 178.694 40.7613C176.841 40.7613 175.923 42.3267 175.851 43.6401H181.555ZM186.816 48.5522H185.467V39.8616H186.816V41.2471C187.518 40.3474 188.525 39.6637 189.713 39.6637V41.0491C189.551 41.0312 189.389 41.0132 189.191 41.0132C188.345 41.0132 187.212 41.6969 186.816 42.3986V48.5522ZM195.633 48.7682C193.042 48.7682 191.296 46.7709 191.296 44.1979C191.296 41.6249 193.042 39.6457 195.633 39.6457C197.216 39.6457 198.152 40.2934 198.818 41.1571L197.918 41.9668C197.342 41.1751 196.604 40.8512 195.705 40.8512C193.869 40.8512 192.7 42.2727 192.7 44.1979C192.7 46.1232 193.869 47.5626 195.705 47.5626C196.604 47.5626 197.342 47.2028 197.918 46.4291L198.818 47.2567C198.152 48.1204 197.216 48.7682 195.633 48.7682ZM205.062 48.7682C202.471 48.7682 200.617 46.9149 200.617 44.1979C200.617 41.6789 202.417 39.6457 204.9 39.6457C207.527 39.6457 209.074 41.6969 209.074 44.3059V44.6478H202.057C202.165 46.2851 203.298 47.6526 205.17 47.6526C206.177 47.6526 207.167 47.2567 207.868 46.537L208.516 47.4187C207.635 48.2824 206.465 48.7682 205.062 48.7682ZM207.743 43.6401C207.725 42.3626 206.861 40.7613 204.882 40.7613C203.028 40.7613 202.111 42.3267 202.039 43.6401H207.743ZM96.4926 78.5522H94.9992V66.5509H99.8213C102.232 66.5509 103.582 68.2062 103.582 70.1675C103.582 72.1287 102.214 73.7841 99.8213 73.7841H96.4926V78.5522ZM99.6414 72.4526C101.063 72.4526 102.034 71.517 102.034 70.1675C102.034 68.818 101.063 67.8824 99.6414 67.8824H96.4926V72.4526H99.6414ZM112.332 78.5522H110.983V77.5626C110.281 78.3543 109.273 78.7682 108.104 78.7682C106.646 78.7682 105.081 77.7785 105.081 75.8893C105.081 73.928 106.628 73.0284 108.104 73.0284C109.291 73.0284 110.281 73.4062 110.983 74.1979V72.6325C110.983 71.481 110.047 70.8152 108.787 70.8152C107.744 70.8152 106.898 71.1751 106.124 72.0208L105.495 71.0851C106.43 70.1135 107.546 69.6457 108.967 69.6457C110.821 69.6457 112.332 70.4734 112.332 72.5786V78.5522ZM108.608 77.7965C109.543 77.7965 110.461 77.4367 110.983 76.717V75.0616C110.461 74.3599 109.543 74 108.608 74C107.33 74 106.448 74.7917 106.448 75.8893C106.448 77.0048 107.33 77.7965 108.608 77.7965ZM116.799 78.5522H115.449V69.8616H116.799V71.2471C117.501 70.3474 118.508 69.6637 119.696 69.6637V71.0491C119.534 71.0312 119.372 71.0132 119.174 71.0132C118.328 71.0132 117.195 71.6969 116.799 72.3986V78.5522ZM123.996 78.7682C122.701 78.7682 122.053 78.0304 122.053 76.7349V71.0491H120.614V69.8616H122.053V67.4865H123.42V69.8616H125.184V71.0491H123.42V76.4471C123.42 77.0948 123.708 77.5626 124.284 77.5626C124.68 77.5626 125.022 77.3827 125.202 77.1848L125.598 78.2104C125.256 78.5343 124.77 78.7682 123.996 78.7682ZM134.682 78.5522H133.35V72.8664C133.35 71.319 132.559 70.8512 131.389 70.8512C130.328 70.8512 129.338 71.499 128.816 72.2007V78.5522H127.467V69.8616H128.816V71.1211C129.428 70.3834 130.615 69.6457 131.929 69.6457C133.728 69.6457 134.682 70.5633 134.682 72.4526V78.5522ZM141.73 78.7682C139.139 78.7682 137.285 76.9149 137.285 74.1979C137.285 71.6789 139.085 69.6457 141.568 69.6457C144.195 69.6457 145.742 71.6969 145.742 74.3059V74.6478H138.725C138.833 76.2851 139.966 77.6526 141.837 77.6526C142.845 77.6526 143.835 77.2567 144.536 76.537L145.184 77.4187C144.303 78.2824 143.133 78.7682 141.73 78.7682ZM144.41 73.6401C144.392 72.3626 143.529 70.7613 141.55 70.7613C139.696 70.7613 138.779 72.3267 138.707 73.6401H144.41ZM149.672 78.5522H148.322V69.8616H149.672V71.2471C150.373 70.3474 151.381 69.6637 152.569 69.6637V71.0491C152.407 71.0312 152.245 71.0132 152.047 71.0132C151.201 71.0132 150.068 71.6969 149.672 72.3986V78.5522Z" fill="white"></path></svg>